<mxfile host="app.diagrams.net" agent="Mozilla/5.0 (Windows NT 10.0; Win64; x64) AppleWebKit/537.36 (KHTML, like Gecko) Chrome/133.0.0.0 Safari/537.36 Edg/133.0.0.0" version="26.0.16">
  <diagram id="R2lEEEUBdFMjLlhIrx00" name="Page-1">
    <mxGraphModel dx="1758" dy="665" grid="1" gridSize="10" guides="1" tooltips="1" connect="1" arrows="1" fold="1" page="1" pageScale="1" pageWidth="850" pageHeight="1100" math="0" shadow="0" extFonts="Permanent Marker^https://fonts.googleapis.com/css?family=Permanent+Marker">
      <root>
        <mxCell id="0" />
        <mxCell id="1" parent="0" />
        <mxCell id="C-vyLk0tnHw3VtMMgP7b-1" value="" style="edgeStyle=entityRelationEdgeStyle;endArrow=ERzeroToMany;startArrow=ERone;endFill=1;startFill=0;" parent="1" source="C-vyLk0tnHw3VtMMgP7b-24" target="C-vyLk0tnHw3VtMMgP7b-6" edge="1">
          <mxGeometry width="100" height="100" relative="1" as="geometry">
            <mxPoint x="340" y="720" as="sourcePoint" />
            <mxPoint x="440" y="620" as="targetPoint" />
          </mxGeometry>
        </mxCell>
        <mxCell id="C-vyLk0tnHw3VtMMgP7b-12" value="" style="edgeStyle=entityRelationEdgeStyle;endArrow=ERzeroToMany;startArrow=ERone;endFill=1;startFill=0;" parent="1" source="C-vyLk0tnHw3VtMMgP7b-3" target="C-vyLk0tnHw3VtMMgP7b-17" edge="1">
          <mxGeometry width="100" height="100" relative="1" as="geometry">
            <mxPoint x="400" y="180" as="sourcePoint" />
            <mxPoint x="460" y="205" as="targetPoint" />
          </mxGeometry>
        </mxCell>
        <mxCell id="C-vyLk0tnHw3VtMMgP7b-2" value="Orders" style="shape=table;startSize=30;container=1;collapsible=1;childLayout=tableLayout;fixedRows=1;rowLines=0;fontStyle=1;align=center;resizeLast=1;" parent="1" vertex="1">
          <mxGeometry x="450" y="120" width="250" height="130" as="geometry" />
        </mxCell>
        <mxCell id="C-vyLk0tnHw3VtMMgP7b-3" value="" style="shape=partialRectangle;collapsible=0;dropTarget=0;pointerEvents=0;fillColor=none;points=[[0,0.5],[1,0.5]];portConstraint=eastwest;top=0;left=0;right=0;bottom=1;" parent="C-vyLk0tnHw3VtMMgP7b-2" vertex="1">
          <mxGeometry y="30" width="250" height="30" as="geometry" />
        </mxCell>
        <mxCell id="C-vyLk0tnHw3VtMMgP7b-4" value="PK" style="shape=partialRectangle;overflow=hidden;connectable=0;fillColor=none;top=0;left=0;bottom=0;right=0;fontStyle=1;" parent="C-vyLk0tnHw3VtMMgP7b-3" vertex="1">
          <mxGeometry width="30" height="30" as="geometry" />
        </mxCell>
        <mxCell id="C-vyLk0tnHw3VtMMgP7b-5" value="order_id int NOT NULL " style="shape=partialRectangle;overflow=hidden;connectable=0;fillColor=none;top=0;left=0;bottom=0;right=0;align=left;spacingLeft=6;fontStyle=5;" parent="C-vyLk0tnHw3VtMMgP7b-3" vertex="1">
          <mxGeometry x="30" width="220" height="30" as="geometry" />
        </mxCell>
        <mxCell id="C-vyLk0tnHw3VtMMgP7b-6" value="" style="shape=partialRectangle;collapsible=0;dropTarget=0;pointerEvents=0;fillColor=none;points=[[0,0.5],[1,0.5]];portConstraint=eastwest;top=0;left=0;right=0;bottom=0;" parent="C-vyLk0tnHw3VtMMgP7b-2" vertex="1">
          <mxGeometry y="60" width="250" height="30" as="geometry" />
        </mxCell>
        <mxCell id="C-vyLk0tnHw3VtMMgP7b-7" value="FK1" style="shape=partialRectangle;overflow=hidden;connectable=0;fillColor=none;top=0;left=0;bottom=0;right=0;" parent="C-vyLk0tnHw3VtMMgP7b-6" vertex="1">
          <mxGeometry width="30" height="30" as="geometry" />
        </mxCell>
        <mxCell id="C-vyLk0tnHw3VtMMgP7b-8" value="customer_id int NOT NULL" style="shape=partialRectangle;overflow=hidden;connectable=0;fillColor=none;top=0;left=0;bottom=0;right=0;align=left;spacingLeft=6;" parent="C-vyLk0tnHw3VtMMgP7b-6" vertex="1">
          <mxGeometry x="30" width="220" height="30" as="geometry" />
        </mxCell>
        <mxCell id="C-vyLk0tnHw3VtMMgP7b-9" value="" style="shape=partialRectangle;collapsible=0;dropTarget=0;pointerEvents=0;fillColor=none;points=[[0,0.5],[1,0.5]];portConstraint=eastwest;top=0;left=0;right=0;bottom=0;" parent="C-vyLk0tnHw3VtMMgP7b-2" vertex="1">
          <mxGeometry y="90" width="250" height="30" as="geometry" />
        </mxCell>
        <mxCell id="C-vyLk0tnHw3VtMMgP7b-10" value="" style="shape=partialRectangle;overflow=hidden;connectable=0;fillColor=none;top=0;left=0;bottom=0;right=0;" parent="C-vyLk0tnHw3VtMMgP7b-9" vertex="1">
          <mxGeometry width="30" height="30" as="geometry" />
        </mxCell>
        <mxCell id="C-vyLk0tnHw3VtMMgP7b-11" value="order_date date NOT NULL" style="shape=partialRectangle;overflow=hidden;connectable=0;fillColor=none;top=0;left=0;bottom=0;right=0;align=left;spacingLeft=6;" parent="C-vyLk0tnHw3VtMMgP7b-9" vertex="1">
          <mxGeometry x="30" width="220" height="30" as="geometry" />
        </mxCell>
        <mxCell id="C-vyLk0tnHw3VtMMgP7b-13" value="Shipments" style="shape=table;startSize=30;container=1;collapsible=1;childLayout=tableLayout;fixedRows=1;rowLines=0;fontStyle=1;align=center;resizeLast=1;" parent="1" vertex="1">
          <mxGeometry x="450" y="280" width="250" height="130" as="geometry" />
        </mxCell>
        <mxCell id="C-vyLk0tnHw3VtMMgP7b-14" value="" style="shape=partialRectangle;collapsible=0;dropTarget=0;pointerEvents=0;fillColor=none;points=[[0,0.5],[1,0.5]];portConstraint=eastwest;top=0;left=0;right=0;bottom=1;" parent="C-vyLk0tnHw3VtMMgP7b-13" vertex="1">
          <mxGeometry y="30" width="250" height="30" as="geometry" />
        </mxCell>
        <mxCell id="C-vyLk0tnHw3VtMMgP7b-15" value="PK" style="shape=partialRectangle;overflow=hidden;connectable=0;fillColor=none;top=0;left=0;bottom=0;right=0;fontStyle=1;" parent="C-vyLk0tnHw3VtMMgP7b-14" vertex="1">
          <mxGeometry width="30" height="30" as="geometry" />
        </mxCell>
        <mxCell id="C-vyLk0tnHw3VtMMgP7b-16" value="shipment_id int NOT NULL " style="shape=partialRectangle;overflow=hidden;connectable=0;fillColor=none;top=0;left=0;bottom=0;right=0;align=left;spacingLeft=6;fontStyle=5;" parent="C-vyLk0tnHw3VtMMgP7b-14" vertex="1">
          <mxGeometry x="30" width="220" height="30" as="geometry" />
        </mxCell>
        <mxCell id="C-vyLk0tnHw3VtMMgP7b-17" value="" style="shape=partialRectangle;collapsible=0;dropTarget=0;pointerEvents=0;fillColor=none;points=[[0,0.5],[1,0.5]];portConstraint=eastwest;top=0;left=0;right=0;bottom=0;" parent="C-vyLk0tnHw3VtMMgP7b-13" vertex="1">
          <mxGeometry y="60" width="250" height="30" as="geometry" />
        </mxCell>
        <mxCell id="C-vyLk0tnHw3VtMMgP7b-18" value="FK1" style="shape=partialRectangle;overflow=hidden;connectable=0;fillColor=none;top=0;left=0;bottom=0;right=0;" parent="C-vyLk0tnHw3VtMMgP7b-17" vertex="1">
          <mxGeometry width="30" height="30" as="geometry" />
        </mxCell>
        <mxCell id="C-vyLk0tnHw3VtMMgP7b-19" value="order_id int NOT NULL" style="shape=partialRectangle;overflow=hidden;connectable=0;fillColor=none;top=0;left=0;bottom=0;right=0;align=left;spacingLeft=6;" parent="C-vyLk0tnHw3VtMMgP7b-17" vertex="1">
          <mxGeometry x="30" width="220" height="30" as="geometry" />
        </mxCell>
        <mxCell id="C-vyLk0tnHw3VtMMgP7b-20" value="" style="shape=partialRectangle;collapsible=0;dropTarget=0;pointerEvents=0;fillColor=none;points=[[0,0.5],[1,0.5]];portConstraint=eastwest;top=0;left=0;right=0;bottom=0;" parent="C-vyLk0tnHw3VtMMgP7b-13" vertex="1">
          <mxGeometry y="90" width="250" height="30" as="geometry" />
        </mxCell>
        <mxCell id="C-vyLk0tnHw3VtMMgP7b-21" value="" style="shape=partialRectangle;overflow=hidden;connectable=0;fillColor=none;top=0;left=0;bottom=0;right=0;" parent="C-vyLk0tnHw3VtMMgP7b-20" vertex="1">
          <mxGeometry width="30" height="30" as="geometry" />
        </mxCell>
        <mxCell id="C-vyLk0tnHw3VtMMgP7b-22" value="shipment_date date NOT NULL" style="shape=partialRectangle;overflow=hidden;connectable=0;fillColor=none;top=0;left=0;bottom=0;right=0;align=left;spacingLeft=6;" parent="C-vyLk0tnHw3VtMMgP7b-20" vertex="1">
          <mxGeometry x="30" width="220" height="30" as="geometry" />
        </mxCell>
        <mxCell id="C-vyLk0tnHw3VtMMgP7b-23" value="Vet_clinic" style="shape=table;startSize=30;container=1;collapsible=1;childLayout=tableLayout;fixedRows=1;rowLines=0;fontStyle=1;align=center;resizeLast=1;" parent="1" vertex="1">
          <mxGeometry x="120" y="120" width="250" height="230" as="geometry" />
        </mxCell>
        <mxCell id="C-vyLk0tnHw3VtMMgP7b-24" value="" style="shape=partialRectangle;collapsible=0;dropTarget=0;pointerEvents=0;fillColor=none;points=[[0,0.5],[1,0.5]];portConstraint=eastwest;top=0;left=0;right=0;bottom=1;" parent="C-vyLk0tnHw3VtMMgP7b-23" vertex="1">
          <mxGeometry y="30" width="250" height="30" as="geometry" />
        </mxCell>
        <mxCell id="C-vyLk0tnHw3VtMMgP7b-25" value="PK" style="shape=partialRectangle;overflow=hidden;connectable=0;fillColor=none;top=0;left=0;bottom=0;right=0;fontStyle=1;" parent="C-vyLk0tnHw3VtMMgP7b-24" vertex="1">
          <mxGeometry width="30" height="30" as="geometry">
            <mxRectangle width="30" height="30" as="alternateBounds" />
          </mxGeometry>
        </mxCell>
        <mxCell id="C-vyLk0tnHw3VtMMgP7b-26" value="clinic_id INTEGER NOT NULL " style="shape=partialRectangle;overflow=hidden;connectable=0;fillColor=none;top=0;left=0;bottom=0;right=0;align=left;spacingLeft=6;fontStyle=5;" parent="C-vyLk0tnHw3VtMMgP7b-24" vertex="1">
          <mxGeometry x="30" width="220" height="30" as="geometry">
            <mxRectangle width="220" height="30" as="alternateBounds" />
          </mxGeometry>
        </mxCell>
        <mxCell id="C-vyLk0tnHw3VtMMgP7b-27" value="" style="shape=partialRectangle;collapsible=0;dropTarget=0;pointerEvents=0;fillColor=none;points=[[0,0.5],[1,0.5]];portConstraint=eastwest;top=0;left=0;right=0;bottom=0;" parent="C-vyLk0tnHw3VtMMgP7b-23" vertex="1">
          <mxGeometry y="60" width="250" height="30" as="geometry" />
        </mxCell>
        <mxCell id="C-vyLk0tnHw3VtMMgP7b-28" value="" style="shape=partialRectangle;overflow=hidden;connectable=0;fillColor=none;top=0;left=0;bottom=0;right=0;" parent="C-vyLk0tnHw3VtMMgP7b-27" vertex="1">
          <mxGeometry width="30" height="30" as="geometry">
            <mxRectangle width="30" height="30" as="alternateBounds" />
          </mxGeometry>
        </mxCell>
        <mxCell id="C-vyLk0tnHw3VtMMgP7b-29" value="address TEXT  NOT NULL" style="shape=partialRectangle;overflow=hidden;connectable=0;fillColor=none;top=0;left=0;bottom=0;right=0;align=left;spacingLeft=6;" parent="C-vyLk0tnHw3VtMMgP7b-27" vertex="1">
          <mxGeometry x="30" width="220" height="30" as="geometry">
            <mxRectangle width="220" height="30" as="alternateBounds" />
          </mxGeometry>
        </mxCell>
        <mxCell id="IDw5NzByzCioOK2gBph7-1" value="" style="shape=image;verticalLabelPosition=bottom;labelBackgroundColor=default;verticalAlign=top;aspect=fixed;imageAspect=0;image=data:image/png,iVBORw0KGgoAAAANSUhEUgAAAsQAAAJeCAYAAACzqBOmAAAAAXNSR0IArs4c6QAAAARnQU1BAACxjwv8YQUAAAAJcEhZcwAADsMAAA7DAcdvqGQAAP+lSURBVHhe7J0NfBTV1f9/CagFlSiBLAhoDSRVhAgKlAixQqXUUmqEtgjE+rQVESJGpVRbBeSlT23TKAEDIrRPrSGI/4KxlLaUKuqCoaBSg6ImEEWisMGIAd+t5H/PnXt3Z2fvLhuz2becL59DZu65M/Pb2Ts7Z+/eOTela9euzZ06dcLnn3+O//73vzCRmpqK0047DZ9++ilOnDihSv3p2LEjTjnlFHz88ceqxMy5556Lt956S60FwlrMsBYzrMUMazHDWsywFjOsxQxrMcNazCSKllT1l2EYhmEYhmHaJRwQMwzDMAzDMO0aDogZhmHakLS0NHTu3FmtMQzDMPFIKo3dIFJSUuQ4DpPZMfnJNCaf3UIdh4xgLYFGsJZAI1hLoBGsJdCIaGs555xz0LVr1wA/0Z7PSzAjWEugEawl0AjWEmgEawk0IlidlF69ejXLGlGiR48eOHz4sFqLLazFDGsxw1rMsBYzWktmZiY++OADNDQ0KE/04ffIDGsxw1rMsBYzyaIlpVu3bs30dB89cffFF1+o4kD0E4DBoOiangAMVYfo06cPDh48qNYCYS1mWIsZ1mKGtZiJhZavfe1rOH78ON555x3lsWjv5yUYrMUMazHDWsywFjOhtKTqFBfNzc0y3YXJ7Jj8ZBqTz26hjkNGsJZAI1hLoBGsJdAI1hJoRLS1UCD83nvvBfiJ9nxeghnBWgKNYC2BRrCWQCNYS6ARwer4D95gGIZhIkpTUxM++ugjtcYwDMPEIxwQMwzDMAzDMO0aDogZhmEYhmGYdg0HxAzDMG1I37595ZPPDMMwTPzCATHDMEwbQk9Gd+jQQa0xDMMw8UhKRkZGM31gUwoKesrOBCUx7tixo0xVQU/nmaCUGPSh//nnn6sSM7169cLbb7+t1gJhLWZYixnWYoa1mImFlqysLJmH+NChQ8pjwe+RGdZihrWYYS1mWIuZUFqiPjFHz549A24MsYK1mGEtZliLGdZiRms599xzZZaJd999V3miD79HZliLGdZihrWYSRYtKV27dm3u1KmTjLopOjdBkblOmhwswqfoniLvjz/+WJWYoZvDW2+9pdYCYS1mWIsZ1mKGtZhhLWZYixnWYoa1mGEtZhJFC48hZhiGYRiGYdo1HBAzDMMwDMMw7RoOiBmGYdqQtLQ0dO7cWa0xDMMw8QgHxAzDMG0IPeRx9tlnqzWGYRgmHuGAmGEYhmEYhmnXcEDMMAzDMAzDtGs4IGYYhmlDKCfm0aNH1RrDMAwTj6QMGjSomfK70cwdwWYIoVlEKE8c5YcLVYdmEQmWZ05zxhlnyFmbgsFazLAWM6zFTLxqmTJliir1QcchI//J9NJ+QqFzWQaDXs/JXjNrCSRWWvbs2SPNjj5OtNuuCdbCWuywFjOJooUn5mAtAbAWM6zFTLhaxJdvFBcXY926dcrDMMHp06cPLrjgAkycOFGVWPA1zVrssBYzrMVMKC0cELOWAFiLGdZiJlwtFBBPnz4d06ZNUx6GCc6QIUOM7YWvadZih7WYYS1mQmnhMcQMw8SE4cOHe+3rX/+6cZ1hGIZhogEHxAzDxAQaw1V46y+l3XzbXdbybZbdfPtdQceSMQzDMEyk4YCYYZiYQA9JECOGDfDZUMsI7WcYhmGYtoYDYoZhYgKNFfviixP47LPP8OmnwtRfWqfyYGPJGIZhGCbScEDMMExMoNQ3n//3c1xzzTXo06c3+vQWJv7SOj30QH6GYRiGiQYpvXr1iupAPZrXnxLVxwOsxQxrMcNazISr5ZJLLsGPf/xj3HDDDXJ90KDBuLHw57iwXy+5bufV/W/joQd+i//8Z7cqiUNmVKJuDlCSmY8ylKKqsQDZTW7Mk+tMa6EsEzNnzkRhYaEqiTx8TZthLWZYi5lk0ZKSkZHRTKksqDcm1E+UVIfSVAR70IXSZlDSZOrZCYUIwPH222+rtUBYixnWYoa1mIlHLYMHD5YptHRAPHBgDm6Y8TNknptBT9jRoGHv37qDDVi9/HfYs6da1o1LllWhrk85MvNFOLyjEeMPz5PLTGSggPimm26S5qQ9X0esxR/WYoa1mAmlJZUEEOSkZZPpDWknJj+ZrmPy2Y1erKlcG8FaAo1gLYFGsJZAI+JNCx2L6mpo/TPx4fba/rfxWt07fn8/+/y/0h/PlA7NhudgGQor61AAKzCWUM9xYyMavVaHyhmivgiaq5ZZVWSdukoUin+VdZZfIoLsxh2lYiFIuZ9f7FsuU++073jeYyQBprYVi7Zr8pGxFrOftZj9rMXsjxctPIaYYZiY8IX4UFq94neWLVd/tZUVS3/8UojzMoDsKY2YjRKkDy9S5YL+LqTVliM9PV1YOWrgwYEVpRiWVYOds6wqhWNzgOotKEM2XKjGlhVWOQXZTYdrRMA8BjmO8ppdRSjs45L+0h0L4dok9i+OW7qjAKigYwm72w3XUAqSGYZhmJbAATHDMDHh9dde9dnrtmXbetwiA1Y35omA15NXAHsIqoNXybJhyK7diaIZ58HV5BHBsUV2jzTZuyz9aXlYqHp3C7KaUL1ZlFNQ3XBAjUWm4LsJnr2FGJOThrS8hXJ4Rq4KrouGlwMiMJc9xIvzkGYVMwzDMC2AA2KGYZiWIgJWq4e3COVuF8ZX6ge/dPCq1lSPrq9HmPD1FpO/xta7K7bEgRWOoNrbW5wNV1oNykU95IwRRxLQEIrGYdgpe6PTMc/dZPUwMwzDMC2CA2KGYZgWoscPE2X5G+HRASoFr2lWUEvB8RiKgzeX+XqEBTTEIVv2Flt+HTxbQy12ihDbHlQXonJOntVbrHubV+RjY0MeCpapgNtdLrYhSlGQ5zsOwzAMEz4cEDMMw7QI/15giHB0JwWoWypRtzgP8Aao1KNrBcc1h5vkeGMa1jBebNukxw97g2cV3Mre3TIcaEhD3mKqPxsiZvYbP0wU7apB9tBSKxjPW2gNl2gcBtRKN8MwDNNCUrp169Z82mmnySfs6Am/YFCdTz/9VK0FQikxKJ1FqDpEnz59cPDgQbUWCGsxw1rMsBYz8ahl0KBBuPHGG2XqNYY5GTrtGrUZJ+35OmIt/rAWM6zFTCgtUZ+Yo0ePHjh8+LBaiy2sxQxrMcNazISrxTkxB8OEIhoTc/A1bYa1mGEtZpJFC/cQs5YAWIsZ1mImXC3cQ8y0BO4h9oe1mGEtZliLmVBaUnWyY0pmTMsms2Pyk2lMPruFOg4ZwVoCjWAtgUawlkAj4k0LGcO0BFPbsuP0adOYfHYLt+2afGR2TH4yjclnN9ZiNtZiNtZittZo4YfqGIZhGIZhmHYNB8QMwzAMwzBMu4YDYoZhGIZhGKZdk9K1a9fmTp064fPPP5cDjU3QYGY94JnGWZjo2LGjHPD88ccfqxIz5557Lt566y21FghrMcNazLAWM/Go5dprr8Vdd92F7du3K0/kodcV7PVEG9ZiJlwt5513nvw7ZswY+VcTi7bL17Q/rMUMazGTKFo4IGYtAbAWM6zFTLhaKMvEL37xC/z6179WHouUlBSceuqp+Oyzz+TDDiY6dOgg9ZDeULhcLng8HrUWCL1mOifBnnZmLfGjJSsrC9dccw0mTpyoPBZ8TbMWO6zFDGsxE0pLSkZGRjMdhD4IgwmhD0MSQzsI9mFIL4g+EOlAoejVqxfefvtttRYIazHDWsywFjPxqGXw4MEyhdb06dOVxyLZz0uXLl1kXecHObcXM+29vQSDtZhhLWZYi5lQWqI+MUfPnj1x6NAhtRZbWIsZ1mKGtZgJVwtNzEGTctBkC21FPJ6XzMxMfPDBB2hoaFCe6MPtxUwinpdowFrMsBYzyaKFh0ywlgBYixnWYiZcLTRkgnr7nBNzJPt5ueCCC3D8+PGAXgtuL2bae3sJBmsxw1rMsBYzobRwlgmGYRiGYRimXcMBMcMwTBtCP98dPXpUrTEMwzDxCAfEDMMwbUhTUxM++ugjtcYwDMPEIwk9hvi73/0ufvnLX6KxsVF5LeiJRbJgWjWkl44VDDoWPfEY7KlHfZxw6rAWf2Kh5eyzz5Ypv/7yl78orwWP2YqOlqBjQmdWYv+cVJT0zccDWsuMStQtdmFjei6KUIgn6hZiZJrlkjS5MS8zH2VqVWNpGY/KutlAcSbyV4hCua88pNWWo/eoDniqfjKyreoWal/ZOxoxbFd3jP6577yUirLxh+chc/MYsY8cVN+die+vUuflf9Z6NUJum47cWWqfgt8/34hR9WrbOUCJ0ltYWYeFeWmoXbcInm/fgmatU1IotC+Ea1M6RhRxe+ExxD5YixnWYoa1mAmlJaEDYkrJk5aWhkceeUR5GSY4BQUFOHbsGB588EFVYsEfQNHREn5AbAWFeWk1KPcGxAU4eNFo3ExaKMC1BZh2LC32gJj25QuOO3V6QATEl2Kn3K/Atq+AgLh0OxqnZIt4+UsExMuq/LfVem3H+0OnW/HoK/4BsQ6Wayo4IOaA2B/WYoa1mGEtZkJpSfghE/Rz5DvvvMPGdlKjYJiJfworZyOn2o0atd4qlhUgr2GjrQc2XJagagrgdjep9ZZQKrfdueu4XOvbrZP4wD9VLpdenwfPpsBAXiKC5dk51XDXqnWGYRgmavAYYoZh4gcVFJbkH1AFRDYy7MMlwiINeYsb0Th0J9KHy77gFrHkualARS62qHULa580y1p9fT0aaRiG8tgp3VEgt92m1k9JTQHO/DoWNgYOq/BRiMo5Oaguzof9lTMMwzDRIWXQoEHN1BVNM3eEGodJXdrUlR2qDs0iEqxLXHPGGWfIJPXBaImWyZMn4/333/f+BF5UVIRzMgfL5QDEPemOW/5HrTDtkZtuuglnnXUWKioqVIlFLNpuPF1H0dIyYMAATJ06FXfeeafyWKQUPIRnbgRWf2MbRjxzA/DQ5ZhePh8bdl+MlwZPwAKI5Wd74S+jZ+KPpKVgJZ4V9VddPh3OwVKWlmuw8tlpcj/vTNiNfFRi8IQF0t+x4z14bFeO2q/Atq/MDbtx8Z5L8AOsx/M5L2HwNQtw3UPPYhpW4fJnR+LZ2Rfi1ZLLcdMadV6uLRNl3fGk2JcQi4urB2MCNmA3bSuOd8Pv3fjRFw8h//lReOK6E3go7yCu2Z0PPCHq3UNa/gfLn/oJmoXObZer49z4COarfU1cwO3F2F5ioCWezgtr8Ye1mGEtZkJpSfgxxIQ9IB6f/0NkntdTrtv5f399lgPidg4FxASPIY6NlpONId5YPQDfbS5BZj4NKChFVeMwa6wvjccdugu9R91haWnRGGLaD/XYWj2zJx9DvAYpU8Rxu1+GW8R5oTG9syE0hTWGuBygbdW+7/rHm/jpJ8UY88L38ORPv0DxV7+DMjm2GHJs9J16DPGmauSM870eepCPepJ5DDGPIbbDWsywFjOsxUwoLUk1ZIIifjqZX3xB9oXfX+FUtRiGiTu6jMDUgTRUInB0benQbNQ8f7taaylFKHc3IXtcJQqXlaJYlQYje8pUYN0o3KrWW0L2FGuohHOAxv53PxafS59ZK7PK4W7KxvjKQmudhmFMsYZKGMcVMwzDMFEhqQLiTz/9DB9/8ikuuWSwnAdf/7333nuDfutgGCYeOAb37yYEBIUXVtahIEsEm5PVuN3GRmvsbloeZnuDytCU5ZfADVF/+GUYRynXancFBK1eatdg1Gy13FJqy4OMD7ZThvxiN5A3G+tUx2eTu+RLPPTHMAzDRJKkCog/++xzfPLJJ7hx+k1+dtbZZ0clIKafV+scN2lTWbxA2mSAoaxqmXIwTDR5cAL69+6PCX4jWYqQm56LJ8QSpS5zuVzo3bs30tPTLasIlYNCBJ2Z9ty+tJ6OzKFDxXF6wzXS1tu8Ih+ZaqhC0fB0dL/Mv2+4LD/TGsJB9dLt+xTIMqtHmLZ1Prz3yI2X+7a1D+9Q+5q0aiUmZrvUEBEftK+TB9YMwzBMJEmygPgzERB/im+OHoPRwux/vzjR9kMmsnukwXPQ/+ZmKosLllVhYY+NvgBDGN+EmUSi06UL/b7Qke3evRuNdZWIp6+glCu9c+fOao1hGIaJR5Kwh/hTHDz0LuqF2f+2fQ9xKYZl1WCnX1BpK6OHd7w37jpUzrBq2HtpdU+yuVeZHg6qEv8Hgfa/oxKVdeoYO3w16SEdfQyrvBCV41xoyihQ5T49/jp9x7M0VQoNlq9qGU14oOrpfdbZ9qOhh4hsWhimJXh7aJ3MykXPPr4vc9oGDx6MdHtvbBzQs2dPOUsiwzAME78k1xjizz7Dzl3PG+3gGxFJ8x+cGefBpRa9LBuG7CYPanSO0bvVjbvCg5yxIuClXtqcasyTN/NyePIKZACa3QOo3uy4pdP+5b7MFI7NQVpWDlBs7asma7wVnIpjFKBcBQzz4M4YhtIZY5CTlgbPJqXn7mrkzKFeNRF0yyfprfJ5bhcKVDBLPd1peS7slOVNyJ5CT/HTtm40ZYl9Ilu8/mpscYyFLOwjAu/DbXzuGYZhGIZhWkFKr169opp+gXpLDh06pNZaxw033CDTZzjTaMUK6omlB4DsyKlbqYeLel5tifyb3JtRnTPcO6WsDytNVLZaExUxj3q8qKc1xCQDOlWTHvZQuqMO5z1s7dtfVw3KK4ACv31ZKa6OiwC4H6WY0j1y3pRUB1DQOB6eu3378x6LdI3zYN4mFxZO8ar2vm6nrlhCadcobcvq1atVScuIZNttLYmohR5wpWt25syZqiTyxON5yczMlHkxGxoalCf6cHsxk4jnJRqwFjOsxUyyaEmlgJKg9GS0HMwIyttm8pHR9oTJZ7dwjhOuFn3MeEE+WCN7YsnmgWZ9pfHDclgEBZbKV15L5UfgSvPggKNH1eoJFkGwrtuQh4JlIgil1FO7gj0bX4jzMuzDNWioBu2bAl0rIJWaqDe3yYPuzl5b1fsM53jn/i6kNRxAmfTr3l86VhM8e2UNqwe4egtAf0UQbL123dttGkYSW0xtKxZt1+QjS2YtdCwauhSsTrKeF/pwfu+99wL8RLS1BDMi3rS01/YSzAjWEmgEawk0grUEGhGsTioJIOiDh5ZNpsff0k5MfjJdx+SzG+UKNpVrI8LVopfjk2wR8FrBIA03qNmkxjXOqMT4LAooa+BpcuE8NeaWelJp3DANfYAIMK2wVAef/kFoIHQs374KK8cju3YnilRwXa4C0tLr82SAO+WgB2k5Y8TeCRrOkSeP+cThJmQP1eN9RTA9xQX3w0X+mmi4hXdoRCHGkGsz1F/ds6yGd+i/VmlcYGpbsWi7Jj9ZMmvR16zTHwstJh9ZW2ihYPj48eMBfiLaWoIZEW9a2mt7CWYEawk0grUEGsFaAo0IpiWpxhDHFbZgsOhhN1xT1ANoc1wiEKYKZcjf5EHeYqucxvnSEANrrK5+en4hcqpLkA97EGqAxirXVgNzrH3Jcck0HGJFPjY25GGh3FcjhunQdFau7Hm2yukY1vAGma/V+6AdTTJgDZHwy5She43lCgXi1BNNf9O8r6WRxiEX5wN+wT3DMAzDMEx8wgFxW2HPPSrzjqphC5m5yNU5UkVgag0xEKbG8/oPu0i3xvM685g6sB5c2yJzrcrtbHXt+8sdLo5nOI53zLDYyrsPqq96lv3yopJm79hjK1dskfzr2y5d5WsNmiGAYRiGYRgmjuCAOFGgh9dUT6+/1WHmBXGa65hhGPTt2xc9evRQawzDMEw8wgFxomDvTXb0xl50QXxkcWAYJhDKbNKhQwe1xjAMw8QjHBAzDMMwDMMw7ZpUgVxISUmhFaPZMfnJNCaf3UIdh4wIVwvVY5iWYGpbGme50yLZdk1+Mo3JZ7dE1KLN5Nc4fdo0Jp/dwtVi8pHZMfnJNCaf3fRx6OlleqrZ6SeirSWYEfGmRZvJr3H6tGlMPruFq8XkI7Nj8pNpTD67sRazsRazsRaztUZL1CfmoLF0hw8fVmutI94m5mDim9ZOzBHJtttaElFLNCZa4PfIDLcXM/wemWEtZliLmWTRktKtW7fm0047TfZiUA64YFCdTz/9VK0FQtE1BRuh6hB9+vTBwYMH1VogLdEyffp0dOnSBY888ojyMExwrrvuOhw7dgwrV65UJRaxaLvBSGYtgwYNktfsjTfeqDw+2vN5YS3+aC3cXvxhLWZYixnWYiaUlpSuXbs2d+rUSfa0UiUTJESL1cmRnXTs2FGK/fjjj1WJmXPPPRdvvfWWWgukJVpKS0sxZswY7N+/X3ktqDucLJhWDemlYwWDjkVJnslM6OOEU4e1+BMLLTSF7pYtWzBrlv8TiLFou/F0HUVLiw5wpk2bpjwWXi0/Xot9i/LgqXA+JOqYzpyoLUf68BpU1i1Enp4PXVEjty80+nBsO+7JmoBldF4oc4ttunHabkRR+36PEqq98HvkB2thLXZYi5lQWhI6INY9B84hE9ygWIuG20v8aDlZgPPTR1/B7S6PKNmJTG+ua0IExHVfxbqLrsUS0kKB7NCd3oBYTyxDnPuH57H76s9Rnl6O8xw+QmuZ/ucaLMzziHqUR5uwgm5UdMfon0f2vKSlpcljfvTRR8pjwe3FTLjtpb2eF9biD2sxw1rMhNLiP5qZYRgmJkzHlQOB6ofLUZ0xHpVqGvIWc89LqIFvGnMzMzAmJw01FToYJoqQe/c87Ho18uNVe/bsibPPPlutMQzDMPEIB8QMw8SeaaOR0/BX5K8ow5ZqIGdsoXIIaBp0tXhS7rkY2aDpxK1V3zToltU/XSxi7yuRk9YEz16rjhdx7FsfXK5WGIZhmPYEB8QMw8Sc6WMGwrPrVrlctpki4jGwhcRAwwH4Pwrpwx707r76fL+e3yb3PL+JbHpfMQdYeUCEzAzDMAzjgwNihmFizBJce1kXZE85YgW2i/OQlpaDMWrYQ+HYHMBTa60YsAe9gwcPDmPWxlp4mtLg6q9WNcuqcGTfBkxXq5Hi0KFDOHr0qFpjGIZh4pFUGqgsF1JT5aBlk+lpR+mvyU9G2xMmn93oiX9TuTYiXC1Uz1Q3FlpMfjLWYq4TCy1Uz1Q3FlpMfrJk1qLfA6e/w7JhyDq2HQt69IDL5ZJ2zzYg7/qlwj8L3xLx8J4tVv+w3EbOx0PHTBX/06Jvnz4tgT4yIjV1JZ7c0yQC8Cos9fqWompKNmr//gPZEx3J8/Lhhx/is88+C/AT8fYemXxksdBCxzJpau/nxeQjYy1mP2sx+1lLoC/qE3PQAybUYxIJKGk78WUnWoikltbCWsxwezGTiFqCTbRQ/HQ9xjUsQv8f2gZFTFuHvfMzcGRfFvr2U2UOatctQsNVczHwZd+2Pi3TsW7vXIzoIottHMP2Bf0xaZWo8dhezL3MV6F2XW+Mmq1WIgC3FzOtbS+RhN8jM6zFDGsxkyxakjPt2gNV8Ax9Aelfv1mVCChV0zgP5mXmoyxoXlN7qidOWxKMpGsv/B6pUn8ireXLpNEq3dGIYbvSkXebv5bCyjoUHMwMGB7B75GZ9tJeNPwesRYNa2EtdkJpsfqgkx4RANsS8Eua3Lhv8GBr7GFFjSpkGIaJLH379pXTiTIMwzDxS7sIiEt3FABuN5rUOsMwiUHRcOesdRZl+YG9w/EK9WroMXIMwzBMfJL8AfGyKhSgHLmb1TrRkrymDMMwDMMwTFKT5AExDZUAyh1jgyUNB/CIWmQYhmkraLzaF198odYYhmGYeCSpA2I5VMJvelYLmdf0MI8bZhim7dm/fz8OHz6s1hiGYZh4JHkD4n6TraESAeMMCzFGxMPVm8vUOsMwDMMwDNOeSeIe4lrjUImrdyxEXloa8hY3Yvfu3dbMWJSBIqsAVctUJYZhGIZhGKbdkDJo0KBmyu9GY9yam81zdNDMH5QnjvLDhapDT1IHyzOnOeOMM/DBBx+otUBaomXy5MmyrKKiQv7VhNIyf8NuXFw9GBPu8ddy3UPP4pp3LpflmkQ9L6zFh13Ll2kvdvg9MhOulgEDBmDq1Km48847lcci2c8L5dekYzrrc3sx097bSzBYixnWYoa1mAmlJTkn5gihRSf6p6EUdi2mRP+c2NpMe2ovdvg9MhOulvY60cIFF1yA48eP4+2331YeC24vZtp7ewkGazHDWsywFjOhtCR/2jUHyZDXlGEYhmEYhokc7S4gZhiGYRiGYRg7HBAzDMO0IYcOHcLRo0fVGsMwDBOPcEDMMAzThjQ1NeGjjz5SawzDMEw8wgExwzAxZebj+7D3selqzYIecq2rLFRrgiVu1NfvReUMte6lEJV1jVb6RGG7n10pSnR5naE+MSOEj5iODfuOePepzS8tY8lWUebYx7Iqv/oyrWNdpdIjmFGJOpu//uliq9yxnbYjR7ajeNo67Nu3wbcPO2J/NTXrhVqGYRimtXBAzDBMVOjbt698UvjLcN+QbNTu8yBnrD00LEVV40LkVM9Denq6tPteuxAL7UFoK2hy+/abXlGD7ClV4ogWxZdmoabWqUdQW+7dZvDgwUjPzIecAoiC4cV58FSo/aXPw/aMyfBsuw+YlevdprzWd9zu3UdgjtwpwzAM09ak9OrVy5z0rY3o2bOnHFMXCW644Qb5d/Xq1fJvS4mkltbCWsxwezETSy3Dhg3D5Zdfjq985St48cUXZU9oKC0XXXSRzAE9fPhwfPLJJ/jud7+rPBbTH9uLIhFq9v/hSlXiLCvG1voheL738xgi/46yAsWSrai/qgGL+k+C3rJnzzn43s+OAbOB0XuLgPv7Y9Iq5fQyHeuC+gjyz8XAlxfZNJGGcWhYQNuE0HPp8+h9hRXG6veI0gDNWfMcrvlirdcnmbYOe+cPxB65T6uo+Ol6jGuwHZfq3CZCf9tr9BLK5yAR2+4ll1wir9mZM2eqksjD17QZ1mKGtZhJFi2plI+NoETFtBzMCMrbZvKR0faEyWe3cI4TrhaqZ6obCy0mHxlrMftjoYXqjRgxAl26dPHzx0KLyUcW71p++ctf4tZbb8X+/fuxa9cujBo1CiUlJcb9fO1rX8PChQvxv//7v6iursbtt9+ON998M6DeAwcOo8uA0Zhm28cXJ5rRfELpL74UGdsrRNA5Bztrs3BpsVXnN5dkAZ438YDaRm73xcN44JYHRBklXu+CEfPrUV/vs60ldF6s5O/NX/i2sxtBOdu9xycTGrJwGG8uF8f43RC4nnsUt35+q5+ez4VmmjJeH4vOT/0rj2JK6hT06gY0HX7dtz9hWPUUqpu6oHu2r4x2YT+u1NJlBObaXkN9/VP4Dfm/EK9BJZfX9YNZrNqLycLVQseinKTB6iTydWQy1mI21mI21mK21mhJJQEEffDQssl0omTaiclPpuuYfHajD3BTuTYiXC20bKobCy0mPxlrCV3H5LNbJLXQDDaUAPxvf/sbbr75Zpx11ll+dZzb3nTTTVi/fj02bdqEefOsn7GddexGhKvF5CcLpsVpsXiPrrnmGpxzzjnyL832V1lZKc/j1q1bsXjxYm+9Cy+8UAbB9957L/7zn//g6quvxpo1a+SxTJpO3DICaxtGYP7hw/B4PNLuGZlGkaH0lwxxYc/m5VLLLbtqkD3ECsBfP9wkSvzPg++8iKAXTXDfrYcoCLvbDdekrfgdBdu05Qnfdtr0ayZ/2sh7vHo8k7NRU5GLW0Sd312agT1bVsr6dj3/pY0cQybKG0bif5YOlvvUr0ebl2ZfmQxvVT2tBU1uzNOvQdg8twtTt4ljUvSs0NsHs0S8poO2lxhoMfnIWIvZz1rMftZi9seLFh5DzLQbjh07hqeeegrjxo0DzXizefNm2dtJQYaTxx57TJZTr+b111+PN954A3/84x+RlZWlaiQ+dA7OPPNMZGRkyEDXafTTE5lev/baa7Fsmf3JMoulS5fiqquuwoQJE1BWVobS0lIcOHAAP/nJT2SwrPfTrVs3OUuQiTlX9Eb37t1tQR8Fu4IZlRiflYaRCz2yd7RxSjaQNUyO5S076AEyznOMF75OPmTn9wCcZsUW7DnmwnlhPoXmN4ZYmJy4R+j5rtBDPc/y4TebHhNFImA+o+u7OPiuCLB7iLp2po3GwLQmePaq9TAp21yNpoDXzTAMw7QGDoiZdsfhw4dRXFzsDYz//ve/y55OCtiIWbNm4eWXX8aCBQvk0ACq/3//939yuAD1FEcDeviMerRJU58+fWQgPnDgQO/4XTLqeZ00aZIM2Kk3m4L7O++8U+qmHtv7778fDz30EP70pz/h//2//4eNGzdiy5Yt2LZtG3bu3Iknn3xSlj3yyCNyXPWqVav8bOXKlTLA1evU80tfDEzQt2s6p9/5zndkLzz91dvRPmhfdP6CBcTBKBybg7TacrhcLvTu3VsGpuW12RhPGShm7URNWh5m27JRXPfQNOTBjXLTrJMzxmBgFw8OnGzAbQgsPWu8Wvz0GCgdmo2mgy/gxt+70ZRVYAvUC7HuthFiX39F/gpVFCZSQ8MB62E9hmEYJiKkdO3atTlR57y+8cYbZdmDDz4o/2ra2/zbBGsJr730799f9gzboaDmiiuuQG5uLl5//XUZhF533XXG4G/Pnj2466675E87Tk499VRZTkYB7Ntvvy310cNn9Jfs9NNPl6+bynS5fVkbQeeGHkIjcy7TPo4cORK0Dp33Dz74AB9++KGxzmeffYYOHTq06D2i64yGkFBQbSctLQ1PP/20HCIwdepUee5ozDAF2nS+6PXQezRo0CBMnz4d06ZNU1tamNoLpV2bjR2ozhkL16Z05N1m00JpysZ5ME9mcKBMEwXw9r0e34l5X71KlFPatYXIS1Plitp1vTHylhvw55rbgOLMgGDU0nIL1r4yV2avyMy3h53WPl1/c2H0HFvb1Xo2ubCQeozt0HAHnWnCqXXfWrhG3OrXdkt3NGL8Yeu4UsvNlXhlvgicld+iBuXpuSiizBVzUrD0omuxRGsJQiJe0y1pL074c5e1aFgLa7ETSktyBsQPVMEz9AWkf/1mVSIIdRMlaOzf8CK1YuHVMu3P4sYDlKgbG92sF4o7bU1Fd4yuNdyw5L5qxM1zNlJKsnHtH/R5UTdUcYPPhdAzBdaNTXjkeZmzTmncgjFiW/sNu1OnW/GouEln6G2H7vTqpZtoQVYTtm9+GQOGn/DqlMh0Ty5sFMeZ3c4vNGov1HNJwZodqkPHoWCZHrijoRVjx46VAacTyqpAASEd0wm9Jnq9ZPTzPw0boNeng1HSQDqPHz8uJ2pwBqlktF8KqElDKGLxHlGWiN/85jeYMmWKDPY1y5cvxyuvvCJ7gjX2wJiGn9BYYg5w/GEtZrQWbi/+sBYzrMUMazETSks7GTIhAmBDz819lCeUfvasqFGFYSACzNk51fIhlxE6frY/9BJiX4WVswN6rMJl+mNFoOeMAhCBfgHKRQDWD5N2qDIvIgCfk+foXWrf0AN1d999t9doTDGNj6UL8he/+AX69euHf/zjH3JMrBMKmGkK3jvuuMNvH9poqAINqaBlupHTg2U0bGHFihVyyMWjjz4qhyhQD/UzzzyDf//733jppZdQU1MjL+CGhgYZLNPFGo/s2LEDDzzwgHzIkP7SEAkaekEzsdmDYYIeovv2t78tXx+dh1//+tcyD3E8QV8kAyfDOIL6vesQyURf1IPeuXNntcYwDMPEIyIOsGLilJQUGRSYzI7JT6Yx+ewW6jhkRLhaqJ6prkavL91RAGxzgx7TSZFlKdLv3dZa89bXJkupjlVdbrv0+jx4Nk3ACuXXWPu170ttpEidaQXS7lq55v0moreTx/GWeQ9o7VNsWzRgD7bto0L7MW5G5TgX3H+6TZZo9D5vfmI2cva4QSE6lWnkPkOY6ZzajQhVx47JT6Yx+ewWSS1UT9e98sorZZBKD36tW7cOP/3pT2XPL/mox5MepqOATkPjZ+mBsiVLlvjt325EIp4Xk59MYy+jIROXXnop/vznP+Nf//oXxo8fL3+hsdex29q1a+VYZxo6QWOzaTy0s44dp0+bxuSzW0vOy22XdZc9+U7r3X8SKKeFc1ttGpPPbvo49IWra9euAX6iLd4jk7XkvJjMjslPpjH57BauFm0mv8bp06Yx+ewWrhaTj8yOyU+mMfnsxlrMxlrMxlrM1hotUZ+Yo0ePHvIhpUgQdKIFe4J8vbzmXF8Se5XQ/g+ji/A70uJIqB+ATKA/Al3EIo1BHDXbKpY4k+N797XPlvzfNxHAW1PrMeQFsQ+IepMMGQuObcei/k/ZJhUIte0xbLcl9ffT4l1+C9faJw8Ig0i+R60l0u2FeoDPPvts+fMLBWsU1JmgHLrUY0y9mvQTDQ1joIfTaJt4IBHfo2hMtBCP5yUzM1OO56ZfAGIFtxcziXheogFrMcNazCSLllQas0HQeApaDmaEqVyb/pnX5LMbjQ8xlWsjwtVC9Ux1ZYJ8Wec3eGpSM9bk3oJPKS8p5fekOrTseRN/0lq+EPWFz7kfQu6f6je5Mb/7GjRPqsdTv/Wv490vmXdf/8WJZiv5Pw13GFBdgvwHxOsn9xeqHmqwRvVK0Yd/dxpuIfdlbXviv5/ip4/eIreloJe28G5buwbd576EAfNfwdofO7X8FGtvHYCXivOx9FPKxyr2JfyxeI+CWSy00ENk1LtJOXQLCgrkT/9UbtJCY19pdrW8vDzZCzp69GiZlcFex2lEIp6XYBZpLfQgH32xCFbHVK4tkc8L/TW9boLbS6AR7bm9BDOCtQQawVoCjWAtgUYE05JKGxOUzJiWTWbH5CfTmHx2C3UcMiJcLVTPVFdz/3NTAUqmT+UUTQqaxfKMb+UAh1/3bWt5jPuRdbzb3oJcEbRmT9mO+5VfQ/v135fa6ML1crhDydUPSL9Vquv5tpPH8ZbpbTfg9oHVcltCVBHYjrE8HyVuIO9nG/zGPGZtuB05FIAvp31b+6LjaPTrC2amc2o3IlQdOyY/mcbks1sktdBDa+Xl5XKMsKmOvUwb9Q6///77cjlZz4vJT6Yx+ewWrhZtJr/G6dOmMfnsFq4Wk4/MjslPpjH57KaP88477+C9994L8BPR1hLMiHjTos3k1zh92jQmn93C1WLykdkx+ck0Jp/dWIvZWIvZWIvZWqPFf/BGMtFvsnzYTCbT96MQY0Q8XL3Z/yGgsJlVDneTlXd0ZukShM7xn4aRkwdiz/2TfFkfwiYNeVNyUF1syxhhoCx/o8zFOlXPDCCWC3JEEO2XLophmFhBDx1SVhGGYRgmfknegBi1KHekUSOu3kG5SUWwubgRu3fvtp4ul7NN2ZPmh6IM+cXULTsbV14wFHPnjwD2/Cto0Nq07X7fGN8W0uQuCSNpf5G317pYrjfBfZIgmmEYhmEYhvGRnAHxrXno3XuUzO/rZUU+MjPz8apYrKmwUqTRRAIyVZow71SxJtS23iCT1tMzMWHsCDljVb9r6Jl0xaxclR9YBM6Z6cie6B/RFg1XU8BSPZWD2AuVyeNY2/pPCgDcPtLl29Ye7Iv17t1HYM6qSejXvZ8jiBYBs/M4DMMwDMMwjJck7iFuKaeh9/f9c5LW19fD4/GgcYcej8AwDNMyKFMJPfnMMAzDxC/tLiD29tA6KMvvhT491eQayqj31+VyBcxgxzAMEy40uxJlOGEYhmHilw5nnnnmPfrDOpyExqZyu52sDk2N++GHHxp9ZC3RMmTIEFmPxgIHq2Mq1xZJLaZyu52sDmsxG7cXsyWiFpqggt4Dmi3QVI8wldvtZHXi8bzQl2tKGUQP1tn93F7M/vbeXkw+MtZi9rMWs5+1mP2htER9Yo6ePXvi0KFDaq11BJ2YI0wiqaW1sBYz3F7MJKKWaEy0EI/nhebWp2D43XffVZ7ow+3FTCKel2jAWsywFjPJoiWla9euzZ06dZI9GJSs2ARFzqeddppMXEy52kzQzF/00yDlbQ0F3RzeeusttRZIS7TceOONsoymjrUTCy3xdF5Yiw9uL/GjZdCgQZg+fTqmTZumPBbcdlmLHW4vZliLGdZihrWYCaXF6n9mGIaJEPfdd5/M4KKhmf7mzp2r1hiGYRgm/uCAmGGYiHLWWWepJYZhGIZJDDggZhiGaUPS0tLQuXNntcYwDMPEIxwQMwzDtCH0kMfZZ5+t1piWQOeOYRgmGnBAzDCMhJ7qf/zxx/Hoo49Kq6iowJ/+9CfvejBbtmyZ3/rw4cPxq1/9yrteWFgoxxEvWrQIl112mSxzPijFME4oLVKfPn2wZs0aXHXVVarUn5tuukkawzBMa+GAmGEYyejRo/HCCy9g/vz50u655x4ZxOr1YHb//ff7rb/yyit46KGHvOsbNmzA9u3bsWrVKuzZs0eWPfvss+qoFtMf24sjR46oWSKr4D83ZCHW13hQ/3SxWrco3eE/syTZhkdWos5RZu2vEJV1jdhaojbWLKtC4xGqU4fKGaps2jrs27dBbKGgOmI/dbt2yX3T7JU0i6Xef12lqDmjUvhs+yAKSEsV7qTlhZVKh42SrfDUrA84jrZ9jzvSjclj+PzyuEvcflp8Jo5F9esqfftPMJqbm7Fz507ZliZOnCi/oAULjBmGYVoLB8QMw0goIKbe29dff11aTU0NamtrvevBrK6uzm/9+PHjOHDggHedckK+9957MhUO+XS5l9LtmDtABMrdu1uzRFaIWNI+XfqMMRgIoSVjiCNQBmoq/GeXnLCZSpvgvttXVl6bLfaXjfxiN1xXrYMvZhVB8jgX3PNEvburkTOnEoEZb0tRNQUoF/vJ/MPbYr0J2+a55CyWev+Z+WVW1SB8LF7/0c++UGtBoGB4itDi1V0Oz8gF2PvYdJ9/cQ6qvf55qM5ZiJo+FV4t5bVCnXue8uciWebXfOaZZ2Q+4pUrV8rAuLy8HN/61reUl2EYJjKkDBo0qJnyu33xxRfyG7kJPaMH5YcLVYdmAAmWZ05zxhln4IMPPlBrgbREy+TJk2UZ9RzYiYWWeDovrMWHXQu3Fx9OLQMHDpTDGG655RZV48tr+e1vf4uHH35Y9hQT1KuXnZ2Np556ClOnTsWdd8o+Uy8B5+WeDdid8xIGT1gg/dc99CymYTX+kHIDftK8Cpff+Igsn79hNy6uHowJ98hVyRk/WY2/zcrGqyWXY3q5KqT9jT6C+y6fjr6P70ZO9SWYMD/wOHJ/ey7BD/atxNZpwKrLbwTksdUxC1bi2dkX4rWSb2Dmo47zonz241pauuLJwROwgI51NVBJy5YbHRduwK4r3hW63Bj57O248LX7vK+NSFmwAS9+T2xzyURg/Yv45rv+fhRch/lIwa8erZBaSL9fHdIkXsIq8bofT8C2O2DAABQUFOCuu+5SHouvf/3ryM/Pl3lL6YvW/v37sXbtWuW1+DJaTHUT+Zo2wVpYi4a1BB6HJ+bgxNYBJKsWbi8+nFrmzJmD999/Xw5r0HxZLX/4wx/kuGKaIpv44Q9/iIsuuggbN24MPdHCb5/CkSnZ1M2JeZn5sPpdaahDAd7KzsMdMzfglVtPoET5aMjEsF3pyJ0lK0rO/eXf8fTsr6H67kzkr7DKqF4BypE+vAidbvmL2Eez2Mc/MaZuNlDsq0csFXWnZqkVAfW4enuAaQjC4jykWWteqJc6d6/ZJ7wop95a2QMsXpuTpm3itb6JgsYC8U3N/7Wkpi7Fc0fG4/DcjXAtmhrgJ+zvEb3O8YdPplfpUWuaeGy7NDHH73//e3lMO3RjJKPsHZTij9rt0aNHlddC1wmmVUN66Vj0Swh9WXOSyNe0CdbCWjSsJVBLcg6ZoHF1jvGG8idH73i6UlQ1NsobtnfMnf0nWieOsXvSxL6sn1enY8M+PfbR319RWRcw3lD7/ukY/2hpscYYmsZG6p9OyVe1TC56oTI53pDGPh7Z5z+OUWp3jF2UYxUd4x1lmV2LWLaPP1TnwHlsJjmg4RLUgxsJioqKsG/fPrUGbN26FUuWLFFrISgaYf3cLy7d2brNzhiDnIaduJ2WVz2FauRgjL3dGklD3mLftVOQJYJAEQxLVk3CXxtGomBHAfIaNvoFw3QdTcUa9F6wHU0UlKthCXKsrpfAIRO+INV/qMbgkp2ixA4Foz5/73W1qvxk1MDjv6Pwka9DaBk8WB5zntvlPxwlzqExxMOGDfMzGttO7YvGodMvESUlJQF1cnNzkZeXF1DutKuvvlr+7d+/vzoiwzDtlXYyhpjGATp6Z8SN4j51k0ivqFGFobDf7ObBjTxMtd1XfGP3lGXmY0p+Jlwuunkuglvc0LzjHYXvVdqottxb37ph2XpubL70u93AZUVYr4YT+iEC2QJbj1Y4lA7NRk2tBzljnY/bWDdsS4v1GmerYKBwbI7QVAPX0MS5mZqgbAc0PCAY3/ve9zBkyBC11j6g10s9bPTTcySgccJkGvr5yr5+UlZsQXWTC+eJwLf0+jykZRWoL5ZzkZeWZmi3TvwDU+d42ttHrgGyXHA/bCuV11EN1lx2qyogypCfWQ5PXoH/F8oWcmbfvujRqaNaM2EFvK4+jtdVOhRZ8OCtB5fjQIPBL76k1njccHz1D0nZ5mo0ZZyXkA/a0dAbGu40YcIE+SsE/dJg/+LFMAzTGtpFQFy6owBwux29NQmECBD2HOuCjAvVuhfrgR83RdthU4xh4sa/c/jOk9zoy7CluglpPeiLRCHGiHi4+uFyVGeMx7oEzpj1zjvvoLi4WI5zNQXGFDC3NyLZO/ylKN2O+r3rfA+0Ua9wmgcHVpSKtmoFt9YXy97Wl8NWBqiYfh5ctfbeYXq4Llt8qS2HPRy2KEKu8yG/FpJ6yinokKJWjIjAe1MN0vJm2361KcV28SX+2HOPSk1Fu5x+oXlOHrCtAnNUSTjQF9u0hgNqOEpioANheqCOHqyjQNgtPs8ZhmEiSfIHxNTzg3LkyqfPFTPEDVEtho/9Z9iFyKmehxG2Dqa0vIXen2ilhXMDzSrw1pfDFOxDFOzQU/ZdjqFBdiv7kIF+RS62qHUL/5+LG51jCEuGwCVu/EXi387abAwLOgSCguA0NB2uUT9bUwBBQTIwcIypqzoxoLRi3/72t/HSSy95A2N6eKc9E/OAuGgEFr08EAt02jWZTYHG3Q5DdlM1ttiGNVi9x6HabShKsbW+Hp6FA8WXO9/FW1g5G3lwoyRYtohZ5XBnFKBqAq2kYeRCxzCoYNdtS5iVa2W68F67BXBtm4/+P1zp81d4Aj6DsifaT46BtDwsFPX1MKiFOdWYp4ePJAA09EEHwpRpgjJOMAzDtAVJHhCrlEmmG0DDAdie1w4D/yETNLbQnic0YMhEODcd55AJ74NEAluwTEEtnivFRHVvlOhA3/GQTcDPxXf794wXX+pC9WbrKNTrlO03BCIbBd6b50JvkEC9Sp5d1uuhn1wxYLQtdVViQsn+dWD8m9/8BosXLw45lCJZGTp0KN59912ZOi2WrPxhf3TXadfS1YNuFATarwkJDWOwxu0WDQ98yAzl05Gptw+gCKN694bLle3nL8vP9D/Oqkno12+C7bjqmGPyxb5tvdX6GqNtV5DPcVypJReLPv8cX9w1XtR1PMw2exRc2RN9x5H7UPsU1u+a5cqhoPNh8zvTvdH58Cuz7U+PIQ48n/ENDeMJFQjTA7LOh2QZhmG+DEkdEOseVGdoKsfDUs/nl0YNJxA31jbDPoZYmLenSBIi0A/F9PUY16+Lr5eJxlVnDbP9/GwfQ6xvnqUoyEtD9hRfcN6ly0BcmaCdxDRTmp7diuzMM8/EE088IafWpVnZKL8pZUWw19E2ZcoUY7k2unFTJgtaptnaEoFRo0bJh96YtoOCusOHD6s1piU0NDSoJYZhmLYlpVevXuakb20EzU1PifojAQUgxOrVq+VfLyVbUT8pC9i3Fr2vUCPspq3D3ttEKNn/KYzeKwLJ+/vj1r8qLVT/0ud9dZ3QtvMHYs+C/pgks1JNx7q9czHw5UUiUIVt2R602rHqZ/y9N0bNtkqKn67HZPj02c+L02dH+vqJeHmdb180y1eRCFz7bxnt0CmQ2jOwqfco7BP15mZs8tsv7W9cg9B+8FpxzoC1ot599veIzs1VDVjUfxL0q6PjOffTVkS6vVCgumPHDlXig74E0NTFXbt2xZ///Ge88cYbyuOjS5cuOHbsmFoLTkZGhux5veaaa1RJ5InUefnLX/4icw+/+eabqqTlhKuFzi+9BzNnBk5/ESki2V5aC2sxE4/tpaqqSg7PiCXcXsywFjOsxUxrtKSIm3cz5XajRMXB8r8RVIfytgVLmkx55ChpMuV3C4UIwPH22zTjk5mWaNH5TGlqTzuppdtw6FpgjWukla6JmL4eNSKA3N8wEpcEycpQs9aFPNtTNV4t0/4fahaO9B+L27QN92RPxOpTbsajr8zFyIAEpJSeKRs/WEXnZaask/E33/7v2+bxy3eqIQ27hggf1sA10qveq+V3zx4K8M1YX4PbcD8uenIMXpk/AHvEcb3DK+h1L8zAX10VOK/mHrj+0Rsjb7G9R0vc8HynAff8LQP3TKZzlocS23tEOr/rucdvrOIplA9WBNl/tZ9fB4nSXqjXl/KPvvzyy3jkkUcwa9Ys6aexxk7C1UJBNc2mRUMynMTTeaEAgHqzr7/+elXiT6S10JcO6kGnXMRO4um8sBYz0dYSzfby/PPPG7PLxON5YS3+sBYzrMVMKC3tbmIOyjWqk/nbtRRW1qHgYKbfmERObG0mGdoLBcHXXXcdqqur5RPsNJUwaaGJKegBHrpBOmmJFgqoKb8pXXiaeDsvNAMYZd2gyQ9MRFoLTbQQcmKOJG27NIEEHfOjjz5SHotYaAlGPGqJZnuh5yYoAHfC75EZ1mKGtZhJFC3tJA9xOJyG3t9X42SV0ZPklP80rIwRTEJw6aWX4h//+AcuvvhiOTvbz3/+c9k7HGmOHDkiHxKLZ77xjW/ENrtEO4F+wqMx6gzDMEz80u4CYuOT6YKy/F7o09P3EBsZPUlOT5SHlTGCSQjOOeccbyC8Z88eVeqDpheOBBQQ01jieOXrX/+6/LJ34MABVcIwDMMw7RfuIWbaFRTwmgJhDT1kZhou0VLo6fh47iGm7BKc05VhGIZhLDggZpg2IN6HTNBkHE8//bRaY9oSeuKZpsZmGIZh4hcOiBmmDaAe4ngdMkHZJehhuoMHD6oSpi1pamoKeKCOYRiGiS9S6ek+IiUlRT7pZzI7Jj+ZxuSzW6jjkBHhaqF6proaZ7nTIqnF5CfTmHx2Yy1mi6QWqmeqq3GWO60lWmj2NwqInX6NvdxuGpPPbi3R4jTnVM2mOmQak89u4WrRZvJrnD5tGpPPbuFqMfnI7Jj8ZBqTz26sxWzhatFm8mucPm0ak89uev/B6hKh9Nox+ck0Jp/dQh2HjGAtgUawlkAjWEugEcHqRH1ijh49ekRs1qagE3OESSS1tBbWYiZR2wulXKO0bpTXuC1ozXnZtGmTTGdFWVQiQbhaojHRQrK23daSiFqi2V7iYWIObi9mWIsZ1mKmNVpSunXr1kz53ygnmz1nqhOdIy4YFF1TjrhQdYg+ffqE/Km2JVp0wnbKG2snFlqCwVrMJHt7yczMxG9/+1t8//vfV16LWJ8XuulTPuYf//jHUdei88rqfNB2Yn1e7ERaC7WFDz/8UGb1sBMLLcGIRy3RbC+UN5xSMjqJx/PCWvxhLWZYi5lQWlJ1EmSaHYSWTWbH5CfTmHx2C3UcMiJcLVTPVFfjLHdaJLWY/GQak89urMVskdRC9Ux1Nc5yp7VECwU/9FCd06+xl9tNY/LZrSVa7EbZJZ588knp1zjraNOYfHYLV4s2k1/j9GnTmHx2C1eLyUdmx+Qn05h8dtPHoYTy9GHu9BPR1hLMiHjTos3k1zh92jQmn930/oPVJULptWPyk2lMPruFOg4ZwVoCjWAtgUawlkAjgtXxH7zBMExEOH78uJxmsnPnzqokPnCOH44LbtqAvXvXQf8wTrNG0sQ4VcvkGirrGuUXDBri0dhYBe80OTMqUddYh8oZap0oWCnKRJ1lVX6T7Girr9+K+1RVyDqO7Uu3o/7pYrVizWzZ2HgIB2378GkhjaTPsQ8v10nf0klqlWEYholbOCBmmDYi3jJNjBgxQk7EEamxw22CCHJn51RjXjpNoEPB5kLkNZTLCXJoopx5bhcK7EFxMGbleifYKa8Fmtzz1GQ7o3C7qlI6NBs1tR7kjC1UJQ5EwFyAcrFdT/RR+0qvqBE724ZFQgutmyb5cdJ84vOQPxUyDMMwsYcDYoZpI+ItF3Fc9g47KL0+D55N+SijlWUFyEurQbltpsiy/BK4m7IxvjJIEBs2pRiWVYOdw3fCk1dgCLBnonKcC+6HWz9L5cfv7o+bB04YhmEYMxwQM0wbEW/TN8d1QNxlBBaI8zVsl6/XtbCPC2jyoMZaVZRhS3UT0npkq/U05C32DWfYPXuYKAmDZcPgcpejSPzbWZuNYXJ4hqLfZPHe3Q4UZyJ/hSoLib8GayiFcjEMwzAJAQfEDNNGxNP0zSNHjsQbb7yBt99+W5XEGce2Y373NcCUlgaTTXDfrYYzCBtcslOUnJzSoS5Ub5b90CjaVYPsobY+4n1r0X1uNXIWBxsb7MRfQ/rdbrimVGG+8jIMwzDxTyo9AS0XUlPl09Amo4eDCPpr8pPR9oTJZzdKiGwq10aEq4XqmerGQovJT8ZazHVioYXqmeq2lRbqKaSxr3o9luflyiuvlFM16/VYaNHvgdPfITXFqtNhNvLWiuBUBJNLRfnKeg+Q5sLXxLJPyyx8KycNTZ596Ki2S0n17StF/JNlat0qk5XkMpF603qMz7L16k7JBrKGyWNqLR1W/QD3bwPy5jyBWbZ9dbTcEqssVe7frqHjqiexp8mFXgWWmo6du+LMM8/0+ZURpvOhLZbtxWlx1V7aQEswTUS8nReTj4y1mP2sxexnLYG+VMrrRpAQWjYZVSTor8lPpl+QyWe3UMchI8LVQvVMdWOhxeQnYy3mOrHQQvVMddtKy9GjR2VArNdjeV4o3dq2bdu867HQQseiDyKnXwe24ts5TpmzDtuPZWP84zd7l6duX+LVcvPjt2NkWi3+du1qnNKBAk7xr4NvXx3EZyaViQ82bxntPiXV0kjMHJuDtH1r5UN62tbus46pA17Suvrav6E2bSSmLvXt6xS5M6uSVdZBfgDbNZwycwxy0hrwzqPWrEmndemJrl27+vzKiFDnLhbvkclHFgstdCxje2kDLcHqEqH0xuK8mHxkrMXsZy1mP2sJ9KWID+rmTp064fPPP5fJik3Qh5JOmky52kzoF/Lxxx+rEjPnnnsu3nrrLbUWSEu06ITtDz74oPyriYWWeDovrMVHLNsLTSxw66234n/+53/keqzOS15entTw05/+VHljo0VPtDBt2jTlsUidWYn9c1JR0jcfD5AWSqe2OAfVd1tjeCn1WUGWqowalKfnQj7q5qhHnPvLv+Pp2Wdho64joO3HH56HzPwyoeVWPPrKXGRscmSIoBRs4zyYv8mFBcNeQPfcW6zzQuVT4DumrNeARRddiyXyvKhMGI6ByzUV6ZhUfBeWPv1TdH74O/jx6uMBw1US9TqKeXtpAy27d+/G4MGDVakPfo/MsBYzrMVMomix+qAZhok48fJQXdxnl3hwAvr3n4TlahUr8pGZ7gtyi4ane9OupdsCXWc9Sfl0UWarI6DtKRi2WImJ2a7AdGmUpi0zH8uLRqD3FXNUoUCmb7PtT6y7sieKvWjKkJ9pGz+szNr/I8KXiVvWyYoMwzBMHMMBMcO0EfHyUF0ipFtLZg4dOiSHzzAMwzDxCwfEDNNG0M8yNGMdjR+NFZdffjlqa2tlUMbEhqamJnz00UdqjWEYholHEn4MMZnzZi8fchEWTKtG7ycYdCya85rMhD5OOHVYiz+x0EI/u69atSqqY87XrVuH+fPn47XXXvNru9G6ju6++27U1NSgoqJCeSxioSWaY0KDkaifde1RC48h9oe1mGEtZliLmVBaEjogJi3nnHOO8vjQTxB+8sknqsRMr169QuZl/cpXviK1BJt2lbSceuqp+Oyzz4KeF9YSX1reeecd5fHRlm132bJleOyxx+B2uwParolIa6GhEj/84Q8DZkqLhRYOiP1hLWZi0V44IPaHtZhhLWaSRUvCB8QmWAtr0cRay7x58/Dyyy9jw4YNUdeSm5uLa6+91ptdw04szkt7DYj79u2LDz/8MOBLSby3XTvJ3l44IPaHtZhhLWaSRQuPIWaYNoQerItVpgnKPbx161a1xsQK+hCnX0QYhmGY+CVFfAtvpsibfnIONQ6TIniK3EPVoQ/9YN8ANGeccQY++OADtRYIazHDWszEu5arrroK/fr1k0Mnoq2Fxg3PnDkT7777rir1EYvzMmDAAEydOhV33nmn8ljEQkuo40RaCz1USUN2nLrive3aiYWWaLaXTZs2Ydy4carUB79HZliLGdZiJlG08JAJ1hIAazHzZbRQlocf/OAHmDVrVlS1jB07Ft///vcDfm7WxOK88JAJHjJBxGN74SET/rAWM6zFTLJo4SETDNOGxCoX8Te+8Q0eLhEn7N+/PyAYZhiGYeILDogZpg2h2epiERBfccUVHBAzDMMwTJhwQMwwbUhjYyPS0tLkzz3Rgh6m27t3rwzGGYZhGIY5ORwQM0wbE+1MEzRV89NPP63WmFhDX4g6d+6s1hiGYZh4hANihmljojlsgp7EpYD4mWeeUSVMrOnZsyfOPvtstcYwDMPEIxwQM0wbQwFxtHqIKRiurq42plpjGIZhGMZMSq9evcxJ39oI6i05dOiQWostrMUMazHzZbXcfvvtcvrpdevWqZLWE0zL/PnzsWfPHjkzXrQI97xccskluOGGG2RuZDvFT9djXMMi9P/hSlUimLYOe+dnYFPvUZgjl0egi3Ide85Xl7ad3E8uKo5j+4IlwG1zkfH33hg1WxUTJVtRf1UDdjeMwGC/bYDa/2yHKxMo7T8JXhV2DaqoJejzkpmZKfNi0tCZWJGI11Gw9hJJtJaqqio5s2MsScT3KBqwFjOsxUxrtKRkZGQ0U243SlQcLP8bQXUob1uwpMmUR46SJlN+t1CIAFwGB8FgLWZYi5lE0HL99dfLcaRLly5tUy20LQ2VyM/Px7Fjx+LuvFCeV5pGmnLL+nMftnmGYVePPNymtNy3zYOhz7uQBzc8k13YNv8CXPt70nID1tfcg4F77kH2xBW+erfSVjPw132z8WlxP0zEetSIYPj+7IlYIfc4Q2x3G1KWXIQDU+sxZJfeRjHdV3+1PC/T8OfX52NkWg3WuPJwu6pGtPS8dOnSRdZ15s8M1l7sRPs9Soz2Enktzz//PIYMGaJKfcTjeWEt/rAWM6zFTCgtqSSAICctm0xvSDsx+cl0HZPPbvRiTeXaCNYSaARrCTQi3rVQDtr09PQ210KTgNAEAx6PR+7DpEVbW2uxG0H7omOZNJ04cSsefc6FcX+ebpVN+zO+m+FG+c3/RcmQbDS5SzDxQa1lGa4unoeN/7D2Iz86m/W+Tsj15hNiuexqbGwYiSn3K9/9UzCyYSMmrRJ+WUlvo+yELBTbWseZ/udbMbDajRpZ1b9uS8/Le++9h+PHjwf4CdP50KaP016vo+DtJfJagmkiTBq0tYWWYEawlkAjWEugEawl0IhgWngMMcO0MdF6qI7GDz/11FNqLbFY+cNN8IycilKxXHp9Hjyb8lEm1oZlAZ6DZVYlzYoyFAk7GUUPu+EaV4lC8a9ynAvuh4uU5yRMW4fbB1ajJP+AKmAYhmGSHQ6IGaaNicZDdfRTEuUfTtSAGJiDNdtcGL+jCuOpd3gWldXA0ySdX44V+djYkIeCHQXIa9iIfGvsxEmYiXW3DUT17yaIgJxhGIZpL3BAzDBtTDSmb6be4RdffFH+PJ+oLL/mPlRnZKveYaIMBxoAV59CueZlRiXqGqtkb/LJKBpeDmSF3zuc/fjtGPhyKSY8qAoiQN++fdGjRw+1xjAMw8QjHBAzTBvz4YcfynFNZ5xxhiqJPIk8XMJHNkToqnqHLYp21SAtbzbWe5+rKkTlnDzAfRxYpopCMeM8uGrD7B1Oy8PUgdUotWe7iAD0EAf14DMMwzDxCwfEDBMF2nIcMU0LndgB8Uys21svztFUwNs7rJiVi/QKD0Yu9KC+vh6NjQuRUz0PmflP4LxxjSjIqsFOWwDtoxRVjY1oXJyD6nDHDqMJ7t9N8KVdYxiGYdoNqZTKgqAZrmjZZHZMfjKNyWe3UMchI1hLoBGsJdCIRNDiDIhNdcg0Jp/d7Mf55je/KdNGNTU1ecuIeDsv2gL9yzGpf295fkYU+fukFY2Ay+VC795WnX4TVojyFZjQr7tYH4HbvHVX4KZvfAMTVtLybRgh6nbv3k+tW0bMzusReJyVE9CP6tqGSlj7sO/fMo29zGT6tdLTy/RUs9NPhDp3dkx+Mo3JZ7dQxyEj4k2LNpNf4/Rp05h8dtP7D1aXCKXXjslPpjH57BbqOGQEawk0grUEGsFaAo0IVifqE3PQWDpKQxUPsBYzrMVMa7TQhBk7d+7E3//+d1XSOuxaFi1aJAPiJ554Qq5Hm3DPSzQmWuC2ayYRtUSzvcTDxBzcXsywFjOsxUxrtKR069at+bTTTpO9GJQDLhhU59NPP1VrgVB0TWPlQtUh+vTpg4MHD6q1QFiLGdZiJlG03HLLLTIXbUVFRUS1UF23241vf/vbeP/995U3Ps/LoEGD5CQLNNmCk3h4jzSsxUy0tUSzvbzwwgu49NJLVamPeDwvrMUf1mKGtZgJpSVVJzumh35o2WR2TH4yjclnt1DHISNYS6ARrCXQiETQQpNl2IdMmOqQaUw+u+njXHHFFfj3v/8ts0vY/US8nRdtJr/G6dOmMfnsFq4Wk4/MjslPpjH57MZazBauFm0mv8bp06Yx+eym9x+sLhFKrx2Tn0xj8tkt1HHICNYSaARrCTSCtQQaEayO/+ANhmHahLZ6qC45skskNzRtd+fOndUawzAME49wQMwwUYByEUd6co5TTz2VA+IEoGfPnjj77LPVGsMwDBOPcEDMMFGgLXqIKRimh4EouwTDMAzDMF8eDogZJgq0VUDMvcMMwzAM03o4IGaYKEBPtVIWiPT0dFXSOni4ROJw6NAhHD16VK0xDMMw8UiHM8888x49rWg4CY1N5XY7WZ0uXbrIqWxNPjLWYvazFrM/kbRQarTdu3fj3XffNfrtRpjKtY0bN06mjfnrX/9q9MfjeTnnnHMwZMgQ/O1vfzPWI0zldjtZnXhsL59//rl8r5z+RGq72ghTud1OVice2wuld1u9enWAn98js5+1mP2sxexPFC1Rn5iDHjChHpN4gLWYYS1mWqvld7/7HSorK7Ft2zZV8uVZsmQJ/vWvf8mAONaEe15oooU5c+aguLhYlUQe6oFvbGxUa7GFtZgJV8vXvvY1fO9738PkyZNVSeTRbTceJubgz10zrMUMazHTGi0pXbt2be7UqZPsxaCfdU1Q5KyTJlOuNhMdO3aUSZM//vhjVWLm3HPPxVtvvaXWAmEtZliLmUTSMnfuXOzfvx+PPvpoq7R85StfkbmHR44cKSf7MBGP54UmWvjFL34hcybboW/q9K2delEpP6QJ0ksW7PVoTj/9dNk7EAx6TfR6g71m1hI/Ws466yw8/vjjKC8vVx4LOkak2y79cjN48GBV6oM/68ywFjOsxUyiaOGAmLUEwFrMtFbLTTfdJMf+PvDAA63S8p3vfAfXXHMNpk2bpkoC4ffITCy09O3bVwaAzulE+T0yEwstHBD7w1rMsBYzyaLFGpDBMEybE6lMEzrdGpMY0Ie4HrfGMAzDxCccEDNMlKDJOVobENO3WwqIn3vuOVXCMAzDMExr4YCYYaIE9RB369ZNrX05KBh++umn8dFHH6kSJt6hn+do7C3DMAwTv3BAzDBRIhJDJjj3cOJBD1I6xw8zDMMw8QUHxAwTJWhyhs6dO8sH674M9HQ+BcRbt25VJQzDMAzDRAIOiBkmitCkHF+2l3jUqFGydzhUyiqGYRiGYVpOyqBBg5opnUWo/JJ6Rg9KhxGqDj1JHSythuaMM87ABx98oNYCYS1mWIuZRNNCk1L88Y9/xMsvv6xK/Qml5e6775YP01FQnKjnZcqUKarUBx2HjPwn00v7CYVO3RMMej0ne82R1kKvn/blrB8LLcGIVy179uyRZkcfJ5Jtd9OmTXL2RyeRvo4GDhwozUSivkcmWEvktFRUVMi/TpLt3hgPWjgPMWsJgLWYiYQWmq3un//8J/7xj3+oUn+CaaGL/Nlnn5WTcdADdYl4XmhiDvpCsG7dOuVhmOD06dMHF1xwASZOnKhKLNqi7UYrD/H69evx2muv4eDBg8rLMMGZNGmSnN3z+eefVyU+ku3eGA9aOCBmLQGwFjOR0HLHHXegvr4ejzzyiCr1J5gWmsL28ssvx89+9jO5nojnhQLi6dOnh5xQhGE0Q4YMMbaXtmi70QqIV61ahZUrVxoDHIZxEqq9JNu9MR608BhihokiXzbThB4/nEx8/etfP6kxTDJjavN2YxgmenBAzDBR5Ms8VHfmmWfK3uFkC4hpTNjNt91lttvvkn6GSWbGf//H5vYvjHwMw0QPDogZJopQD3FGRoZaCw+de/iTTz5RJcmBfqhhxLABuGzoRfKvNnIFe7iCYZIFauGX5mR7272+DqiMWz/DRBcOiBkminyZHuJknYyDAt4vTpzAZ599Lsd00d/PPvtM/qVxZBwQM8kOtfHPZNu32r33Ovj8M27/DBNlEv6huptuukl5fFAdSs9B+wnFWWedhffff1+tBUKvh9JzBHvN9JMuvW7SGuzDi7XEl5YHH3xQeXxEs+3S66EUT7m5uarUH6eWLl26yGB4xIgRss1rEvEhBudDdZdeeilumnUn7vvNPOzatUuWEUOHDsXtdy7Eg0vvxQsvvKBKmfZGe3io7p5fl+FrmRkYP+4qua7Z+Ne/4/U3G3DPnYWqhGmP8EN1PqKhJaVXr15R/Rras2dPHDp0SK21jhtuuEHePCk3K8OcjMsuu0wGXqtXr1YlLSNSbXfLli2YMGECjh8/rkqCM378eAwfPhx33XWXKrGI5HXUWsLVcskll+DHP/6xvG6JQYMG48abf44L+/UWa/Qx5Bsz/Oq+ejz0wG/xn//sViVxyoxK1M0BSjLzUYZSVDUWILvJjXlynWkNFBDPnDkThYVtFxTqtltVVRX0S2okKSsrw/Lly70BzrxfLZNDJE49paNc19fBZ5//F9t3voyFd82yiuOGQlTWLURemlq10eSeh8x8bvWRhO5V//d//4cXX3xRlfhIxHtANGiNlpSMjIxmirpD9bIRVIci6tb2+IkAHG+//bZaC6QlWqjngOqZev0Yxgn9mkDt9KGHHlIlFtFuu2vWrMEvfvEL7N+/X5X6cGq5//77Zc7izZs3y3VNJK+jaF3T1ANH16wOiAcOzMFPZ/wMmX0Ch5DU1R/B75f/Dnv2VKuSOGVZFer6lMtAoHRHI8Yf5qAgUlBATNes6VfASLddClDpeE4ifR3RvYpMB8R3LVqCSwb0wykdO8h1zef//QIvvrwPv5p7qyqJF+hL3zDsTM9FkSqxguTZQHEm8leoIiYiUEBMvcSmX8oS8R4Q71pSSQBBTlo2md6QdmLyk+k6Jp/d6MWayrUR4WrRywwTLqa2Fe2229DQgK5du4asQ8unn3667B2mHmVnvUheRyY/mV1LKAtXCx3L/mFH6/ThVlN3CK/XveP39/PP/yv98U7p0Gx4DpahsLIOBbACYwn1HDc2otFrdaicIeqLoLlqmVVF1qmrFOGECCnE9t66O0otvww+qsT/FlSnrlLUFkF4445KEYRY9amM9iu3VftLFkxtqy3abrA2TNC+TD6ylmqxt3+CfG+81RDQ/uve8ni3iyuWDUN27U5bMExkw5XmwYEVFBhb7Vwi26loveG0V7/rRbd52p993bp+9LUUfBubBts1lohQewnWtoK1WW1EJNtuKEsWLUn1UF1RUREWFT8Y1BgmHgg3F7F+mI4euElGvvjiBFYv/x1WLS8O/FtWLP3xTSHOyxDhwJRGzEYJ0ofbwoT+LqTVliM9PV1YOWpAAUMphmXVYKf6FbxwbA5QvQVlImBY2GOjqpsuwuoCK2iecR5c3uCjEGNy0qzgu48LyBLbFov6FTVIy1uIYbvUcdJyMEYHA0zcs6Filbn9i7/kizeo7TUdrlFrCh0kzxiDHFRji+olpi+LNbuKwmiv4ovfYrHl3Vb7n+d2oUB+KaRA29qXRAS34zOa0KSuparFLmxU10x6BWzbkN/ahK5DeY2pVYYJRdJlmcgdMhATx10RYKee9hVVg2FiS0sD4mTl9ddfPanFNTIAcGOeuLF78gq8vViEDgYk3oBBBLhNHhEcW2T3oAAXqByXLQKGAtXT1YiCLMtPAXOat5zGbVIwbQXGNRXWz9MyQHHPQy4F2bR/GSxY2zPxj6nN2y2+oLYn4svN/uGlN0imL4ENB1TwSV8WRei69+TttfPY8XC5S7zDLco2V6Mp4zwUyuvGDXeTVV56fR48DR7xRXMnairHi9A3GwW6h3iKuIYIRw+2/gWHYcIhKdOufeUrp+K0006Rf7XB8VMVw8SKcHIRUzYKmqkqmQPihMfb+1SEcrcL42k4g0QHA2pNBQzeHmFZqnuLqUerBuW6p0sZBQzZPQC36jWjnjXIYNqqr3uZraBa3fBlr7Tz52yGiRSO3leJL0j2+xLo7S0+eXt91V5GqMAa8roRfwnqHUY5yg9b1xLtp6bC/5qhX2i8wbmErkPfsRnmZCRVQEz5Gz/55FNcd911+NGPfiT/kv3617/GiRMcEDPxAY0hPlkPse4dPtkDBEzssPc+leVvhCdnjLgFCygY8AYOvoDBHgyU7qBsFBTg1sDTlI1helwxjbeUYx4pYPYFH/JGL4dX2HvA/Idg+AUkTIvYu1d9e2GC4+h9tdBBsv1LYCEq5+RZvcVhtNeaw03IHuodJYyqKS64H65R1w0Ft+LL5hwRXnvLygK3UeOK7ddYYeVs5DXwF0QmfJIsIP4MH3/yCf77XxqY7bNPVaL/WON9kMBpcuwT014Ip4c42YdLJD7+vcAQt92dDXko2FKJusV5gLtc3Yh9vWryJj7FuublWEjZW1yG/GI3XKq8cZzHStlmHF5hjR/29oD51XHqYVpC//791RITDP/eV4U34C3DgYY05C2mdjwbIm71jh8+WXstyy+BO0MPDSoA5PAKe290mgiuN/qV+W8zHp67rSEZ9mtsdg8PmmjIUZI9aMq0HSndunVrpoTI9IQdPeEXDJ00ORiUEoPSWYSqQ/Tp0wcHDx5Ua4G0RAslbacnCnXateuuux7f+k4+MtK7ONOaYudL+zF3zo1qLRaYU9NQkEwPGMgxVUybQumbaKIOSnRuJ9ptl4ZD/PGPf8RVV/kn4ydICwXLjz/+OPLy8uT+TETyOgpGpM8LTcxx4403Bky0wDAmdNo1ajNOIt12Ka0VTRTjJNLXEaV8tKddY9oY+sVl6E7/B14TCEq5Rm3GlHYtEe8B8a4llZwEzQJCy8GMMJVrI6Enq0NGL8pUro0IVwvVs/PpZ5/hk08+wdGjx3D0fWH0V1nMe4gdT+Ba+L4lm9Mu+ZfLlEtEOOlmdMobic/XovROjpQ1FLxbKaOovj6+7ZgJgKltRbvtHjt2DC6Xy+gnLd/4xjfw7LPPypyLpjpkkbyOglmkz8upp54qv5AwTLgEa1uEqVxbS9sutUunj4yI5HVEx2OiR6IPI6J2SZ+bzjal25KpXBsRb/cAk08bYSrXFg0tqTrapoiZloMZYSrXpsc6mnx2o8DUVK6NCFcL1bNDY4j3H3gH/3m1LsA+/vhDVStG+D2Bq9BBcv8qLMypxjz5cMA8+VOQDDwpHZO3XD/JHl66Gf+ft5SPjtOS9E7Gh4AouKafqNTx765GzpzE+UnK1Lai3XZp6kkaNkHTMjv9pIUCYso97PTZLZLXUTCL9HmhIU30iw7DhEuwtkWYyrW1tO1Su3T6yIhIXkd0PCZ6FA1P7F9fqV3S56azTem2ZCrXRsTbPcDk00aYyrVFQ0uqvkDpxNOyyeyY/GQak89uoY5DRoSrherZqXz8z7j3ntlBLZYYv6nKILkzxoxzwV2sp3otw5bqJrj6VKDSr7wIuem5Yaab8T3II5G+4zivRemd/B9Q8I7/WlYg/HqsmLDFeTDM4hm3mNqWxlnutEi2XXqwrlu3bgF1aMIOmtHtySefDPDZLZJaTH4yjclnt3C1kDFMSzC1LTtOnzaNyWc3vf9gdYlQ7duOyU+moWW+BpiWEqz9hWqXZKG2JbNj8pNpTD67JYsW/v0mKpgfeLGC5Ff9enYJKxA9ElBOkO+k6Wb8nnLXvcUQ+2tJeif/J4J1b7FMheOe57ePdHoIyKrGhEmwXMSjRo3CM888E3KsFcMwDMMwkYUD4mgQcvxwYNqlggw3ymdRuQvnqfG5NH6XxvWa0834hjnQfmXKG/00Lw27yCPfEy1L72R/InhGJWbLfZSh7KAHaTq9FB2rzjYVLRM21ENsyjRBAfHTTz+t1hiGYRiGiQYcEEeDUOOHVzjSLk0BymWPqyjf5PEOTShAOTLzRakx3Yw1zMJKN0OZLGhKzDwspDpDd6K8FsJXgAMtSO+EFQfg0fuYI5PoWL3Fs3JR3qDKGxfCtYkzZHwZTD3E1Nt+8cUXyx5ihmEYhmGiR0rXrl2bO3XqJAcs00BjE/qpPRp0TOMsTNBTe/QUID0wFIpzzz0Xb731lloLpCVadDoenXaNCQb1JA/DzvRcNca4fUIpnAhne4lF2/3e974nxwrPnz9feYEf/OAHsmzRokVR1RKta/raa6/FXXfdhe3btytP5KHXFez1RButhbKF6DFrsSIez8vJOO+88+TfMWPGyL+atmi7u3fvlteek0hfR/SwLHHggJqBzUYivkfRoD1rGTFiBH71q1+hvLxclfhIxHtAvGvhgLg9QOnT5gAl7XysbzwFxMOHD0dBQQFmzpypvMCKFSuwYcMGbNu2LSk/gCgP8S9+8Qs5c6QdnVooVBYKCipJD+kNBaWz83g8ai0Qes10ToKN0W4LLRTYffTRR/JXATux0BKMeNSSlZWFa665BhMnTlQei7Zou9EKiNevXy9zjL/22mvK6yMR3yPW4k+ktejPS1Pe6kS8B8S7lpSMjIxmOgi9gcGE0JtIYmgHwd5EekH0RtKBQtGrVy+8/fbbai2QlmihBP9UjwNiJhwoIKZ2SonO7cSi7fbt2xeLFy+WvaYEZZygYJjGEJOeaGqJ1jVNAQd9iaUJdezE6+dLpLRQYPfBBx/g0KFDymMRj+9Re20vFHDQRCBOIn1eaFKgYBMtJOJ7xFr84fZiJlG0pJKToAPRsslIKEF/TX4y2p4w+ewW6jhkRLha9DEZJlxMbSsWbff999+XD9Vp35VXXinHDtNFT9i3M1kktZj8ZJE+L3Qsen1Ofyy0mHxkbaFFf/A6/US0tQQzIt600LGi1V6C1SVC6W2pFno9weqGOg4ZEUktoYy1mC3aWri9+CwaWnjIBNNuiKchE3Qd7dixA1dccYWcXZE0rVu3Dm63OyZaTET6vNCQCertc07dHK+fL6zFR7K3l2gNmaCpeKnXj38CZy3cXnzEixbOMsEwMUJnmqCe4gEDBmDr1q3KwzAMwzBMNOGAmGFihM5FTOOGn3rqKVXKMAzDMEy0SeghE5SeisZe7tmzR3lbBu0r2OuJNqzFTCS1DBw4EP/6179k6i87sfpZ6N5775WTcNCT9GvXrpXLyfwTVXsdMpGWliaPSZkm7MTje9Re2wsPmfCHtZiJthZuLz6ioSXhxxD36dNHprGxQwOmSQ/VCUV7TucSimTVkp+fj4MHD8bNGOLZs2fL8cOUaSIvL0/WiZUWE5HWEjTAmVmJ/XNSUdI3Hw9oLZQqcLELG2Xu7EI8UbcQI9Msl6TJbU0so1Y1lpbxqKyjCWpo0hpRKPeVh7TacvQe1QFP1U9GtlXdQu0re0cjhu3qjtE/950XmiFy/OF5yNw8xtqH2kRD05hbvhxUy0lylEMc883FvfFExecomOJ3NEUN1vYejVvFeSnZ5pGzUzpfT7x+7sa8vbSBllgHxNTORuwdjCE/8Z0Xb9vLF62CZhZ1tCOawt8+KZKfltLtAfUlTduw6KJrcf7WetHW/be3jrcZ1Tljkeds6ALZ1oUWqleQpQrRBLdu91qjuM66X3abV8uMDfvkbKlSL0SdoTuRPrzId17+Z21AWlB5DHVNbEzAttvW7YVIxGs63rUk5UN17e1NJFhL4rWX6667Tv7C8eabb3on6Ejm9yj8gJimBF8obso1KPcGxAU4eNFo3ExaQuTVtrTYA2Laly847tTpAREQX+qbpMa2r4CAWAUVzqD3+6sc50UG3EEC4vQhWHHBBTh+/Dh+vr7aF+AIrPPyG7g9Q0UQIb74PWzbXtDer+l2HRCr4FIHobT+xlfXIeuaB6QWqu8MaP20UNtVgacX2dZTsNQUEDuOJ8/LuKWiXesvpRY6UF100WQ8QOflfrfYzmUFxf3FPsa50JTmwV+7j8AdUstPsWHfAhlghx8QWxNJ6Wvilk2J13bbur0QiXhNx7sWHkPMMDGCHqq78MILefywg8LK2cipdnunE28VywqQ17DRL9AMjyWomgK43U1qvY1YMhTZtTuRu8uDvOtLVSHTvhEBYTTanpcwjycC6vFZTXAX52OlKpJT+dem2dpuNapFIHuuldAHuOlK5IgruaYlL2XZML4mmJjAATHDxAga5kFZJij/MKMQN93ZOdUoybdPbZuNDMNPuKERN+nFjYG9ZGGy5LmpQEUurIl2NdY+aQhPfX09GhsbUbVMufTxRJm0xXk4U3loQo6jR4+qNX/uG+KC+2Ghb9ZO1GQNE6EJ094p3VEQ0PYK+7jUUuQxHc9If5do5R4ccHy5LNolvrpmnIdCtX7gMJAz1pqBc+bYHBEj7xRbhU/pUP9rwje5PcO0LSmDBg1qpq5oujkHG+9J4zCpS5u6skPVoXGhwbrENWeccYactSkYLdEyefJkWVZRUSH/amKhJZ7OC2vxYdcSb+3lRz/6EaZMmYJvf/vbqkbstJiItBZKLTd16lTceeedymORUvAQnrkRWP2NbRjxzA3AQ5djevl8bNh9MV4aPAELxC1xw7O98JfRM/FH0lKwEs+K+qsun45H1D40lpZrsPLZaXI/70zYjXxUYvCEBdLfseM9eGxXjtqvwLavzA27cfGeS/ADrMfzOS9h8DULcN1Dz2IaVuHyZ0fi2dkX4tWSy3HTGsd5oX0o3/Ryq4jK3LNd+NfgfOs4gvli/9989z5cfqOlWmp56hw8fvmN8nWQ/+LqwZhwj3TH5D1KiPbSBlo2bdqEcePGqVIfkT4v9CDtmjVrAh4Ep/d+8Kt5yP/8T9hNbU+0V2/bE+2Flq85PBoT51tanG2F8NMyf713P15kW0/BH8R1dN5ju6ztscF4PHle8ktEu+6OJ/W1co+oezVQKdZ/ZT8vVD76CO57qjtup78PAdPEcX4/ajtGbP0pmh9aBdx4O7o/5X8873m5tsx2PdO1TteEdW17z8tdidV2I6UlWHshEvGajnctPIaYx+AEkKxa4q29/N///R8uvfRS5OTkqBrJ/R6dbAzxxuoB+G5ziRpja40jlGN9aXzj0F3oPeoOS4scCxnuGGLaD/WAWeMlTz6GeA1Spojjdr8Mt4jzUlhZh9kQmloxhtg+/tI+hvjWjW9g7mVd5LKX2nJvj3Z7v6bb3xjiSnx+dX9v2/S2vXwRhIr2nLrkIkxYbmmJzBhi8e2N2nrA8YKMIba188l/9J0XOa4Yot3uGobGcR7My9yCMaT3Hy9jwLdPiGuL1hfCtenkY4jFC5UP4PnxRiXSh/xUrQQSj223rdsLkYjXdLxr4SETDBMDevbsiczMTPlT+llnnaVK2zFdRmDqQBoq4Qxx6SfUbNQ8f7taaylFKHc3IXtcJQqXlaJYlQYje8pUYN0o3KrW245CjB7QBTVrXUhPT1dWjposEczPUFWYdsX5V4uAsEIFn3ZmjIEIQ/HUKrUeIbKnWEMlAo4XjBX52EjjhedUYroqoofxCmhcMQ1x8FKGf+0BBl41EGkNbwV8aQ1OIcbkWNko7NfEG+d/k68JJiokZ0C8xI36px23PuplqhM3RblCvUaNslfAO+ZvB4/eY6LH6NGj5cN0NDkHjSNmjsH9uwkBN88LK+tkiqfsyb5xuzQ+Ny0tD7Mr9ajF0JTll8ANUX/4ZRhHKddqdwUPAmrXYNRstRxA4Bhi32dKcPr27YsePXqoNYUIcgZ2qcUuv8i7CDtFwJEzNrzXxSQZb1T69fhaXI0q1d7nijZHbY/anbwmplS1bsx5bbnheKEpGp6OedU5Pi06w4RjXPHyzdXiS674wuffwC2yCuRr8F5H6vUtfG0mctJqsNNPUxFeeuNMviaYqNBOeojpKVpHTsYmN+4bPNj6FloRkefZGSZsdECsp29u1zw4Af1798cEv5EsRchNz8UTYolSQblcLvTu3dvXcxTymi1Dfqb9Jk3r6cgcOlQcpzdcI229zSvykamGXtDNvvtl/jfwsvxMa4gD1VPH9tNC20qfIygQZZcPniADb/qZj8a+0f71cAny9+89Cs5+b786TLuB3ne/8b4Cq+29KpYo/WC6bHPU9qxrYB5CJoWYlRv4MKloc9nZE2WGCDqe0+9t6xrZrgN7kKmeT4ut3dMx1bVkXdO9MUJubF1/MvimOqbriK7n9/9lPN6CCYP5mmCiQrsIiOVTtG43opXEhmFCcc4558heQ7dok3r6ZqbldLp0odVLazP5q08YvbYMk/Cc1hs/tLV9+nJNPa7015f9hGGYcEn+gJjGOKEcuZvVOjHjPLRdEhuGCc2oUaO8uYe5hzg0Ab1Wmlm56NnH6mmyGz0Y5e2lihPoAQ56qplhWo71S4mz11T2uvbqg562tk+fI9TjSn9bOhQi5ph6tBkmyiR5QGwlHC83XWgNBwJSNjFMNHAGxNxDnNzs378fhw8fVmsMwzBMPJLSq1cvc9K3NoKerqdE9ZHghhtukH9Xr14t/3op2Yr6S5/HWkzGkBd6Ww/JTFuHvbeJELn/JOCxveIbdym+WfQXS4uq3/uKOdb2MSCS56W1JKuWoO0lTCKhhYZL/OEPf/DmHr788svx3e9+Fz//+c/lergk4nt0ySWXyPdg5kwraX9bkKxtt7VwezGjtVRVVSE3N1eVth3Lly+Xnz8vvviiKvHB7cVMe9bC7aXltEZLKv2cR9BPerQczAjK22bykemfBE0+u4VznHC1UD1T3S8oxO83GZOb12DkLapcFFIi5i8+vwGjLmpG9T8e8G17QmzQfMJvH2REuFpMPjLanjD57BbOcVhLoBHhaqF6prrR1PKNb3xD9g7rdbpwu3Xr5l2PphYimu8RHYtyTAarw2030Ij2qiWa7SVYXSIcveFqodcTrG44x4mkllDGWswWbS3cXnwWDS2pJIDQJ95k5CNoJyY/ma5j8tmNglJTuTYiXC20bKp7Qs5AUovy4bf4yinoRTPGb7sHI9PSMHKhR37rotQvnsnZQNZUuO/33w8RrhaTn0zXMfnsFsnzYvKTtXcttGyqG00tV1xxBZ588klvmQ6I7XUIvR7MEvE90u+B0x8LLSYfWVtoOf3003HqqacG+IloawlmRLxpiWZ7CaaJMGnQ1lIttBysbiK+RyYfGWsx+1uqhZa5vfjXMfns1hotyTmG+NY89O49yv9BBEohk5kPmcRGJf6WD+CoBxLmhcxhwzCthx546dOnD5577jlVYo0hpvZHM/UwyQn9hHf22WerNYZhGCYe4bsww0QJepjumWeeUWs+ONMEwzAMw8SWdhcQU0JyU0oaSu+UcKlqmISCJuMwBcSci5hhGIZhYgv3EDNMFKChEjRkYseOHarEB/cQJzc0Tvzo0aNqjWEYholHOCBmmChAvcNbt25Va/5wLuLkpqmpCR999JFaYxiGYeKRVP0wT0pKinywx2R2TH4yjclnt1DHISPC1UL1THU1znKnRVKLyU+mMfnsxlrMFkktVM9UV+Msd1prtHzzm9/0TsZB2H06IKZljd1vstZoIbNj8pNpTD67hatFm8mvcfq0aUw+u4WrxeQjs2Pyk2lMPruxFrOFq0Wbya9x+rRpTD676f0Hq0uE0mvH5CfT0HKw16R9pnJtRCS1hDLWYrZoa6F9BdtftLWEsmTREvWJOXr06BGxWZtaO9FCJLW0FtZiJhnaCw2XWLFihZyAw8S4cePkJASLFi1SJScnEd+jaEy0kKxtt7VwezGjtcTDxBzcXsy0Zy3cXlpOa7SkdOvWrfm0006TOdgoB1wwqM6nn36q1gKh6PqUU04JWYeg4ODgwYNqLZCWaJk+fbpcX7lypfyriYWWYLAWM+2pvVx//fUy9da9995rPC/Dhw/Hj370I3njT+b3aNCgQfI9uPHGG5XHR7S1RPO8ZGZm4sMPP5Q5z+3EQksw4lFLNNvLCy+8gEsvvVSV+oj0eXnooYfk5w8dz0kivkesxZ9Ia+H24iMaWlJ1smNKZkzLJrNj8pNpTD67hToOGRGuFqpnqqtxljstklpMfjKNyWc31mK2SGqheqa6Gme5076sFkq3Zh8uQdj9FCjRQ3W0rLH7TfZltWizY/KTaUw+u4WrRVuA/6YN2Lt3Hagf0Fs+fQP2HdmO+0/MwIZ9R8Q5qsG6aXYt92P7kSM4sm8DZtjWqSeFhqBo216q61umtdjL7GbH5CfTmHx208fp2LGj/DB3+oloawlmRLxp0Wbya5w+bRqTz256/8HqEqH02jH5yTS0HOw13f/cEayfr8vtbVstC6uvr5c9X7rN0zb29k0UP12PfY/PxIwN+7Bvwwyvj4zKatbPAKatwz7vdWOV+10r4tp7RlxHzmvHbkQkz0soC3UcMiJZtdC+gu0v2lpCWbJo8R+8wTBMRPnqV78qf8IxZZfQ0M2IH6qzU4jKOXlIU2tEUxMwcIzVwy9ZNgzZapEo3VGA7Npy22Q788Bz7TCJCLVl0ORRmfkokyU1KBdtmrLUuOZtQ9BmXbodk/up5XCZUYnZOdWYJ/av044Wjs0B3ngDrqGlVgHDtBM4IGaYNsTUO+zk2LFj6NChAzp37qxK2jeFlbORU+0WYYAPz549QIbvbl86NBs1tbpGIc4T3yeaDtu3iB9ojvxQPxUyjBcRoI7PcKO8xTnxS7F9CrD9uWNqPTxKr8+DZ5MOvIlCjBHx8KsbHkd1xnhUzlDFDNMO4ICYYdoQSrd2soCYoF5izkUsUD1WJfkHVIHi4AF4+g0Rt32iFMOyarBzl1wRlOFAA5DWw95nHD/s378/bh44YeKX86/ejcY5QIm3Zzh8rF7lEdCfNGUHPUjLGSPC2yCk5WFhYyOG7XJMVDVjDHIaNmJ6+SPYUg3kjA26B4ZJOjggZpg24vzzz5dDIXbu3KlKgsMBMTETlXNyUF1sCghux/P7sjBsmVik4RK1O1FkOSRFw8tRk1WA3btFUCFu9I2NC5FnH3PBMHHOG08MxrzqHCysqwweyJpYVoUClGOE/YKYlYvyBivota6HRiy0XxBNbsxLLwemNKKKrikFDZfw7LJ2VLaZIuIQQTXDJBkcEDNMGxHOcAkNT98MZD9+O3KqS5C/QhU4mPNCLbKHllrDJdRN20cRdtaKP29U8hhiJmEpyy+BG3mYXRluGFqKqilA+XDn9UBfEuk68Nm8gAuiCLkVNcieUuX95aVABM3ZIkiWXywX5yEtLQdjeNgE005IpSeg5UJqqnwa2mQ0vpGgvyY/GW1PmHx2o4TIpnJtRLhaqJ6pbiy0mPxkrMVcJxZavvKVr2Dq1KkYO3asX51QWmibtLQ0udxSLVdeeSWeeeYZ73qo80I9OPTwXSzOi8lPFmktdCyTpg6pKUCXEZg6cA/u//5KVS7KBCkdU0FLKSlCy+znUZM1HuMzmtDwmqgjq6TQhxhmPVGHgoxtuH/iQrW9tZ3YgVq3jIj2eenatSvOPPPMAD8RbS3BjIg3LXQsk6a20BJMExHJ86Jfl7OO1VZJw0p8/281SMsrwNIHlmKp9zpQWmxtnhazpxQAa0UALda1Fohrxbl/MrmtOIaFtY+Ot1VgW1M2xj8xCx0fGIbspm24x+WSOaBd4u8924C865cG7IuI5HkJZYnYdk0+spZqoeVgddvzeQllrdGSSnndCBJCyyajigT9NfnJ9Asy+ewW6jhkRLhaqJ6pboclz6L+6WL/8qXb4KndgJvl+hJs83hkiiZKeSVt+xL/+sIIuf+ZG1Dr3fYU3Px4rdzGXSq0TFuHmsOHffvx7utmbKitxZ9vsp8XKvNg21KxTHo827BE7VMex6vR2nbDTMtnaZmOP79+yLetTe+S7R4cPlyDdb8XWmrWe3VKI+3qOHQMn5bgZjqndiNC1YnX9kIPNlHPx3XXXYc//vGPMjCmOiYt/fv3x5/+9CeZsP/vf/87Nm/eLMcD2+s4jdBasrKy0K1bN7z00ktef6jz8t5778kbUCzOi8lPFmktdCz6IHL6O8o79TFsX3ItVnvLKaAVN+1TOogPOOFOIS1z8MK+NKSlvIytfxB1aDvh7CCuh3tGpsjtK7xarO1SUvX+LCOifV4oBzUFxU4/EW0twYyINy10LGN7aQMtweoSofS2VIu+ETvrWMGqOs6c0Vi7LxtTx1yJ8Z6pyN73Au4Q5QR9eaQbfge9zb61GD3H2ofWQl8e7fvWZm1rBRV6H6ecshrXLtmOlJG3o3pMNo69slVeg/o1r37yZRzLGua9T2kjInleQlmo45ARyaolWHshi7aWUJYsWlLEB3Vzp06d5JPQlKzYBL0pOmky5WozoV/Ixx9/rErMnHvuuXjrrbfUWiAt0aITtj/44IPyr6bjA1XwDH0B6V+/WZWUoqqxQHz7dWOefGBBrNedh79ecQt+RVqWVaFx6E6kO3528mqZ9mfU6YcdZlR6l1eQlpsr8cqtJ3wPQnj3VYPKutlIKcnGteLmTeelsLJOjuOqqUhHLkQ9+qkrPVeOhZTnZc46NI7zCI1bMEZsi+JM78/Ht258A3Mv6+LbVutVx+t+2W2BWlAoNNBYSkrbkyt7EaL9HsVre6HeWwqMiYqKCjz77LNeLRTAUBB81113YdOmTbLsoosuwgMPPIDi4mL87W9/k2VO7Fpohi0Kgn77298qb+jz8q1vfUtq+uUvf5m075GeaGHatGnKYxGv7SVSWi644AIcP34cb7/9tvJYxON71F7bC31RppR9TiJ9XlatWiUnWnj++eeV10civkesxR9uL2YSRYv1dTHJkU/gut3B8ze2gMA0NWGinp530zjHliK2LRqwB9sCthUB7zgX3A8Hjh8jTOmrGIt//etfcga5Rx55RA6joA8eCkiJm2++Gffff783GCZeeeUVWX777berktC0ZPwwwQ/VMQzDMEzsSP6AWD2Bm7tZrRMzzoNLLYZNsDQ1YTHd+/S8fzKpbBSoJ4DlQwxTTGmjaJKCHOy5f5L/tlkFYjv/XmQ/gqWvaudcddVVWLBggdfy8vJw4IB1jqg3t7a2Ft/+9reNvcAUFFOv7//+7//67UPb3LlzMX/+fJSWlspvqaZv9cHgh+qSl0OHDuHo0aNqjWEYholHkjwgDv4ELhoO4BG1GBZB0tSEw/THioI8PW/NQERPAMsZtioC+3KtXt4STFqlCjS15Ui/uxo5i+sMydOtINqcvqp9Q3Oc07zwdqMg+LPPPsPpp5+O1157DZ988olcNkE/2+zatStgH2Q0Jp3+Pvnkk7jtttvUFuHBPcTJS1NTEz766CO1xjAMw8QjSR0QW8nKrTG6duTUlF9qVitnmpowuHC9HO5Qkv8lQtP+upc3yLYr8lHiBvLmVGKmKiKyVRAdLH1Ve+bll1/GX/7yF2k0nXK/fv3kMIjXX39d9haPHz8e69atQ0GBaDsOxo0bh+rqajz++OPefdiNhlj89a9/lcst6R0mKCD/8MMPcfbZZ6sShmEYhmGiRfIGxP0mW0MlAoY3WFNTVm/+kn2ns8rhpjQ1lYWYWboE01WxmTSMnDxQDndo+dHSkDfl5L28ZfkbUZOWh6k6QhfLBaGCaEYOTZg9e7bMHEFPW3/nO9/B0qVL5bAFgpbpgZ67774bX/3qV2XPLY03/vWvf41FixbJOm0BHZ97iRmGYRgm+iRxD3GtcajE1Tso64IINhercbs0hpfG7mYVhDkUogz5xdQtOxtXXjAUc+ePAPb8K2jQ2rTt/sDhDmHS5A6nl1f3Wm9HsVxvgpuHShg544wzcMUVV8hAmKC0ayUlJd5A2M73v/99HDt2TGaWWLt2LbKzs/GTn/xE9iS3FTxsIjnp27evzDHNMAzDxC/JGRDfmofevUf5D5VYkY/MzHy8KhYpdZl33G7QWXxsqG29QSatp2diwtgR4ji90e+a5cohmJWr0reJwDkzHdkT/SNamj1I9lpTPZVyzQuVyeNY22Y6enlvH+nybWsP9sV69+4jMGfVJPTr3s8RRIuA2XmcdsoHH3wg/4YKhO1QT/F3v/tdmX2CUrCdrH5r4YA4OaFUQTqHJsMwDBOfpAwaNKiZHhSiSQuam5tVsT/0szLliaP8cKHq0Id+sDxzGuql04GJiZZomTx5siyjPLJ2QmmZv2E3Lq4ejAn3+Gu57qEdmDHoNHSy8jb780YlBk9YoFZ8xOt5YS0+7Fq+THux09bnhcYtk++xxx5LyvdowIABMsXdnXfeqTwWsdASzfNCmUlojLhTVzy+R/GkJZrthcb/0zMCTiJ9Xu69916sWbMGe/bsUV4fifgesRZ/uL2YSRQtyTkxRwy0xNN5YS0+Eqm90DANmiGPJv9IxveovU7MQUMm6IHJw4cPK49FPL5H7bW98MQc/rAWM9HWwu3FRzS0JHnaNYZJHPihuuRk//79AcEwwzAME19wQMwwcQKPIWYYhmGY2MABMcPECRwQMwzDMExs4ICYYeKEd999F2eddZYcK8UkD2lpaejcubNaYxiGYeIRDogZJo6gXuJu3bqptXbCTRuwt75evnaZF9xr1oyQpTsa4V5iVdVQWV1lBSrr7PV9ucXrKgu99Xz+OqzTz2ctq7LKdvjPOTnz8X2oF1q2U7Gu4zCppWRrwLaYUYm6ukpYR/bRs2dPnoGQCQm1U29efGU6Lz75nDnyrfavWppqp3T9UNulv+Hl1GcYxg4HxAwTR7TbYRPHtmO+eN06L3h6ejmCTq4uAoCCLFrYLvN1y/p3u9EktqhUucUphzcFDQUZbszT+6zwYMT8vVivp5dsakJT1jDbNOyFuHJgmlrW1KBcb68s71blYphI8kalr53RZEvjAr9cSbzt30eTe5783KC8+GtqVSHDMC0ilVJQEJTOgpZNRukwCPpr8pPR9oTJZzf6OdhUro0IVwvVM9WNhRaTn4y1mOvEQgvVM9WNhRaTn4x6eqiH2OSzWyK+R3QsU93TOlrfyzv6aemAFPGvg1jukAKkpGotD2DHlBRsf+4YUjrYXt8pqbJ+it7/LX/B97KOYfuSyfiDrvPz0Vi7rwtG/mgJOsmdvoyX9/XA+bco/y1jcXFKLWqPCVcHoYXqKA3e4wjT50VU8iuXGlJScYpa16+VcmeaXjcRb++RyUcWV+2lDbRQjlOnj4yI5Hmh45nqWk3NpsFq9LItycUOWsuSwPYvKtCy1pKq6nv3ZbNIv0cmH1lLz0soa89agrUX7TOVayOS9byEstZoSaV8bAQlKqblYEZQ3jaTj4y2J0w+u4VznHC1UD1T3VhoMfnIWIvZHwstVM9UNxZaTD4ynXrN5LNbNLRE+rzQsSjHZECdL6wE6Sf8tJxAs/h3QiyfIHezpeU3Wyejee1IbBGFzSdsxxX7kP+0luzu6ILDeHO53p9lc16oBbr3wQ200+ZmvHm4GQO+eYP03fDNAWiu3gk5H2Gz0CIPnIXJ9fXyp2jLXsGjP7W0CAF++5YaxD6/UOv6vBw6dAjvvfeef11hRLy9RyafNiIu2ouqE0ktweoS4egNVwu9HlNd2dS+erWvnU1qxpqsCXhA+ZpPWMf57dOB7f+GXhneZUJeLqK+ff/aWnpeghkRyfMSytqzlmDthSzaWkJZsmhJJQGEPvEmIx9BOzH5yXQdk89udMMwlWsjwtVCy6a6sdBi8pOxltB1TD67tbf2QgEx9RCbfHZLxPdIvwdO/wmxvazjp8UqaxbL8gYvgk8atzsV5ci9mbahQtu+ZIGsaK3rVe1XprGqN+P1f1QDA7+J6f+djm8OBKo3WwM1KMCw9uEcMpGJiQ9a54W2t+/b0iCCeLWuzwsFw8ePH/evK4yIt/fI5COLhZag7aUNtATTRJg0aGupFlo21ZVNzW/IBDDV40aJ9okvaNT+pzSvCWj/tOx5a5n3OOKlyPrOY8i6Ni2hLBHbi8lHlshaaDlYXX6PzNYaLTyGmGHiiHY7hvik3Ietk4Dy4UVq/STs9aAJLpw3Q60rii/NAhoOoEytY8UWVCMHY5aNEf9X41/+kxgyTGyYtVN8FbO331LZ/teMvF2tawoxJkcExHvVKsMwXxoOiBkmjuCA2Ez25KnAulEIMxwWgW4+NtamIW+O7cGkZVWY3O8Ytj1iDyrKsKUayBmXgzQRKC9XpQwTU5YNQzY8OLDCWs2eUiDbvzMcxgzri9wWVY9hmC9PcgbES9yof7pYrSgoNY03JVIpqhodaW6cKZTsUDolXU+b2NdM6ZyODfuc6aIsf0VlHTwejxwT5vT90y8dlNbiSzNl95Htfcx6ND5YCp59jws109Zh35F9qLT3iknt1n69yDQ9df71ZJldi1i2p5BS54DT+bQtFBC3u7Rr4VC7BqNmq+UwKRqejnnVOVio2nXjFBe2L+iPiStVBUXZZhERp6WhZpcp3M5Ggd5emWfbfZYrq8CvvHFxnthNHhY6Pkv69u2LHj16qDWGCcL5+b62NCUbNRW5vi+AteWG9n81qnSbE9vQZwfda6ZmUQDt+MxnGOaktJMeYhEAiw8YP5rcuE+laKIUNyenCe679TjCeXAjD1NtnziU9sY7/ossMx9T8jPhcrnQu/ciuJsgPuB8vldpI/Ehp+sPllr8PwC9+7rbDVxW5EsXZceQgudklA4VH7a1HuSMdSb1scZLWlqs1zhb5bosHJsjNNXANZQ/ZtuSdtlD/OAE9O8/ydE7W4RcdT1QYOty/FRcJq4tSq3mZUU+MkX9BWpVQ/W811F6JiatUo5ZufI6lHuQ26YjdxatLMek/r0xgg5Mdbzb+kxqmT3K6DN9ltATzZRpgmGCQW3c+tz1tSWrPVq+dMdQIav9013EN8Zdp13r3n2+vN8wDNMy2kVAXLqjAHBTntIEZcUW7DnWBRkXqnUvFOjTS2vJKyvGsKwa7By+E568ghC9CPRTchPSetAXCWucWvXD5ajOGO+b3ICJOB988IH8e/rpp8u/DMMwDMO0PakCuUB5GGnZZHZMfjKNyWe3UMchI8LVQvVMdTVynXpQsQYj/mmVpVDZzPPgomW9reXx2weZLKU6lCMSachbrH8eXYicPfOtXiRFWt5C389dZDuWevfhw7dvuUvbT65ymEJdJW7WPruemWMwsMsxNLxGmVYJq3wpBfoVI/Avq1Bh1ymMflITpfS6JSVD4Nq2Brel3oZdtdkYtkwdw/LKetZ5uVkEwWlo8tTK4+c0/BUTVq7Av/YAA8dMN553bXZMfjKNyWe3UMchI8LVQvVMdTXOcqdFUovJT0bQFM70E7vJry1aWgiTz27hatFm8mucPm0ak89u4Wox+cjsmPxkGpMvtWgEul92m1zWx6Gnl+mpZr96wog21WKzmJ8Xm4WrRZvJr3H6tGlMPrvp/QerS4TSa8fkJ9PQcrDXpH2mcm2Ef53bMKL7CPFZ7vNbLMeEfr5yu2mc5U5ruZZAv8bkJ9OYfHZrz1poX8H2F20toSxptOiEyDoBdDAjTOXadNJkk89udFBTuTYiXC1Uz1T3FCuCFctL8dyUFKwddYdM/k9J8yn5v1w+Uo81WotKgu7cDyH3T/VxDNsX9JY/SdEQiJdzFmD/E7fIOnS4Y88tUj5ldEyxD31erGTpvn1LifvWeusPGTIEvS+ajN9rX9ZU+fO5tEV5wHOluPb3HX37eeA5TE1Zi9E/F+dBFKakdpTH8dcpbMF2USLefKWl+FIXXn7y91LDHS/WInvYUkuTzAyfjanieC+++KI47gLkpWzH0mt/j1uuuhgNL1qv5/dPvgwMGI3CZGovMdASzEgLvefnnHOO0a8tWlpOVocsXC2nnnqqHDoQrI6pXFu8vUcnq0Omtbz99tt4//33A/xEvL1HJp82wlSuLZHbC90gnT4yIpLnhV4PvS5nHbJEfI9MPm2EqVwbazEbtxezRUNL6qeffiorUC8GLQczwlSujZIan6wOGfWUmMq1EeFq0bnjnH4rob5K4l9xGW6h8v+eAOUy/a9Y/ikl4D/8mk8LTQwgfM79EHL/tK3ML6p9S/HP6iZ06Z4p69Dhmk+YNevzIut84SvXeSS967bzIn21a+SYMG39f7hSarH28xs8RYnbc2+R9Sn/KR2f8NcpTGsXy5//5FGM69cFI+br5O9ZQL9L8RuqJydHqMEacaxLLrnEOm7ffCz99DeYdFkXZE1S28wfgS5dBmLUT5OovcRASzAjLdRDfNZZZxn92qKl5WR1yMLV8tlnn8k8k8HqmMq1xdt7dLI6ZKzFbPHYXih3qdNHRkTyvNDrodflrEPG7cVs7VkLtxefRUNLKm1M0AcCLZvMjslPpjH57BbqOGREuFqonqmupN9kK4n/LFVO8Z6g+cQMXEkJ+P/xgG9by+O3DzJZSnXUthTAWj7aBw0nsD1AE0SzP75ya5e+beyvw+kjkyWiDvmyp0wFKnJxi66v9Wm8OoUpX7NYnvGtgeiyb63fgxvltdn47oYZ6hxY9fzOaelQZDe5Mc+2zaLngJEFJb46DrNj8pNpTD67+WkxGBGqjh15/gx1Nc5yp0VSi8lPRlAPMWWaMPm1RUsLYfLZLVwt2kx+jdOnTWPy2S1cLSYfmR2Tn0xj8tmNtZgtXC3aTH6N06dNY/LZTe8/WF0ilF47Jj+ZhpaDvSbtM5VrIyKpJZSxFrNFWwvtK9j+oq0llCWLFv/BG0lFrTGJ/9U7FiIvzRpn600vRhkosgpOklLMfwxxHty47xrfc/EBY4idac1MOMcQi79hpTWrpUBfLYdNoQzia1+Yo9YtinbVIC1njC+9mgPKSNFUvcU3kYFg5ZY9aMoayml92oh2mWkiiUkTnzedO3dWawzDMEw8kpwB8a156N3bkcSfUiupdGc6/Zk9zc28UJkaVFomXVea2JcVDq/EhH7d/X3SMpHvTZa+EvmZvjQ6hEylY6uvtVAdU5odTbAUPP0oOF81Cf2697MdV6DSURWJkHZitiswl6VOPyVTTNnSvinoeH7prQhxnGxXXkBdJjLQkImMjAy1xiQ6PXv2xNlnn63WGIZhmHgkiXuIW8pp6P19ew9voxwzSxNrhJy0g2EiDPcQM4wZetiUTONcjyXf+ta3pAVj5MiRGDt2rFpjGCbeaHcBMfV4moYblOX3Qp+e/r22lKWBJtYI1lvLMG0B9RBzQMwwgaxapWdWsfje974nLR6YO3euNCcjRozAtm3bUFlZKdcvvvhi+ZdhmPiCe4gZJs6gHmIeMpE8HDp0CEePHlVrTHuBeoSff/55rF+/Xq7n5+dj8+bNeOmll+Q6wzDxRSrlY5MLqakyN5vJ9LSj9NfkJ6PtCZPPbpTv0VSujQhXC9Uz1Y2FFpOfjLWY68RCC9Uz1Y2FFpOfjLanlDDHjh2Tv06Y6pAl4nuk3wOnPxZaTD6yttDy4YcfytRJTj8RbS3BjIg3LXQspybaVh9H+511yHQdZ7nTtJZgmgjT/rXZz4vmiiuuwAsvvCB7hGm/3//+92VwvGPHDrmvYOcw3PNi8pHZtZj8ZC09L8GMYC2BRkRSCy0Hq8vvkdlaoyWlV69ezqRdbQo9YEI9JpHghhtukH9Xr14t/7aUSGppLazFTHttLw8//DD+93//F6+//roq8ScR3yPKb03vwcyZM1VJ5EnWtttaErW9zJkzB8XFxaoEuPfee+U6PeNB6OESf/nLX+TflkJD42hfa9euxR/+8AdV+uX40Y9+hDPOOEPe1JuamvDkk0/KSVns0Bjin/3sZ3LyIyfcXsy0Zy3Lly+X9ytuL+HTGi0pXbt2be7UqZNMekw9UyYomqZZPChxMeVqM0HRNc0k8vHHH6sSM+eeey7eeusttRZIS7TceOONsuzBBx+UfzWx0BJP54W1+EjU9vKb3/wGf/7zn/Hss88qjz+J+B4NGjQI06dPx7Rp05THgtsua7Fjby+///3vsXPnTuUBvvGNb2DXrl3eSTv69u0ry/ft2yf/akgvWbDXozn99NNlD/64cePk/pxQbxPlLA2FrkO69bLWp9HldA6/853vyKEUTri9mGnPWmjM/MqVK7m9CKKhxeqDZhgmruBME8kDBW09evRQa0xLoGCYvkBpq62txR133CF/ZaAvuOvWrZNmr0NGX7yojrPcaXfeeaf8S9mE+vTpE2BZWVk4//zzjT6y8847T9ahv6+++irefPNNaTTdLu1z8uTJcnuqQ/WfeOIJ9coYhok3OCBmmDiEH6xLHqhXQ4+RY5Kbjz76CEOGDJEP0BE0jvjf//43cnNz5TrDMPELB8QME4c0NDRwDzHDJCiUZs0eGD/22GPyZ2++phkmfuGAmGHiEB4ykTzQeDXT+FSm5ZjGUsYzFBh//etfxw9/+EO5ftlll8m/DPNlMOXdjpc83MkAB8QME4dQDzEPmUgO9u/fj8OHD6s1pjXMnz8f77zzjlqzHpB1PiQbK/Ly8qSZqKqqkj3Gzz33nCphmC/HpZdeqpYsFixYoJaY1sIBMcPEIe2qh/imDdi7dx10MrbCyjqZCqtqmVxDZV2jfECJplJvbKyCdyL1GZWoa6xD5Qy1ThSsFGWizrIquQ+n1ddvxX2qKmQdx/al21H/tC/NV+kO2u4QDtr24dNCGkmfYx9ergvhY9ojdF2bKcTKZ3d725i0ukpRarVB61rwQWV1leRViGthn9j31hK1LilFlX1/wjweN4pLtopl23VE0LWgjie5Z4Pfdn7HEltuFe2froNAH8MkLhwQM0wc8t577+HMM8+UD2S1K8SNfXZONeal0xTrFGwuRF5DuZykhKZSn+d2ocB5MzcxK9c7BXt5LdDknqemYx+F21WV0qHZqKn1IGdskBu6CBIKUC6264k+al/pFTViZ9uwSGihddM08Azz5XgD5bqd3e1GkyoNgNplllpWFI7NAWpr4LrU92XOosa3T2EuVx7mKE9QxP53X90N7rv1duXw5C1UgS9dkwXAut7ymkxPn4fqnNn8pY9JClIGDRrUTPndaIxbsHyLlEOR8sRRfrhQdehJ6mB55jSUuPyDDz5Qa4G0RAultCEqKirkX00stMTTeWEtPuxaEq290EQBv/jFL2RPjJNEfI8GDBiAqVOnylRXdlIKHsIzNwKrvzEd569/ERdXD8aEe4Tjng3ixgxUDp6AhV4tk7Hy2dtx4Wv34fJnR+LZ2Rfi1ZLLMb3c2tcZP1mNv83qiifFNvqHxPkbduOb74r6Nz5iOy/zsGH3xXhp8Eu4WP616qcs2IAXRUB+yYQ6PPjMDcBDvn1LSNPod1E6eib+KM/LdULPtMB6gjPOuAElf/sRUv8wBjPKvwg4j/H4HiVEe2kDLZs2bZK5iJ1E+rzQxCJr1qzBnj17lFdzHVa7J+JgXr7VbgtW4llxTay6fDoyRfula+KHi0nLXVj/4sU4sqsbLsQq2aZ1G0x5aDVwI7XZb+DGctIyX7Vx37UgtSxYj13jrevK+2O7bNdHcN/l2zBSXF/9a8uQ91PbBEa2a5G28Z2XAmP7b4v3KBjJfB3RcCDKsa2HCWVnZ+Occ87B008/7c3bS+kHH3roIem3Q/s42XHIyE/mvC8S8XpeQtEaLck5MccDVfBMzlZritpypA8vsn4amuLwNbkxLzMfZSafoKYiHeV96rAwL032NGXml8ly0rK06ggm92sS36Yzkb9C9WilSbeXY88twvnjl6g1B/KY9EEzCT/V54XKxnksTVYJHvh3IyZ33ybKrhZl9FPYMOxMz4V4RZLU1KV47ogo634ZblHvEf2sVpChXptY1+/RvVvrHT0MWr+1du4fnhcffl39yuwkXXuJgZZwzssf//hHLFmyBP/5z3+U10ciJkIPOjHHzErsX5SHLmKZrjXd60pDJxZSb7FovyttWmR5j41If/g81C3Og+NyE1CvmO/aoOtg/GHruvWel/vdqOtTLsvIP2yXddxUce0dkZ8B/teEF3ltNmDRRddiiTwv5mueXsek4ruw9OmfovPD38GPVx8PmLUsHt+jhGgvbaBl9+7dGDx4sCr1EenzEnyihVI83zgC29OHWO2WhgPNAUpE289W7XP0zzvhN+Kze6hYpvvRbJRY9yKqe/0B9LvsNtzyxH7x+S/Kr35A7tN5n5Balm5D/SRHFzMh74MHUNBYgFOeGIwhP7G/R7Sv8fCoa6JTp1vx6CtzMVK0e/s1q2nvbTdSWtavX4/XXnsNBw8elD76kkj5rP/+97/jrLPOwvvvvy9nPvzd734n/XZoHxT4BTsOBZh0LNJKaQFpfHui3BtD0RotSTxkotb2U1E5arLG237WsX5Gog9A+snHjTzM9o6D8v3ERD/R0s9C3ou9qQnIGeMbZ4UlGNJPLQoKK2eLPYkPFe9x07GmVjlbRak4Ti1qGgZiTNg/TZViWFaN2CbHuA19iFkaxet3/DY3P+f80D8lM1GhXeUiPrYd87uvAaYEjpcMDQWuvuttcMnO4D812ygd6kL1ZuvrZtGuGmQPtQ3C2LcW3edWI2dxuON//TXQz92uKVWYr7wMExbHj4i7TwhKtmIq1gQEnzRcwrPLCnlXbtkDDLzSdo8Khv9QCjkUqEWsxMRsGjKRjp1DeRxxW0FD5x5//HEZqJL985//lB0ktEw9uvT3+PHjXr/daMpn6jk2+cjoixnVob/8sKcFjyFGGbZUNyGtR2DPcAAN1aiGC96apUORtU8Eqmo1u4f4utxwwNurGzGWDRPHeR55z3uQd/1JR09aiG2ya3cid1cLtpGU4uLz38DO4TvhySsQa0ysaH+5iG9FrrgxZ4tgktpd2UEPkGa73iSFGJOThqbDLb2B25i+HuOz0pC3WD00RD3CWcP82/qDE1DiBvLm2B40CpcVW1Dd5MI5BWqdYU6G+Lw+/913Qtw7SrF1ErBmpB4BrylFQV6auGYa5Rfo+vkjkJZm7gQJjxp4xDfKbudcp9YVdD+BBwcMvxjSF8qw7p8ME+ckcUCchQLvU7LizlRh/vk/8Aab7d2OniT3eGpsvUQHcKAhG8NUD9aSodmofcH301fNYfFJknFey2+g4pj5u21PGDuGbVBv1vY1c0S8sAs18sZNH1o+HSZoG/fDRcCsnWqbMBEffN12PY4i8W9nbehjMG1Lu8xFPKscbtG2x1OPk1ou2OFrvfJXmLQabFTDlr4MM741EGk0hMrWQ1Yu2ro8po2y/I2oSctDQUuvgRljkJPmwTtqTOWnxw7h6NGj1grDGKAHPN+o9o7oDSB7Cj3I5nsg1AsFqjTUQbRh+qygXzXnbxNf5FrUCWKnDPmbanDm0Gm2+14pqsQ9qcldLu4KNESo0S+bBWlv1RdUhokT2s2QCf+fYq2gl8aNNTYulMMcSrw3WOeQCRGs2gJp38+rpRiaVYPnZ1vlRFl+iRx+sVAHtsKmGoZqBSKCbjl8Q+n1+/mqFMMyqvHUKlq+XQWp4kOrmH6W9R3nyJGp4iuAxtpmi9TdssCWAulXn6UHNQw/JTNRpX3mIrbaNvLoyXWxnCmCVRR4U50tzPOI69M3JrLlTMeVA9NQo35i1sherpwx3tRvFkV+PdbBsfU2ky3Og6ci1/vA0hefNMkpfRnGBI2Jp2c6zr/a1ilCY+PFlzHvUD7xBW6U7V6jkcFo9Ra/nuXlm6vR1JJOECezcjG45FXkeNt0AVzeZ2fomhT300m+tGuUiUU/V8O0PS+88IJasqDc3ExkaCdDJigoBFx9dA+QfQyxCEBtD6+dFN3jKock7HKksLGGX8iHE1Rw29oxxIWV45EtPhjnqryP9MEpg9QV+chUxyDr3n2N+Argv40OzL3bnIwZlfKn5GGz1Qez6adkJmq0mx7iByegf/9JWK5Wrbbt+0WnaDili7LSrqXbg2FHPUn5dFHmHzDT9r4btjX20TkOU6ZpE58Dy4tGoPcVtqtapm+z7U+su7Inir1orKBdX4farP0/InzBfpliGB/0sLb3fqRNdYxQ+5UPhNsoy8+Ubdq/bSvE9WRdA+ILnenL4+xRYv+OctX+vXuS15FPi/8xijBKPV8j/Q5tTNvxl7/8RZod5zrz5WknATE9YAZ4DoYd9obA6nEdP86FJo/jZ6JlVVYPVksC7JBYwznoATj9gF/gA4JOZnq38X6wqm3WT78PxX6J2/2hhzPop2T7B7Ppp2QmOrSrh+oYhmEYJoak9OrVy5z0rY3o2bMnDh06pNZaxw033CD/0pOSfpRsDUwrs2+t1fMjfcDa3qNwn1OLaTtCbLuoYRzmZmyy7cOF7Qv6Y9KqYmytH4eGzXswcOwIeNb19vtpq/jpeoxrWIT+P/T1Kfmh9DwxdAoKtRYqu6oBi+4X4ff8DGwSWu090eZ9ko4heH5BA8YF3WYL9gwYgxFdauXrt/zTsW6v+IZ/fylw21xk/L03pvzOdl60lv6TbL1i0SMq7SVMIqklHDp37oy//vWvGD16tCrxEW0toQhXyyWXXCLfg5kz/QcmRJJ4PC+UBoiGTLz77rvKE324vZjRWmhqZUo91dYsX75cfv68+OKLqsRHIr5H0aA9a4lWe0m0e2MoWqMlJSMjo/lk+eoIqkN524IlTaY8cpQ0mfK7hUIE4AH5OO20RIvOT+lMSh0LLfF0XliLP1pLIrYXSsA+fvx4mVrHTiK+R/TLA+WCptyyTqKtJZrnJSsrSyaKd35Ix0JLMOJRSzTbC+UFHjJkiCr1EenzQimu6PPHOQ6USMT3iLX4E2kt0WovHEtZpJIAgpy0bDK9Ie3E5CfTdUw+u9GLNZVrI8LVQsumurHQYvKTyTrT1qHG45FjgJ3mvt+qFzUtApPPbsmqhZZNdWOhxeQnc2qhB+u6du3qV4csEd8j/R44/bHQYvKRtYUW+ms6JhFtLcGMiDct0WwvwTQRJg3aWqqFloPVTcT3yOQjYy1mf0u10HI02gstm+rqOs5ypyXLe8R5iKPBqkl+DyjYLeDhHoax0f5yEScf1KNBH/QMwzBM/MIBMcPEMe0yF3GSsX//fhw+fFitMQzDMPEIB8QME8dwpgmGYRiGaXs4IGaYOIaHTDAMwzBM28MBMcPEMdxDnPikpaXJFHoMwzBM/JJKqSyIlJQUmdbCZHZMfjKNyWe3UMchI8LVQvVMdTXOcqdFUovJT6Yx+ezGWswWSS1Uz1RX4yx3WiS1mPxkGr1OuWuph9hehywWWoJZuFq0mfwap0+bxuSzW7haTD4yOyY/mcbks5s+zjnnnCMzhTj9RLS1BDMi3rRoM/k1Tp82jclnN73/YHWJUHrtmPxkGloO9pq0z1SujYikllDGWswWbS20r2D7i6SWYMfROMudFkktJj+ZxuSzW2u0RH1ijh49ekTsAZPWJpOOpJbWwlrMtPf2QrMTUm7Iq6++WpVYJOJ7FI2JFuLxvGRmZso8xDT8JVZwezGjtcTDxByJ+B5Fg/asJVrthWMpi5Ru3bo1n3baaTIHW6jUQFTn008/VWuBUHRNCY9D1SH69OmDgwcPqrVAWqJFJ2yn5NV2YqElGKzFDLcXM04tlIj83//+d8CkAYn4Hg0aNEi+BzTZgpNoa4nmefna174mJ1Z55513lMciFlqCEY9aotleaOKDSy+9VJX6iPR5oS+39PljmmghEd8j1uJPpLVEq71wLGWRqpMdUzJjWjaZHZOfTGPy2S3UcciIcLVQPVNdjbPcaZHUYvKTaUw+u7EWs0VSC9Uz1dU4y50WSS0mP5lGr1MO28bGRpmz2l4vFlqCWbhatJn8GqdPm8bks1u4Wkw+MjsmP5nG5LObPg4Fwu+9916An4i2lmBGxJsWbSa/xunTpjH57Kb3H6wuEUqvHZOfTEPLwV6T9pnKtRGR1BLKWIvZoq2F9hVsf5HUEuw4Gme50yKpxeQn05h8dmuNFv/BGwzDxB2cizixaWpqwkcffaTWGCYIBStRJ7780hdgsrrKQuUgCrFub72c3dTyV6FUeTRLnjuC+vp6+Xmh/YWVdd79kdH2VKexrlLsESjd4fM1NtahcobclcWyKptPm7Xf4qeFlm33WfUUtC9LcyE27NuHddZswIpCVNY1omqZWFT79WpR+5Y+hokhHBAzTJzDmSYYJskRQeLu2Rei+m49i+k8VOcs9AaYlXULMaJhrXymgPzz3C4UeINiK9icijXo3bu3/PKcXiHia+HPzs/07s/dBNSsdck66Zn5yBYBbEGGG/OkX1iFB3mLdVA8H1VTslFTofUIu9sNsYsvRWHlbOSlqRVJDdaI1yK1qP3zrK1MrOGAmGHiHM5FzDDJTenQbBzftQr5K1QBypBfPA8bN4vFZQUimKzB2ivmWC5BWX6JCHCzMZ4C5hljkCP8ay67VXkFs3Ix7+6dqLH3+NqZUYnxWU1wF+eLIynENuW1aci7XoTZBefAJcJfz17law3iWLNzquGuVesME6dwQMwwcQ4PmUhs+vbtK598ZhgzpRiWBbz7ziNqXbGiDEXCCvu4gCYP9qliizJsqW5CWo9sFI7NQZrw1yiPpmxFkTC14qS/C2nw4IDDX7RL7CXjPFxX/o7wpsHVXzlMZE31DncgKxCvIZCZqJyTg2oReB9QJRbZmOo3ZMIxXINhYgAHxAwT51APcbsYMnHTBjmGMnAsYSncjvGGjTvkCEn5U7G3TNju3bvV9oE+svq96+C97zrGSLbVGEZ6MpqyhTCMmRp4vuxYBEHZQY9aiiQLkFtRg+wptutncZ4IkW3UrvENpxBWbugBnvn47cipLrH1fGucQyYyDXUYJrqkduzY0VpITQUtm0x/mNNfk5+MtidMPrtRQmRTuTYiXC1Uz1Q3FlpMfjLWYq4TCy1Uz1Q3FlpMfjKTFspQQGMH7WWJ+B7p98Dp11pu/naOuMnWwDV0qaNOClKatmGRuHnSeXCtpb4wOmaq+B9o2naPVS7skr+8IW7iVVhq8JH17j8JK4WGWU/UoXEK5E3Z8q0BxM3/uWWRPy/01/S6CVO5tli8RyYfWSy00LFMmtpCSzBNRCTPi35d/nVW4q0GoNs5P/IvL3xCfEGswtfqRcCb5kI/sQ+flln4Vk4amjz70PG1BjQJ/9ccWpbSQ25PzFL1reshJUVpoW3gwlcLbcejbYZmi2/gb6Gczsdtu2SvM407ltfIvG1yDHGKqCdxnDPaP8T+9bFwwTrcPnAP7v/+Sptf1JULVDV5267JR9ZSLbQcrG4ktVA9U127llCWLO9RKvVeECSElk1GFQn6a/KT6Rdk8tkt1HHIiHC1UD1T3VhoMfnJWIu5Tiy0UD1T3VhoMfnJTFqOHj0qe4jtZbHSYrJwtdCx6IPI6be0TMeVA1PwcsU6vOwajw0z7XXEB6H4kCPkeqpYFjfeU07pIItTUn3H77CoGrXoga/ODPSRER06zMQYEUzUrhuNO7y+OzB6wSI8/7r1ZH8kzwul8zHVJ0Kdu1i8RyYfWSy00LGCt5fIaglWlwilt6Va9I3YWeeOF2tx5tAbbO3+Zmz42UikPLcOd8xZh+3HsjH56WKvlpsfvx0j02rxt2tX45Q/bMXLwj9l2/3yOHL/S7dhapbyy/1Z1wNSlJY/XIu/7UvDyJ9twM1Kg7XNMWyvuEMc53psqJ2KHs8twug5yt9BfDEV/0TQIPchdqb2bZl1WZI+OlYaRkwaiJeXXIvVfn6xTAu0pxa+R8GMiOR7FMqirSVYeyGLpBaqZ6pr1xLKIqnF5CeLhpbUjz/+WFagfKe0bDKdCJn+mvxktD1h8tmNEiKbyrUR4Wqheqa6nxc/JX9e9bOt91r+3/p8u3btspZfWYufOHx2e+q3H+Mna1+Ry6+s/Yn3OKSB0s/U17+Ctf9DZT/B2lcCt9/72HTvNmb7CcqeUlqkPYV7te9/1uIVoY/SZtNr1TpIE/nv3Wo/1l6s/bF+jywtdr2ff36DTN1D29J2eh/adJn3PZLnQ782ZbJsK35jP+9UJs8hHVPUFxr0e6R16GNp/X6mz7/BotJeRBnhLHdaJLWY/GQmLZRknH5WtJfFSovJwtVCxzLVlVqmjcYAz0Z8b+kSbH6pGQNG+9rtx//TGxnN1oSacv0Lsdz8hVj+HCfkou91/vfuHGThMN5Yavm6XDbXv62JoOLzn4zCgC5NOLxH7V+bOPYtDyyVx4nkeXn99dfle+j0E/H2Hpl8ZLHQQscK2l4EkdRCeUmdPjIikueFjmesO3M4Bj/xLkbM1211Lga8NA/nj18i/EvwvfPTsRaTve147mWHUZ4+HDfL7ck/D+7uPn/9pGabn0xdKyd8Wm7+ejrmvTQAc73bZMB99/niGvwYdz1WhBHNbvxOHl/t4/MTaBb/vhDLkuYTPp8w67Kkc2Ud69hzpch/wPdaLb9YpgVxlU7Wx9Wm79EOS8S2a/KRRay9KJ+pXBsRrhaqZ6pr1xLKkuU9svqgk5Ja8YGgxzeVoyZrvG3Qfo30DR48WPjEBwnyMNub89Hy0XY0vol+KvKmg2lqAnLGQNcElmAI/Y6lkKllxN68aWyErTnpk7VWSp1h71Z6t/FPqWNj+nr5tC7tnzRR3kedNoceuuq9zoO8Rfsi9nACPflcU+tBzljfK24pful26GnjPIgP3XTr52saP1bhfBSEcfL++++jU6dOcoadZGX6mIHw7LKeki/bXO24zgQNB+A/h5KPtLyF3nGOu68+HzUVuShSvib3PO91RdabntRfeQBtMeqSYVrFPRP82mpmvjf/g2TOFdb9yPL72rhFGSb0E/cA8Zkq064Z/PmZ6cizJaIgyrxp2ch843gXTBD3xkxbBgpiRT4y1X6llpG3W+WKouFas6Wl/w/9r1jyy3vprFx5PO89QB9/uL9ihok2SRwQh4vvad2T0lCNarjgrVk6FFn7auU4KyK7h4j8xI3b/2PsJKiUOpUTFqgC+pCypdSxcd91I+HZpD6kTGlzZo8SAbhKm9Nq6MnnGuwcvhOevILA4Dwcbtrgn24nyJPNzMlJ7lzES3DtZV2QPYUmFFAP76TlYIz6YkdP0cMT/JulPeilL7knz2daC0+T4Qn6ZVU4sm+D/DWGYRiGaV8kcUCchQL9dGxjAVAR7CnWQjmesOmwN6z1bkc/43g8Ilj19rgewIGGbAxTT6MvGZqN2heet1YENYebZMqalvSn6pQ6dWrdwhGkp+XJn7WGPm/rrQ4SXN6q0uZoDfbeM4/nHozoYpWT1uyhIcLcZcPgcpejSPzbWet7zRZZMmWO3m/jFNOXienY8DNHup29Hvkgx3kR6sFuTyR1LmL6YnlsO+bLni0rsJ3nhvpiR9cnsOefkfwWtUJeX/Twne8KKLUmItg0IWhP9JclLS0NnTt3VmsMwzBMPNJuhkzQE+S+tEpW0EspmhobF8phDiXen6ecQyay/QJpytNoBZKlGJpVg+dnW+WE7NkVe1uoA0VhU425GVtIkxuLeq8FJntanBrK3nvmct2D7cescqk1o8AX1Aqz55EsHepC9WbrnPhes6ZWPp2v92sa9jD9sSLk7LnP/0vIinyUUKCz2DZtpzGYZpwkcy5i+mJ57OWnsFytEzRsoilrGP69Q1yfIqAcudCWdo3aTFZBWNeC/QshGY2zXz+d2n+mGpqkffSlOR0j2uBX2549e+Lss89WawzDMEw80k6GTFAvJ+Dqo/tN7WOIRUDnHCsVilk7USNu1KXLhiG7dhd8cwcRVs8uBbB6HPHJxhDLHJJpLmSqdQtnrzUxB3lrKS+k6tUK0ttKwUV4wzasMWXeoFaYN49kwUqMz0qTgasvABGvWblPyoUbUDRgD+67xh7iWMhAR/zbNo/HELeEZM5FfOtlgeMN9XjFHWKRpo91jjecR/PQqjbsHGtpEdi+yXr37o+J6lD+4yd56liGYZj2TDsJiK2ZgDwHww57Q2ANIRg/zoUmjyOYW1aFhXkelLcowC6X44XzN8xXBSIclg+i1WCj80Z/a4VvbLEIGDbSeOE5lb4hGiVbMZXGFT/cum6u6y6/EGm15X7BQjm9ZseYZjNC05Qc7Ll/kl+Pn0UpqhbnwVOR6Q1KmPDg2eoYhmEYpu1oN2OIs0WAF14PkHMMsUfNiuWDhhCkpQHVm20h32WVqKMxiLYn3MPD6smqRL7S2mgF1QFPCRMrkF9MYw5my3HN9NTuvOocOUSDAqb6SS645/Zr5Yw/hRh5wZmo2eV/dPmanU/+B6Fp232YtEqteKFsGi15Hxg7yf1QXXC8T6Y7oN7dRGlHhw4dkrmkGYZhmPglZdCgQc2UDPmLL76QuRhN0MwflCCaEsyHqkPJjikHXCjOOOMMfPDBB2otkJZomTx5siyrqKiQfzWx0BJP54W1+LBrSeT2MnDgQBQUFOCOO+6Q64n4Hg0YMABTp07FnXfeqTwWsdAST+eFtfgTi/ayadMmjBs3TpX6iPR5uffee7FmzRrs2bNHeX1wezHTnrVEq71wLGWR0rVr12bKcUqJioMdiIRSDlRKmkyCTdBBaKYPSm4cinPPPRdvvfWWWgukJVpuvPFGWfbggw/Kv5pYaAl5XmZuwCvzR/jPA6+g8ZHU0xU1LfF0Xri9BBBMCx37gQcewPe+9z3veqK9R+LLN6ZPn45p06YpjwW3XdZiJxbthR6wpmdKnET6vKxatQorV67E88/7shNpuL2Yac9aotVeEvne6KQ1WtrJGOIYs2oSMm3jce3GwweYcEjmh+oYhmEYJtZwQMwwCcAnn3wivz1TTlsmsejbty969Oih1hiGYZh4hANihkkQONNEYkI/89HYN4ZhGCZ+4YCYYRKE9pppgmEYhmHaGg6IGSZBSOrpm5MYeoCDnmpmGIZh4hcOiBkmQeAhE4nJ/v37cfjwYbXGMAzDxCMpvXr1Mid9ayNoXn9KVB8JbrjhBvl39erV8m9LiaSW1sJazHB78TFx4kRkZmaiuLg4Id+jSy65RL4HM2fOVCWRJ1nbbmvh9mJGa6mqqkJubq4qbTuWL18uP39efPFFVWJR/HQ9hr86FHkzfOeFysY1LLKmNS/ZivpJWcpjUbuuN0bNVitOqP6lz6P3FXPkKu1rcr9j2L6gP54asxdzL+siyzVyX6+tw97bgNL+k/AX/R5NE2XzM7Cp9yhA7kNt4KUWa7UPa73HIyz9W7BnwBiM8D+c5Nhz6rXJY4yAJ8jrac/XUbD2QkRSC8dSFqn0cx5BP+nRcjAjKG+byUemfxI0+ewWznHC1UL1THVjocXkI2MtZn8stFA9U91YaDH5yEJpoV5GStVHy7HWYrdwtdCxKMdksDrx1l5MPjLWYvZHWks020uwukQ4esPVQq/HVPcEdUs1245T/JQMPptPqDJRgQJIutm7XC6sqSWfb3tthNw/7bBZnTvaV/MasV0Wvv+gpaVp2z1yP377+qJZTlbwhdjGes034NFbR6ALmnFClEmNtbQfF3r37q20jMSt2qePp4xobn4OE7Ks47jmbUMTarBGHfdrE62ZXm/45gA019Yg45Lf+G2vLZzzH8n3KJRFW0uw9kIWSS1Uz1TXriWURVKLyUcWDS2pJIDQJ95k5CNoJyY/ma5j8tmNLjhTuTYiXC20bKobCy0mPxlrCV3H5LMbtxefUUDcrVs3uZyI75F+D5z+WGgx+cjaQsvpp5+OU089NcBPRFtLMCPiTUs020swTYRJg7aWaqFlU135M61XQwnckwG3u0kGmbJMVvBpser778NPi1VBlE/Hn7/jgvvhW/zqePcrzLsvK6rFCSoTWqb/+TYMrHaLEJbcqp7cZ+B5sfvITMex9m/ty1dnOr45EKh+uBzVGd/Fn6epujZLxLZr8pG1VAstB6sbSS20bKqr6zjLnZYs7xGPIWaYBIEfqktMqCft7LPPVmsME5rSHQVARS62qHWisI9LLbWArAI0Ns4GijORv0KVhUvBSszOqUZJ/gFVoJD7bER9fT08Hg8a6ypRqFzaR0bPOwQOrzAwbTRyGjYKfWXYUg3kjPXujWGiDgfEDJMg6IfqaE53hmGSkGVVKEC5cQZTz8GVailMasuRfnc1chbXoXKGKguLQqy88UJUF+ejTJV4oX2mp8shEzTsIT3TVkf5yOhzau0+VR6C6WMGwrOrSC6XbaaIeIwvwGaYKMMBMcMkCPRTEOciZphkZT6qpgDlw60A0UchxuQADa+p1ZawIh8lbiBvjq0n9yRkV87Gha+tanmvcou5D9de1gXZU6xe5cbFeUhLy8GYFgXvDBM5OCBm2hXZ2dlqKTHhYROJBz3xfPToUbXGMGbOvzpfDpVwhsOYMQY5qMZTq9R6CynL34iatDwULCvEfUtOEm1SvZxqrLrxEVXQhiwZiqxj2zFP9SqTzaPg/fpSVYFhoktyBsRL3Kh/ulitKJZV2cY7laJKfCPdvXu3d8xT444QF+GMStTZxkoVVtbJbbbTJtPWYd+RI779ePdViMq6OqyfLjdRUFkjqpaJRdJj20Zr8fmqhEobJVvhqVmPCnVspx3ZtwHWoWbKY4R8Pe2Ur371qxgyZAgefvhhXHnllao0OMOHD8cvf/lLLFiwAOPHj1elsSUpcxHftAF76+vla/Nv17ZrYPp6Wcfrc7ZvukZFub6O6iq9V6t1Pajt/Mc+0ueA7RhiH/u815GArkM6jtq33gdtT/uRx5A+x0/SsqwK88Vi6Y5G/GNxEz766CPLJ6Ayn7775GeR3rc2+TnAtC/eqDQMlbgaVbLnNA9zddsV7aMgS3y5n+K4RwSlCLkVNaJ+AYYPuQdzLwOqNwcMhlA0wV2cj6DhsHMMcSva6n1DsnHs5af8hmXQsImmrGFhvi6GiSypArlA4xJp2WR2TH4yjclnt1DHISPC1UL1THU1vrKlqJpi9QymyPUUcd27cf8ll8jgorv4sBAeW33LZH3avxqyKbedWSkfNpgvthuhv8qLfdG6/778x3nS/m5+Yjby0uSa+iZSgzVqO8q5SX9HFGmf1urTQjw3oZ91nO7zQQ8h11So4/abADnC7KYrkSP2W5MxDEtt29v3YS8zWSTfI5OfTGPy2S2SWg4cOIC1a9dizZo1uO6662Rg/K1vfUt5/bUsXLgQd9xxB958800ZZI0dOxalpaXo0KGDXz27EW19XihopLF7ifgeaTP5cWy77xqStkY+3a6vuZqFI2WeUm/bzxA35h1LrX1Q4Lo4B9Vz9XU0H9U5C1H3xM3Cb12HTdvmy21p7GOPHj3k9bJC+bzXmf8lq65DoVeWi0BB7J/2odNO9ZuwwrdNitqHfT/0euWCzSe0UjBDPuL+7VORXbtGvS712sR1rY+u8W7vMI3JZ7dw3yOTj8yOyU+mMfnsFq4WbSa/xunTpjH57Kb3H6wuEUqvHZOfTEPLwV7TbZeJtjtxoV/ZCvFZ328CjZOw7hPetmtrJ6Z7BJFaNALdL7vNtz9a7z4Cl42kttsfE1b6tqNjy/vOygno172f9Pk03oYRYrvbVD3dTu1aaFvpsx2PmHOFuEauWe4ts/Zv7YvWbxdaKA+x12+oQxbq/JMRkXyPQlm0tdC+gu0vklqCHUfjLHdaJLWY/GQak89urdJy2mmnyQodO3YELQczwlSu7ZRTTjlpHTI6qKlcGxGuFqpnqnuKuiPp9aVVU5Hy3HYcEzetjrKMTpowraWDqC/WdX1thNx/R6s+bbv0+jw0/GMyfm+ro31yO+++Ooobo2hkHdR5uZkC6ZexfZ9wd1D16GartvM7Lw4fmUTsz3scuX+1L1udW666GCmvrMO6V3pg/BO3eH1ksXiPglks24vb7cZNN930/9s7G/goqqv//xLU+spWglmQIDWS1CJEUEjlJVap1LaIRugjArG2FUSIvAhifVoIEHieqjRAgICIfbEGEJ+CUYoWsWINCH9QqUGpJhiroLDBqAFfUcj/njv37s7O3l02ZLPZl/Plc8jOPXdmfjs7s3Pm7r3n4vHHH8fPf/5z/PnPf8bAgQO99W+++Wb5hX/jjTdi1apVqKiowJ133onNmzfj/vvv99ZzGtHSx4V+eqesBfH4GVHqMXqgCKgjri9Zx69cXHPqGqBrzrV3tUzab/n+gBELxfWcNQQVdwp/bjYOv7QII/6ktZB/Dp7+B71/dZ2kWsdC7sd7XHz7kMvqOifksr6WqZzqnWLV8zsuDp+9TAYrftfoIrw0MgVbXzos9VDKqS7p4lngUK1vXcd17d1PEEvkazro+aLqmMq1NVUL3SCdPjIikseF3g+9L2cdMvNx8Z2jhE+LOE++lYH/Eg/I9JCsjVpu6e9LS5zbsSyRzxeTTxthKtcWq1qafr74jAhXC9Uz1U22zyj1q6++khUoBxu9DmaEqVwbJTU+UR0yyv9mKtdGhKtF545z+mVSclXnqwespOT9njmORsqJSGW/zEC6eN2otRwT9cWyfRtkhNz+N6Ju2/7yJ6vLd5yHfnf61/Ful8y7rW9wvLERjcfouIzF6snd8dq8fPyH3MdUPWRhhNgmfYm9/PLL4u8bWP3LQJ80mqWI8uvp/cjtq22pMtrPVZccxPobFmHRM6+h8ZKrcJu3fut8RsGstc6XM88809tf7bXXXsO9996LDRs24Je//KVsMaaW45/97GdYtGiRXM8OlVGLsl7faRSoUosJvb744otxxhlnyPVMWoLZiY4L9UelFF7x+BkdPXpU5pkMqCOuL1nHr1xcc+Lf8a9uQ8Z5QMPBt2Qdr3/Js3itoS3Oy7ofl3cFDv5nkSz3almyCBOF6eukbb8ZvmuJbPP9wqf3obZJ17m4dr370dcylaMt+s+0rS/s+QfUOk7fTGsyA/p+oX2femYnfPvb38b9m0egcVU/PCsKG49TPszleLdOaDsv09qfNP/r2qsliCXyNR30fFF1TOXamqqFBqw6fWREJI8LvR96X846ZObjMhH9zuuHieI14dOyCPmdu6CTarG1t9zSX/s9ym6JfL6YfNoIU7m2WNXS9PPFZ0S4WqieqW6yfUaptDJBXwj02mR2TH4yjclnt1D7ISPC1UL1THU1x48vwFY5aneivMkQ+iaFunfxF72u5fHbht6O3D7Vb6hEUVo5MPIQtpb6/Bq5XTJrSbxWOxSMfXwScqpKkL+Ubp6ErleNchVM9erVS/zNlHWcPrKMNTWy1Lsf7/atZYnM6bgTE8m/dBOqkINrxur6Pr16OZhF8jMy+ck0Jp/dIqmF6g0fPhzLly/3MwqCKWDJycnBrFmzZDD7zjvvqLX8oQuJprd0boOsrKwMDz74oHw9Y8YMrFu3TrYq08POli1b8Nxzz8myv/71r3j00Ufx0EMPySD7gQcekF00/vu//xt33XUXxo4dKwN0aqnOz8/Hj3/8Y/zgBz/A97//fbRt2xZdu3ZFp06dZLYJWqYWBNP7jrXPSJvJr/GVW+d3o+06Ipx+4C14ZBcDqzxw+1a9hsoi6zoSAYNMF0XfCd59qLr+u1LXodieLG9A5XTrWtRdJvpO0Ov4fNKmV4oSAb1f+pt6ClLnPoVRMp0WabR8xF39V6I6a5StlW+26lbVOp+RyUdmx+Qn05h8dgtXizaTX+P0adOYfHbT2w9Wlwil147JT6ah18Hek/aZyrURkdQSyliL2aKthbYVbHuR1BJsPxpnudMiqcXkJ9OYfHZrjhb/zhsJhk5wHpDE5toc4CD1UGwqenBCuIMZBN9bi0ndd6MkP9gghsgxb1R/uMTN1RqYUyxurC5OdO6AgtDBgwd7jQJPClppBrgVK1agZ8+eePHFF5Gbm6vW8OESx5N+WqUA1b4NbUOHDsX111/vfX3VVVfJgXmXX365HMR30003obCwEPfccw/+93//F8uWLZN9mv/+979j+/bteOutt2QWCWoRoJZsCnq7d++OAQMGyEF9FLjTXxoYSAH3n/70J9md44UXXpBz3b/00kt4/vnnZYs3dfX4y1/+IoP3JUuW4Pe//z3mzp2L3/72t5g6dSrGjx+PW2+9FSNHjpRaqXsIabfbddddJ9+Ls9xp9N5M5dpoG7StvLw8tGvXTh3NcCmTraguN3W8tUEj710N8Oyx/O7OjvNcDWyLjcE596Ii35ROi5iCHfSs683hWqT6EDMMwzDRJHED4q4jgiQ4t3I6Bh9lewImlIsbVjaGVBRifOlC34h0Iy4MGNEDuxcMD0xwHnEWonfXw3Lgj72lCnkFPGLXALWuUmC4ceNGuUyBW0lJiQxIqU/x9OnTZUBq53e/+50MMJsKPY1SloGPPvpIdnmora3FG2+8gVdeeQVbt26VLcd/+9vfZMsxDfijQHfx4sWYN2+ebDmmTBdTpkyRQextt90mp3CmVuSf/OQnAUE3dfcYM2aMDHzvu+8+Y9BNo8N10H3++efjkksukQ8CtA2n0SA1U7ndevToYSzXprdBLe8nw6RHKtEgHvQ2l6gCyhwxLQ+uGprhSvh3VsOVN9WW6cHyo7I8MIVVK/CdwUOAJ4YYtYxbW42C9EoUGYNlhmEYJlokcAtxjbFF5obtVstp3lxb2jXKQJFVEGb6mDLkz6NAcyquubgPZszsD+x+LmjA27BlAYYHzR+ZjQLZmmvTcrLp0kopp+NuPPegWiaWbUKVCN5zOYWTl7PPPtsvEKbsEQsWLJA/V2socKRWVWpppb8UmO7YsQMNDQ2yW0RrcvjwYTm44PTTT1clFvag+4MPPpBdPvbs2WMMusvLy2VgT8EytRzPmTMHM2fODDBKNxfMZzc6fqZybbQN2ha1wJO+JrMsH9nulcBwnXZNXMN15UjT1/eEvkhb5bFd08XIqSpCpu1XGVdesVyX+vha6aJ0qjTfNWhNDGClt6LzQX8v1P6KHoys7wyqp9Ou+U1bG4qacvQZfVAt2CjZjFkDRNxumhGMYRiGiSop7dq1a6TBP9RhmfpHmtCj9qjTMfWzMEGj9uhG/cUXX6gSMxdccAHee+89tRRIU7Tcfvvtsoz6bdoJpYVygObuTJMtx3YtlFu4YF+mX4tyvB4X1uLDroX66FIXCQoEqQ8vtQYTwbRQ94grr7xSrk+BFu0rFo7LU089JbtcUOAejFj8jKgVmlq2qQXbTiyfu/S9MBUlfsF1a2kxkchaonm+0PVN4zicRPq40EMhjTGgcQVO+Hwxk8xaonW+nEwsZSdRPqOE7kPcNL6FjJ+pliJl3tYknuQiIaDPlC543TXiRFCr6z//+U88++yzfi3IrQ1ppy4xDMMwDMNEhlSKuuULEaHTa5NRLjyC/pr8ZLQ+YfLZjVrdTOXaiHC1UD1T3VBapg5wI+8u67Vdy/KfdcGFnd1yBLk2GklOqbTcA6Z669ktVo+LyU+W7FqoHnUrcNaJt+NCgT0NAjT5tBHR0EIW7nHRn4HT3xpaTD4yp5blP8tG9s+W+9VpqhYaSHjOOecE+ImmaDFZax0Xk0VaC+3LpKkltATTRETyuOj35axDFo+fkclHxlrM/qZqodfB6kZSC9Uz1bVrCWWJ8hmldOrUycr/EyUowKSBRZFg9OjR8u/JDHQiIqmlubAWM3y+BDJhwgSZn3Lp0qWqpHUJ97jQ4Dr6DGhwYEsRi+duZmYmPv3007B+lWgpYvG4nIhoni/btm1D3759VWnLQdcsff9QVhgn8fgZRYNk1hKt84VjKYuk60NsJ1H6vRCsJXnOl4KCAnz3u9+VqdeCEYufUTz2ITbRVC2UXePIkSN4//33lcciFj+jZD1fuA+xP6zFTLS1cB9iH9HQYrVBMwwTN1B/Zu5DzDAMwzCRgwNihokzOCCOL+jnu48//lgtMbHI66+/rl4xDJOscEDMMHEG9UVt+oxvTGtB+atpMCcTu9CMkAzDJDccEDNMnMEtxAyTWFB+/HWz1IKCymor1NQvi7fZJpWx0oKGnEhK1Nf1vKbTh45Zg1qnT1htxSpU1FqvvRNFGXxkXi1ycppCPx8ZfUdZM0uOFz49CY7Gql+5ULws2SzqO6ZYJ+2OSW/oWBjL7FrEa+/xIuQxqMW6O9Qyw5wADogZJs6ggQc0sODcc89VJQzDJBQimCvIUq8Vh1+aI9OB0sNweY0qDEk1ykVdqp+WVo7qrCFYO1a50IDK6dpnWWb+SORnWq97lewQNXzrZ+ZvtdaqLJLLlJJUasn0zbKofWTnrapG1vDNoJjXSWHFVOS51EJYzERuVjWq63IwyC+wFtSU+7RMt2aQ1cF3aZ9sVNd4kHNty2UpYRKLuM8y0blzZzzxxBPKa6Fz2VGdUNBFRE+WwaD9kA5KcWWC8t2ddtppOHr0qJzEwQRriR0t+fn52LdvX0KMpF2/fr2cgrq6ulqV+BOL1zRlDaDZAn/3u98pj0Win7udOnXCl19+KVuw7MTrdRQtLVlZWbjxxhsxbNgw5bFoiXO3tbNMUGtn/z290PtXdB2VYlt9LjyVbuToWRJFgPzOd9Yg68YlUgvV1zOuavy0lG5F/UiIgLYvrAnOaZtDUFeUjZvbrMMbM7ujanom8pdJZwAX/OYZvDD121jvXZ9adX1TovsfF38fkZq6CC8dGoKDM0qAu6cA89S+xlWgdhpQVZcH98tuDEzdgv3DG206BdSyO9iDIhVsX/DHl7Gr21ak7cxFfZ8d3inb6RgUQATEV9+rtIyVOtwb6LhYx3BH2g7kir+vZAzExAieL8GI1vlCRDqWIpI9y0RcB8SUp5JusB999JHyWlAdsmDb0Jx11ln47LPP1FIg9J7o/QZ7z3SToJsA3USC3SRYS+xooRZVCsacXy6tce4G0xuulj//+c/yy3LrVqvlxkksXtM6IHZer4l+7rZt21bWdfYjbg0twYhFLd/+9rdlY0d5ebnyWNA+In3uxlJArIPd8s6+acNpCvG72yxqYkCcrTwW1avS5KRUp46ngLg/nI205NfbCxYQB7Ts1pSLALU6MCAWQe2hkSlYeV45LtirA2LaxlT5+t1bhX5vQOxoCicaKr0B8R9e/g/S/vAdsb4Oci1NAQHxmL+idm6OFeh324bazuVSzyI6Vq9moN+d0fuua+nzhYikFg6ILVLETaqRdhTqi46+DEkwCQ1Vh74wg71hzdlnny2T1AeDtZhhLWaSVcu0adNQVVWFjRs3qhJ/+DMy0xpaaAAktaw6dfFnZKY1tGzYsAGDBw9WpT4ireW+++7DypUrsXv3buW1mLlOBOT/zkP+13/BrpzX0GvobNzy0IsYgxW48vZH5esbDw7EsJmWFqp/aVUvDLX1O/bTMnMtdt0AVPQaitnSOxPrduUDT12Gm95ejufvuhj/LrkSY/2fNbyc/auH8fSEdviHd/1bsPzFKfjem/OlHv/jYvlyz5EVvbzzVG8MmzUKD/5zNPDQldhype/9SP27hZaUtdg5xK5TMGsddg08hPlXjoWoiYrKzlibN1q8to6Tft/0Ov9CaxXNkZ2WvpnrXsT566z3lzJ7HV7NqcJl4phG6nwJRrTOFyKSWkaMGCHLVq1aJf9qYvW4hKI5WuK6hZi1+GAtyaXlt7/9rRy48tBDD6kSf/gzMtMaWi666CLZInrw4EHlseDPyExraImNFuIKfH1DN28LKLUKWy3EImCsnYrUhZdg6FJLS3gtxPYuE9Y+hnhm4ZJ/DIpClwmt5TasoxbiDVXIEc8bJarVV+oPo8uE2DCKnc3SslV6UmALsf6MqFvG3DxHC3gNVp7XDxPj7NzlFmIf0dDCg+oYJg6h/qjnnXeeWmJimbfffjsgGGYYJxfeIALAVbbAUDNuEHJQhedXqOWTohS5WYBnX5AIuEVxIW+keAfzfAPwwqMQg3JceOfJXt7BenpwoH/WCn8Kr82Bi4JmPcBPfE+u3puF657gwXVMaDggZpg4hALi9PR0tcQwTNzzToVfi6/FDdhGrZ2uPMywpRejDBTZIx3pygLIRoGoS/Xr6wuQLYLEvMnKRUHqXO1T5khrZsKVVyzr+lKdOVOqmWmoLAnaGh0UehBwVeM1v3R0k7CjxoWca4MptYLo6p3+jxXTXqmBq8c1J3x/THLDATHDxCE0MI1biBkmMZh0RZrsN2ynLD8Tmfn/Fq+s9Gfe9GKy5bMIlQ1WPSMT+npbSL2msjNgxXBkOn1kqjuDpHysqGNvrS7zpmQj82mhbheWT3eX8Gep0UfvVwbnU68W23C0ipN20rIsX2rwPyrWurQ9+ut9T14sLQEPFmI/53Ud2sQWaibZ4ICYYeIQaqXhFuL4wOVy4cwzz1RLDBMhvpWBm2wtvDSmgFpu6W/ISTsYhjHCATHDxCHUQkxp5GjULRPbdOzYkSdRYU6SSejrbEGVlCG/U2d0tLXw0i9G1HJLfwO7XjAMcyI4IGaYOIVagrjbBMMwDMM0n5ROnTqZk761ENRacuDAAbXUurAWM6zFTKxpmTNnDhYuXIjXX39dlbYO/BmZ0VoyMzNlXsy6ujrliT78GZnRWrZt24a+ffuq0pZj6dKlePjhh/Hqq6+qEh/8GZlJZi3ROl9Gjx4t/9K+ToZE+YxS0tPTGym3GyUqDpb/jaA6lLctWNJkyiNHP99SfrdQ0DSm77//vloKhLWYYS1mklnL5MmT8cwzz+D5559XpT6S+bjEmhaaqY7qOvNnJvtxCUZraKE8r71791alPiKthXLKUu7wV155RXl98GdkJpm1ROt8GTNmjFx25rVPts8olQQQ5KTXJtMr0kZMfjJdx+SzG71ZU7k2grUEGsFaAo1IVi2U9ohmQTP5iWhqMZVrI5JZC/X3PnLkSICfiLaWYEYks5ZgmohIaqHXweryZ2S2ZNZCr6NxvtBrU11dx1nutET5jLgPMcPEKfQTPGeaYBiGYZjmwwExw8QpPKiOYRiGYSJDSrt27RrjZZ5pgrWwFjvJrOX888/HL3/5S4wdO1aV+ojV43L99derUh8pKSlyP1SHfu4yQXpJz9GjR1WJmfbt2+PDDz9US4GcdtppUkew99wSWmgCAzrOn3zyifJYtIaWYMSqlg8++ED277XTEufurl270KtXL1XqI9LX0YoVK2S/UOd7Ivi7zkwya4nW+XL77bfLsgcffFD+1STbZ8QBMWsJgLWYiTUtVPf3v/89hg4dqkp9xOJx6dmzJ5YsWYKNGzcqjw8KuIIFWgT5iVB1CHpfwd4PEc52Iq2FBoJQXaeu1tASjFjUQg8SFDwPGzZMLmta4tzlgNgf1mIm2lo4IPYRDS0cELOWAFiLmVjT8vHHH+Ppp59GXl6eKvURi8eFAmJqzdYjmhkmFJT1wXS+tMS5ywGxP6zFTLS1cEDsIxpahA6rGzE9ldNrk9kx+ck0Jp/dQu2HjGAtgUawlkAjklXLZ599JlsfzznnnAA/EWvHRRvDhIvp3LLj9GnTmHx209sPVpcwadBmx+Qn09BrfQ0462ifqVwbEUktoYy1mC3aWmhbwbYXSS3B9qNxljstklpMfjKNyWe35miJ+sQcHTp0wMGDB9VS68JazLAWM7GoZc2aNbjnnnvw7rvvKk/0Cfe4XHbZZbLPs04Cf8UVV+D73/++fG3i//2//4ft27erJSbZoBbi8ePHo7CwUJVEHn3uxsLEHPxdZyaZtUTrfGnuxByJ8hmltG/fvpGaqqn5mHLABUM3ZweDomtqzg5Vh+jcuTP27dunlgJhLWZYi5lk10I/p9GX2M6dO5XHIhaPi+4yob98KRi+867foqM7DY3iX4r4p/nAU4+yBf8jg2ImOaGA+I477vD+nGsn0ucuTXxw+eWXq1Ifkb6OaOIDumZNEy3wd52ZZNYSrfNFD8ymfdlJts8oVffXoIEQ9Npkdkx+Mo3JZ7dQ+yEjWEugEawl0Ihk1kK5iGngkdNPxNpx0aahn62IzC4dcVGX8+VfbeTSfiZ5MZ1bdpw+bRqTz256+8HqEiYN2uyY/GQaeq2vAWedBS8dwtqZ/uVUtnfdOO/yvBf2y5YvSrd46NBWLBBl49btVcuW7d+/33q9dx3GqW34/HuxViWkOX58HNbttfss21pK+xqHB//5T6wb69Oi61v+4xj7+B6bFmVqn+S349uGv2lMPruFOv5kRCQ/o1AWbS20rWDbi6SWYPvROMudFkktJj+ZxuSzW3O0+HfeYBgmrqAbUbzmIqYn9K+/OYZHHvkL/vznR6y/j1h/v/n6WMjWBIZJaBZvQ0GWeo1CVNTWYwRWy8wbaWlpSFsFFNRvQ3Z+prWcVoTKBqBmTYb8PkjLzEf29noUpFeiSPppHQ8GFFdjjW2MYkNlkVqf/NXIHrkNpcpnp7BiKvJcamFcBSb1A7YUKS1qXYaJdzggZpg4hgLieJ2t7tix4yIg/lr2g56/YD7mzy8RNl8uUzn5WxURlNTX19usFhXjlI9hWoxSbBsJVFKES4wbhBxXNVZfNc1aJib0RdH0HagOdj6KoHVIVgMq5+WjTBXROitrXOg/ap4qcDBBbA9udHFuU2xrak4VKmvUcjc32sKDd/1/XWeYuCeu065R5+mpU6fi008/VV4LqkMWbBuas88+O2BdO/SedFO6CfpJl0b5U0sWNcGbYC2xo+Wss85CSUmJTPZvpzXO3WB6m6pl0KBB+NGPfoRp02w3S0EsXtPOtGuXXtoTYwqn4eLMTmLJfp6k4K3a9/FQ2Ty89tq/VFn0Kd1ej9ydaeg7wVourKjFVJQgM98bYjAtSDKlXaNzrf+eXuj9q/e85115Z+t8KxH/F4uAdM4lI7AkqBZqRS5Gh79noN+dQkvpVtSLoLo8rS8mqRrEKUu2wTP4EIou3IhBon5OVZHvfKYHQLlOObL/Mw1f3f8d5C+j7U4F5mXi3VvV9bCnAu/MvRRVRVm4oUxpoXUHe1CUaQXgrfH9EkvfdS19vhCR1MJp1yziOiCmD7F79+549tlnlZdhgkPB4xtvvJFQFz0FmZMnT8YvfvEL5bGIxWvaGRB3794Dt427GxdmtLfiYeoyrP6+s/9D/GHZ7/H667upaivgCwTyl1kl9gCZguNi/RtyTTnSrhBhBwUFfTyoTM+TPy/Tz9HrOxRbP303VFrBwrgK1M7Ng7VmtTdgKd1eiy4HPcjLy6bKqJxu7dcvKKd1xXNPSeYmEczYtMn97pAaqL73p3ali7QWoAruPGu/1at8QX4sk5QB8WdrvJ+l9wFsX4EMNlsiIPZ2g1BY50YhnlEB8aZrfQ+B9nNx8vp3MKNfW7WWQp/j4mVrfL/E0nddS58vRCS1cEBsEfcBMeH8EBnGBI1YJxLpoqfpmynLxE9/+lPlsYjFa9oZEH/ve91w063BI7PHH1mMf/97j1qKNqXYVl8ACk813kDSFoASOlCgFr3iPFjBbDdqbctW69C2hsAzfT3cc3OxQwcp3u3A2pctgC3usF6V++r7Wqizsa22C8pV8EH7H3KwyAqcvLooQCrAu5nl6EKBD1Sw4mjJi2WSLyCuwNc3dAv8vDcOEg9RbjydMRCTbVq8n7ts4XUExGPXiXVyUKUerDSLxDqjUlYj7fv/lvX9Woi9qIB4/b+QM5gewHznmQ6Iz5j4FN6Y2d23fcd51RrfL7H0XdfS5wsRSS0cEFuk0k7kCyGIXpuMfnIm6K/JT0brEyaf3egnbFO5NiJcLXqfDBMupnOrNc5dk5+sqVpotjrqQ+z0E9HWEswI2hbti+pqKNidfe+4oNZ6wbBgXBe4qcVLDxoStqNPPbYtFoHHYBEmZ4ngU/UttlpkCzEoxyUCYCtAKOzsli3EVsuu2BY8OPPaISLAzkaB7pMsAmaJ3pcKsMs2VkH2HpXlHujhStkdXPDsE+HG4lxku/JQ7N1/A6o2ivIJfVEOrUu3/mXD7ar2Bs9WP9H4wXRutcS5G+wcJiJ5HenrwFmHrooLb8gHVudhqipLpcIUse8V/8DuhmyMeGGeT8sSGnRXjb/9bLnaRqo3aaHc/oqf4W81LuRNexIT1PZonVHiXNm6cpqvPm1f+71GvnOQNzIHu0t+huWq3KpPrxdh88z+qHvsYvxshVrHclJAIZebelxCWbjfLyYfWTxrodfB6kZSC9Uz1bVrCWWJ8hmlUsRNkBB6bTKqSNBfk59MvyGTz26h9kNGhKtF71MzadIkzJn3YFBjGNO51RrnrslP1lQtBPWxdrvdfn4i2lqCGUF19D7jgcJrc4CqTX6tqNUHG+DufIMVYNoCZbK+E6zAc4dq8PYGr0Q3N1w1O/BvUUYtxvb1ZGuu8Nv3Jfd9sNqhoRS5IgCi7VOw7d3O9EoRPHvw7jJqhbZa8LzlFExTUC32bYXaAgqm6971e1+xDN24nOdTS11HTp8uD3V+N1WLvhE768jg9z9PYuA023qiMCWV9v0wbr5kDramj8CBAwfg8XjgGZGC1RkD8WvvNuhhU+7Gu/1fX52BOW/kYBbVl+t0wNbZl2D4CtJi1be279un3hZx+KVFuPmPvnLSmJJ6J9bVjELW3tW4+m7butKZgjZquanHJZSFOv5kRCQ/o1AWbS3BzheySGqheqa6di2hLJJaTH6yaGhJqC4TFBAPyb8J57vT5LKd9c9tx68n+vezZJKLROwyQTz22GOYNWsW3nzzTblMxOI17ewyEcvYfx620N0eSoBpxXBvsHWfoJ+KN7hR7O2uQHV9XR30tmSXCtkVQteh7WXKfpqmcu8gJrEf2oZMoRWs//AjXVT/Yt/P2wUoR9rOXNtP2dbP6l7tMU4ydZkgYvX7xQRrMROv5wt3mbCw2qATjNNPP00c3FPlX20Iku2AYeKdeM5FHJsUoks6kD1SdW2QVgDI7hBlyJ9XCbf2qWAT1EXioOqM4NfVgbbVAM8eoCy/BJXpukuDFfTSKP5BOUDlQRG4+u3HapHWGoaIbTTI1mJqiaYWYblxq2sG7XdZPtbX+bpR5Kq9l/bJRnUVMFWWW31G4yEYZhiGiTYJFRAfPfo1vvzyK9xyyy34+c9/Lv+S/e53vxNPHRwQM4lJPOcijk1E0Jupuh7YzBtIiuAzU5erFtmy/Ezf4CTy6z67cluqNddvu7pMBbj5fQP2Q9vUZZliG9b2J6GvLXOAfb+TrtDbFtu4QmzvimorGN/o0xs4gIphGIYhEiwgPoovvvwS33xzzM++EoFysGb4qEI/b6oWHJ+ZZwZimHCh6Zu5hThOcQyciyz+rckMwzBMcBKyhbh4zv+guFgY/RU2atQtMREQ08+XflNl6oEvys8wJwN3mYhj/FqTI41/azLDMAwTnIQKiL86elQExF/i448P4+NPhNFfZa0fEFt9CWV6JIVvFLk1QtxqMbZND0uJ+P1ak4XvUSrTdWg9q4WZBtHU11ZgVUUtaisKyUmlXr//tnyt0pTrUm9fr0dltRUVXk0y1VStWnc7rUnLPI1trMBdJhiGYRimeSRcC/Hb736Af/27NsC++OIzVauVkPPR+/98aaVmggguaSCNajVe5UHetAoRcgpkuqZy1aJcjmpKr3RLPjJFnZxrRQ1KoVSzA9UigKUE7dSf8VAHEWProJv8sgVaBMYySbu1j6JKNwoosF28TU4JauVaLYcnr0AGyqTLlefGDlmXBvbQqHZRh1q0s3JFnWy4UYVN/FNsTMBdJhiGYRimeSRUQFzxxF9x36ypQa1VUblIfT9fqryiKEBeXblvwA4lzne5RchpdbGo3qnWUMGvXJrQV04JKxP7ZxV4p9a0tulC3lzVmiv8NDIdFUPgrixRg3hgJf5P74+dg92onKd/rtU/r9I2aOpY66dWCo71ZAPyPVCA7ZgYwNcizbQG3GWCYRiGYZpHSs+ePRspv9uxY8fQGCQ1Gc38QXniqNtBqDqU7DhYnjnN2WefLScSCEZTtIwYMQKffPJJQO682IO6GNhyhxLUhWEasL0qB1d4A1pfeYkj36hv2tYy72sKinN3lgMjVc5TWvfWd5Ep85n6co7SDFt+OVVl7tJUVGcd9+ZK9eLdPwXK/rr1fkvE//Yg3J5zNZahPMTf/va3sWrVKlVi0RrnbqSvo6eeegpDhw71rheL13T37t0xbNgw/OpXv1IehgkO5SGm3PK//e1vVYlFS5y7GzZswODBg1Wpj0hfR/fddx9WrlyJ3bt3K6+PWP5+ccJazMTr+UKxFJGI90YnobQk1MQcMYtOni8DVQtvgLuvwJw4f48ITOe6sV4GmrbAtJveFryBKGyJ/02BKnWpCEz8TxMM+IJd6oNM3S78gl1jcOy/nn+d2CZRJ+Ygnn76aYwePRoffPCBXI7Fa/qaa67B3LlzZfDhhL7sgn0RasKpo79Ug0HbIEJtJ9Ja6Euc6jp1RWo/TdESjFjUcuGFF0Lcn3Ddddcpj0VLnLs8MYc/rMVMtLXwxBw+oqGFA+IWhgLf4jyXWnJCU8BaAW1BllVCWSgyNw4SwXAeQK/twa14eCvQwbM9EFUBdzkKfC3BAcFsMbQMmvZV1qH1qNsFQX2VRcCsZ9Xy+gNm39qB3PoC2aXDgrpXqOA4xknkgPiRRx7B/Pnz8dprr8nlWLymaaa64uLigONPARDth+oEC6ZIL+mh1IqhaN++PT788EO1FMhpp50mj0mw99wSWjp16iSP4UcffaQ8Fq2hJRixqIUC4gEDBshfFey0xLnLAbE/rMVMtLVwQOwjGlo4IG5h/AJMO3HUspooJHJAPG/ePDz77LPYtGmTXI7FazrY1M2x+v0SKS0XX3wxjhw5gvfff195LGLxM0rW84UDYn9Yi5loa+GA2Ec0tCTUoLrYwzdtawA0QK3uXQ6GmYjAA+tilwMHDuDjjz9WSwzDMEwswgFxi2KfttXBBJpaNdaHoTHxAucijl0aGhrw+eefqyWGYRgmFuGAmGESAM5FzDAMwzAnDwfEDJMAcJcJhmEYhjl5Ujp16hQ6R06E6dixo+xTFwkozRR1jo7lQXVM7ECD6qhT/sMPP6xKmkYkz93m4tTSpUsXPPDAAxg+fLgqiR7hHpfLLrtMXrPjx49XJZEnFj8jGuRBXSZCZVZoaWL53A1GNM+Xbdu2oW/fvqq05Vi6dKn8/nn11VdViY94/IyiQTJridb5QtcZkYj3xqaQkp6e3khBAiUqDja6j6A6NCovVModyrdJAWooKAWRc7S1naZoodHHVI8DYiYcKCCm8/Shhx5SJRatce5G+jo666yz8Mwzz+DKK6+Uy62pxYnWQqP4aTQzZQ7wY+xa1NydggXZw7BUaxFl1cXp+Js7D1MwDmurZ2GAPXthwxbMEvWd3fMtLdcH1kcDthRl4+Y/nooHXtiPkV1VsZdqrFwNjBrhSyjoI7iverUbeaiEx+kT+hZcPRH3TXsMnn7V6HnDdN+X9EJR/6d1mHPJZlz9xgz02D0L2cP0O7Hea/rTYruT1Wd022N4a/YAeGhfokwij88A+Cd0FDrl8SLUMatbCfeAKTF97jo54fkiiLQWGsVPE4E4ifRxefzxx2WZaZAljX4PNYKethNKBxGpOqzFTLS10DlJ18Arr7yiPD4ieU3rTC6JeG90EkpLXKddW7RokUz2//bbbyuvBeXMJIIdWA0dXDowwTjRdrSfOFEd1uJPa2jJzMzEc889hzvvvFOVWCRKapktW7bgxz/+sZylJxav6aBptMZX4O1pqSi5KB9LpBadN9vK000T0zxZW4B9lwzEnaQlRMpCS8sQuX5Olc7jrfKBd1iPjKvvxf2b92MUrLzbTvRxoTrXHfStb+XshtQz1XlcbD5ri5b+ntXz8Z2a61Df/y3kDPmt+pKmfN4FyG6oFAHxC1ZAbNOp16XJefpPsrTc9tgbmOL2CN8ONQulgI7B3BzsVkE+aaEUjwX6fclj5IZcK7MvSmL83LVzwvOlBbREK+2aKejWuN3i8/LQJ2aG9kM6gn0f0ncd5XCmPNDBvg/p+5T0kN5QsBYzraHFlHKNCPc6Cufc5bRrFnGfh9jlcuHRRx9VXgs6oUjLl19+qUrMnOhJ4vTTT5dagp3cpEWf3MGOC2uJHS2jRo2SI/4T9aJft24d7r77btTW1sbkF1C4AbE1i2MVPHluNSV4vAXEan8Zm5G2rRvq+/0blwz+DQ4ePGjlJT9YCXcOsCisgHgiVr8x0TxDpCMgljrUxD1iI3LGST3z5FUT18f0uWvnhOdLC2iJVkAcinCPC2vxh7WYaYoWDogt4n5QHQU4NF2t3einSTJnudPoSc9Uri2c7YTjZy2B1hpa6FxJZBJiYJ0I9KbmVKEk/11VQGQjPdhkjyFw5RWjvr5eWrHYZpE9AM4q8Pqk1VaIUPREZKNA1KVzcv/+/WK9WlSMUy4/CjEox4UjH9Zai18fkcEwBazUgtt3o1Wsseusr/fNKCkZMxA5dX8TQXAZNlUBOdcGV1naJxuQuc1p/x6sF0F22UZaaRBuUXUYhmEYM5xlgmEShPjPRTweFdNyUDXPMHtjQx32qpfhQtOgp6WlSSuqykGxCHq9vVFpqnLlkxbWjJHUhSNN/myakZEh1rPnGLeCZW9Qi0qsuN3+y1UptlErsqFV2q4zLa0IlbbntrGDesCz0+o4rINbX0jswoBiHZzT9O9Cn+wuMUgE0Tus1uplm1CFHAwokCswDMMwQeCAmGEShHjPRZz9xBTkVJUETmSzOBfZde9iuVo8GSiYbHC5ETCWLmJYwbI9wPYLh7eLiHSVr0tFeCzEzf3aInvkISvQnpsHlysHg7yt0jRQUAfntF9r+6W3inreFnBqcXbhe1dyGzHDMEwoOCBmmAQhrrtMtO2PUT2oq0RgOy11Bah+2cqdcLIUXpsDV4Onya3MEUEEpwUpj6HvBLUcLqV9kHV4K2aKz1QH2kWVQN6tpaqCiVLkZjWgcrotOJ8uVupzo/AwDMMwwUilzswEjX6k1yazY/KTaUw+u4XaDxkRrhaqZ6qrcZY7LZJaTH4yjclnN9ZitkhqoXqmuhpnudMiqcXkJ9OYfHYz7Yfy3NLP+fSaaE0tdiOojjaTHziMyt8PxTJvuZUdpNuTtSjIArJH+LoGWC2leZj65J1+2yGztm+t69eHOA9y+9TKLKoE9iEWtm2x/3Ghit5tywJnH2Kx3vZF3laFFJsOrxbp+Q+eGPY7n8+X+MTC75hoZyoWigeBw68/j6W0pPzLnq1CQ1YuFjm24V2fWtMbqvDccr09Ycufw5tHLkSueH/eMocRps9Gmx2Tn0xj8tkt1H7ICKqjzeTXOH3aNCaf3fT2g9UlQum1Y/KTaUw+u4XaDxnBWgKNYC2BRoSrheqZ6mqc5U6LpBaTn0xj8tmtOVqiPjFHhw4drAEmEaC5yaQjqaW5sBYzfL6YMWnp3r07Jk+e7H2f0SLc43IyEy2MfXwPJqEU3W5ydJgo2Yw9nR8LKI/Fz4jS/VEqPOrS0lrE+rlrIhoTc2gt0ZqYIxTx+BlFA9ZiJpJaOJaySGnfvn0jpbugFBTBUlcROiVGMCi6ppQYoeoQnTt3xr59+9RSIE3RohO2L1/uf1NMXbQVnj6v4Ly+E1WJoHQrDg32YGbXoViKhdh6aBT8UunXrMR5/XTWews/LbT+SP/k+9WrzsPAe9RxcfgbtsxE1xuXWsdl/Dq8MbO/fxJ9sb+VGIVR9PPmjK6YtEEcl8Gl2Hs3MF9qFKhtNngOweX+BKs65GGSPi5+70dwxzq8PScPbaVT4Hw/wr9X+LUGS1924HFQVK+aCc/gKcDvu2KoNxPLeKzbOxsd/p6BvEkJdL60gpZgNEcLfRH88Y9/xE9/+tNW12JHa9FptHSKHzvBtIx/Yi+mYD6yhz3or0Wc/++L8/e0M6xFPxoqfdeFg9Y4Lt/97ndx5MgRmenETmtoCUYsajmZ80XTVC008cHll1+uSn3E4nFhLf6wFjNN0ZLo90Y7obSk6pxvlCSaXpvMjslPpjH57BZqP2REuFqonqmuxle2AFtVsNoolxvlTXN+r15WH7tV1eSx1bdM1tfbF6/to8HLa6TbQgaublu/vXJ4BszG3nW2nExif0VqXb2/iVeI19OrkHP3OhTQflRbvaWRNFNu0zRk/sOa1cjvvcoSVXesFex61mTIPqRypHr6KBx6aYFVl/TNoZylegBOEap6kL630NeuSWmkfJx9J3jFePc5bt0Ub0qocD8jk59MY/LZLdR+yIhwtVA9U12Ns9xpkdRi8pNpTD67mfZDP+XT50+vidbUYjeC6mgz+TVO35IbMpF5wxLltfkn9EXHDHXu2ozOXRrQRvmM7dvRRkT7uFAg/NFHHwX4iWhrCWZErGnRZvJrnD5tGpPPbnr7weoSofTaMfnJNCaf3ULth4xgLYFGsJZAI8LVQvVMdTXOcqdFUovJT6Yx+ezWHC3+nTcSFDnCu7ISLZOFdizWDc4WsaR9dPwk9BUBpiuvAPNVSVCW5WN9XR5unKWWFYUVQ+CuLA9rVLocVV6zEldPVQUoQ/488X6zhsg8qTQoifQN8z78kb8I6x35UEOi8sNW2h8EmJiCnnhpStj27durEiYWoPzXn3/+uVpiGIZhYpHED4hNyfDHdYFbvQyXws7B1ugKtwvw7HOMjp+wA9ViL10Cp+EPYNIVaXgtZ5d3sFBxfb2cXco3exWRhVEej28QkLd7RiG6pIubrodanW1Q/tEGF9zdaNS5Qd+yMkwSFh6F3vyw9ukSmNgjISbnYBiGYZgok+ABcfBk+DSjk/+EzycmIKiMEDSdaz4qZHqkBtltoQhVOcWorbDPSlWDlW637+dh2e0iHKrhaWbTeGHFVHN+WCbmoIFb8T05B8MwDMNEn4QOiIMlw6ecpDgYbkBJ0FSoIiDeoxb92CsDTndnx5SqlP4IHrzr30c9EGrBzqpGxdDZqoAoQ35mOTx5BWHkDi3Du3WAy+0YGkezVbkahGbLH6BvXAVq67edePvd9FS6LfMwwEQWbiGOPS666CI54JFhGIaJXRI3IO46wuoqEZAM3wpuqzY2IcCj4BJV2GRsIV2OoRuov/BU2V/Xglqmqd9uOWoWzvdNFxtAISpk/+Ny2MNhC+qHDBRsP3FIPOkR6i88CptLVIHs4kD9itfLVt1JOy19a71CLD9O2EfZhbyRQabSZWKS+J++OfGgkdFt2rRRSwzDMEwsknrKKadYL1JTQa9Npr/M6a/JT0brEyaf3SghsqlcGxGuFqpnqpsq9iG7GAyY6iuXCe9TkL/dmso0b249du3a5euPm1WAbUv8t0Okpi7ANlvfXt2HV04WMPIlzBN12ky5Eu6i3cgR27T8BXBvmYXsny3H8pRczJjZH9j9DyzX25ZJ9VMw4cmpyMMWLBD15HFRGsWHYtW7axW2pAtdV1B94bG/V7UNWXfFz/DdDiJ6Hr5fBkRyuta6lXDr939XHtyrPRhQrCcUKEbObkufaXvWZ5QqloCGLQvwsxWqDvmomiChzpdW0GLykzVXC51/NDkH0dpatBG0Lf0ZOP2tocXkI2sJLfTXtE8i2lqCGRFrWmhfJk0toSWYJiLWjovJR8ZazH7WYvbbtVA9U93W0GLyk0VDS9Qn5ujYsSMOHDiglprHySSTnvfCfvR+JUNmZLBroQkAbt7XzZapQTMPm/f3xssZV2OaKrEYizV7bsZ73ZzlJ0ckj0tzSVQtzU0+Hg/HpV+/fviv//ov3HXXXaqk5Qn3uERjooVY/IwuuOACmWWCZhJsLeLh3HUSzfMlFibmiMfPKBqwFjOR1JIM98ZwSGnXrl3jGWecga+//lomKzZB0bROmky52kxQdE0/DX7xxReqxAzdHN577z21FEhTtOiE7Q8+6J05QhJKCw1gy92ZJrtS2LUUVryPe79/Os48TS46aEB5Wqaje0EhKmoLsP+SgZgYY8eFtfho7vliJx6OS3Z2NubOnYtbb7015j4jPdHCmDFjlMeCz13WYifU+bJixQrMnj1b/hJCWiJ1TdOvhZTD2gl/RmZYi5l41ZIM90ZNKC1WG3QSQSnOAvsVA2X5ndC5o3+Sf5rEgn5+TgsIhokyDO3aPyKtwwwTKXhQHZPInH/++eoVwzBMZEm6gJhhEhmamOOss87CaacZf+pgGIZhGMYAB8QMk2BQLmJuJY4dXC4XzjzzTLXEMAzDxCJJ14fYTqL2B2ItPpLxfPnTn/6E5cuX4+WXX46pzyhZ+xBffPHFOHLkCN5//33lsYjX6yia58sf/vAHmRlHc8kll2Dv3r3S39jY6M2ocvDgQflXQyPNyYJp1ej3RO/7hhtuUKU+In1caLDrjTfeKM8HJ1SH9hUM2he9ZzIT+j2HU+dEx4W1mIm2FvpbVFQkv8udRPKa5ljKggPiBPgQCdbC54vmgQceQGVlJZ555pmY+oyCBsTjK/D2nDy0Vcs+qlGeZk2sQ1oWbvVgxHmVKMr05cW2D5IlSMuQRS+oqc+BitqpwLxM7yyLZ5wxGY+9MQPpG8Q62GabAt1HzZoM9Dv2PA7RLJdq/5LFov5gD57dnYMfDXCpQhs0y+QGN4r77EDaFZO8x8UbEN/7V9QrH8HXtBn7+TJ58mTcc889ygM88sgjuPfee2XXoKNHj2LkSPEhCcrLy+VfDaVvIi1ffvmlKjHTqVMn74PKBx98IP/aifRxIZ1kVVVVysswwaHv8oULF3JALIiGFu4ywTAJRlx2mTi8FTOFZt+g1nIRDtuZj95da1Bdl4NB3glwms7YxyfBP5aloNs3kJaOW2DqRX9eGpYtB9ympRWhskFsYZVa3xaoM5GBbn4UqGqjINjj8ci0SrR8+PBhafY6ZOTXdUIZbUu/jgb0fij9nl0DG1swO1Hwx0QWDogZJsGgTBPt27dXSwnCwj7I2vsy+u70IO/WE8/eaGRcBSZ1340tNWo5SlBgRi2aDMMwTOyS0rNnz0Zqij527FjIPi3UpE1N2aHq0M9UwZrENWeffTY+/fRTtRRIU7SMGDFClq1atUr+1bSGllg6LqzFh11LspwvV111Fb7//e/Ln9ti6TPq3r07Ro0aJX/ytpNS8BD+eTvw8A/G4i9eLTOxbteleK3XUDmt+cwnXkSnJwbi9r/81r983S5cWtULQ2fJlaSWG+c/jTFYgSvFNpe/OAZ46EqMLb9Fvk55eCDev3EnLn1NrIN12HXDhdaKXo5g5/yrMbbr/+HV650+wZEdWPCDO7BKHpcRYptTcN7zvv1jlmGbYp35V47Fo+TLeQ29hloTtfM1bSbU+fLHP/4Rv/nNb+RDXzxe0//zP/+D0tJS70/gc+Y9iNNOO12+9iMFOPrVl5gx7Q5VwCQjdL6vXbsWu3fvViU+InnucixlwX2IE6DfC8Fa+HzR9O7dG4WFhbKvbix9RiH7EE9LRclF+Vji1VKKbfW52CH78IrXtd/BmktuxkKhxd5vONw+xJuurZVll4z4I+7fvB99aB3Zh9i/n7D3uDwQvA/xrOyf4WF5XH4ltl8MN/VH1rnNqY6jDzFpHHKwCJn7CrgPsaDZ50scHxeaWEQPeCXmioB46OCrcPrp/mkSv/zyKNZteAHTOSBOapzni51InrscS1lwlwmGSTASbXKOwoohyHYNwIz9++UMZQVZQHafJnSb6FaBqTlVKMlvnR6+k3ZWw9UhcPAew1Ar1bHjx8TN+ZhstfL+DdGaxjBMy8ABMcMkGDSoLnH6EBdiUI4L1avdaiCbGnCXNQQVYQ2ucyFvZA6q5rXegLc/9svGkY9jY55/Jrag1rA333wLl19+GS677DLv37feeitoSxnDMC0DB8QMk2DQT0r0c1DbtoGJzOKOcYOQ46rGzslqWTIJO2pcyLm2UC5lj6yXLcdku3btQnGeC668YmxbLN1oqCzxpl0LJBsFal0yal3f/8I85TtJsgq8WujvDe1fwUOjH1VOhvFxTAS9n3/+BW6//Q7cPlYY/RVGZeSLeaiLkO36sWwbTnLYK8O0KhwQM0wCElfdJh4cim7dhmOpWrSYhL7Uf3dZPjLF3ymqVDPpijRk5pfJvzplGlmvXr3k33KZSaIM+ZlWPTtTBritPr8T+vqtS0bHLOOqaWIH/cWyrf8wQfUz8+GLra3te/sPE7Ztai39r52IR7RP9R9mGIJagb99bjv88JpB+OEPfyRM/BWvqSweWohL+2SLB84i7zmfNr0SDQ0eR8pEhokPEjMgXliJ/fs3+z+l0pNsbQWsNiWiEMtf3IX67f7PsoUVtd4nXdrGfFVOA2P8n4LrsdW+6rgK1Ioy3SolEWXVnmqssY8JkfXUEzRpcuzfp7MQFbW+fdFsTZQz0/89MIwZynWaSP2I4xkawEH9QhnGyfFjx3Gw7mPs++BDYYew74Aw8fpg3UfSF9sUokt6A6o2+h44C6/NAao2iUdFun/V+ro1ee91NFjWd1/T90v7fdd7T/S7P9q2p+61Vn11L/Urs+2XYZpA8rYQjxuE7+EdVKfn+gJncQEW51ShSD3tZqwBRm3RIbGgptz3JLyqGtmD12GscskvgppquJsy2CcA8WXhmDlLP31T/0m3283J/5mwSLSBdU2FWo79Wm5bkbfffjtgamGGIfa/W4MdO1+22Svev+SLaWR3Jg/etXVHyu7ggmefuEORD1XYpHzUkly9cxJKtxcAeiKb6ZXqflmI7H0l6t5ahEp1Ty7s7JbrSLz7EvfIuWLL061tFFW6USCD5k0oketTGeDuZq3GME0hpVOnTlEdytqxY0eZqD4SjB49Wv59+OGH5V8vJZuxfziwOuNqTFNFsuwndZjTbTiWi8Wxj+/B5NP+hIVHfwlK69TtJip1QOtc/rL8CXXeC/sxAqutn1O1z7u9sVizR1y4C8SFeRf97YbhK0SdMWuwZ2YP7J6tlglZlo4NpM22fTouU1bvRO+6rXB3F18g3Z7HwD0z0OP1OWZtLUgkP6PmEpXzJUzi6bjccccdctraP//5z6qk5Qj3uNBgIfoMxo8fr0oiT6Keu80lHrUk4vlSVlaGpUuXGtNoxR3UgmtLI2i1/qpUiX4+at3VU6hTnQJ4m32okclbpxh5NIskTYGeuQmD9LJG1C06OESlVFTNQtQyLG7JJdRQRPscaXXhcHaTilfoXvWnP/0Jr776qirxEclzN5nujaFIpZ/zCPpJj14HM4IG6ph8ZPonQZPPbuHsJ1wtVM9U95gM8bMwYv9+2dVA2vAsynGDY7LOaFx9yUH84/ZHsOTvVWi85GqMtm9j3vPWOiLgnZ03RZYdp212HWHbXiNWZg2VwfU3t12N7p71GLp0CTZVNaL7D0db2xFCGtEW/Weqdchm9hcljThOftpo43FZ99iMxzGicSUG/F2sI3VS2h2gbb8ZvnXJNt/v0+kwItY+I5OPrDW0UD1T3dbQYvKRRUoLdZmg1hKTTxsRzc+I9kX9IoPVibXzxeQjYy1mf6S1JOL5kjiZI0QAO9iNykd0MCwY1wVu1X9Ytwhb5aq1uJsIWGXArFtyG9BwsFp1l6CA2Sq3fgXNhti699daGhNAdb0t0Jpubrjq3rV+NZX998vhySvw/eqbAAQ7tyJ57lI9U137uRvKIqnF5COLhpZUEkDQhUqvTaYvYtqIyU+m65h8dqNgz1SujQhXC7021T0u8zfWoFxdTNJW0WUqAlGqM+aH6FG3A7NJS9mz4lLtgR+OsW3jTmtgTMYCYPKBf6JElMkY26/LBDDKUwkajz52UA94dk6U6y4WATZ6/BBjaTsyim7A1tk6XZQwGnRASsgvN0rHowRrrwfKrxDbkOuQzuNynwFdJqgOresw+3Ex+cl0HZPPbpH8jEx+stbQQq9NdVtDi8lPFikt1GWCUq+ZfGTR1ELQtvRn4PS3hhaTj6wltJx11lk47bTTAvxEtLUEMyLWtCTi+UL7SwgWFyCvbr1f9hZ7/2HqW+zZI0tRMS1PBq3o7Bb3s3I1ULUUBXlWcEtBbvUqaj0WxdTiS+NkFuciWwe6anvUV7n6YIMtBzl1MRRhc00Xax1VmkjQ+RLs3IrkuUuvTXXt524oi/Z1FMqaoyUp+xCX3iou0KwClRaJfpbxpXDyY8Xz2N3gRhdTB/0JO8STsBsXjJmHUQNcvtRPc8W2XTkY1IRO/bJf1ZND/Ue0M0wz4EF1sQP9hHfuueeqJYaJb2SLLo11UekFtVnpDql1tgzv1rmQN5fKp0KEybK1uCx/PTx5xap+LrVZSSZdUQ54759WznAZPB/UuSqy4VZ9lcvyS1CZrvdL/ZFFIH1LPtbX5aHYW+bIDsMwYZKEAXEpcrMaUDndlxaJWm1BFzL1QbI/aY4ZiB6OQQNe6AkWHrx3cW9kU58n3QIsjDr1590a5o824kulAOUYOkstM0wESPZBdQzDtAxWi67vfuc1W8o1XzrETGR6UxNSKkVd3hd9vQNf7eVWS3FZvljP2w9YpWCUr61Uh3qfeuCsPf1irAymZeKP5AuIKZBt8I1+lSzbhKqGbOSiL4qqctSTZj3204C4ojzf06b9iVg8IVev6g9cnoWG3c+pn3YsyjZWoSHLlr0iJNUoD5GblCYYkFr2q7RrnFKGCQMOiBmGiTz27hAO7P15GSYOScyAeHIeMjKu9gWyhEqqX6b/qmILX4J9ejLVT5oZGd0wTCV4cE4AQNZf7GDaVRnoeqP/lAJQkwnQpALZ7mxfhglC++i1HATg+HmH/FKf/5Owtw+xeoJmmFBQPyrqNpGenq5KmNaCRjx//PHHaolh4hm6LwW5B/HEM0yck7x5iBkmweFW4tigoaEBn3/+uVpiGIZhYpFUgXyRkpJCC0azY/KTaUw+u4XaDxkRrhaqZ6qrcZY7LZJaTH4yjclnN9ZitkhqoXqmuhpnudMiqcXkJ9OYfHYLRwu1ENOvCsH8GpOfTGPy2S3c46LN5Nc4fdo0Jp/dwtVi8pHZMfnJNCaf3ViL2cLVos3k1zh92jQmn93C1WLykdkx+ck09Jq2xTBNIdj5F8lzl+qZ6mqc5U6LpBaTn0xj8tmtOVqiPjFHhw4dIjZrU3OTSUdSS3NhLWb4fDETjpZ77rlHzpK2du1aVdIyhHtcojHRQqKeu80lHrUk4vmSUBNzMC1OqIk5InnucixlkdK+ffvGb33rWzIHG+WACwbV+eqrr9RSIBRdn3rqqSHrEJ07d8a+ffvUUiBN0TJ2rDVx8vLl/jO5tYaWYLAWM3y+mImklltvvRWnnHKKvAGbiKYWOi49e/aUn8Htt9+uPD6irSWan1FmZiY+++wzOSjWTmtoCUYsaknE8+XRRx+VVlVVpbwME5wHHngApaWleOWVV1SJj0ieuxxLWaS0a9eu8YwzzpCzdFAlEyREi9XJkZ3QjZfEfvHFF6rEzAUXXID33ntPLQXSFC36i/LBBx+UfzWtoSWWjgtr8ZHM58tPfvITXHrppZg5c6Yq9RFtLVdeeSUKCwvlT1VDhgxRHotEP3cvvvhiHDlyBO+//77yWMTa+RJrWnRAPGbMGOWxiOfjsmHDBjnQta6uTnl9UB3aVzBoXzRYlswEXVtk4dQJplXDWsxEW0uXLl1w3333oby8XHl9RPLc5VjKggPiBPgQCdbC54sd0tK7d2+MGDHC+JNztLRcc801+MUvfiH3sW3bNvkzuDHAWfKSNb26Dcp1qnOKLtpej1FeN+UR9410p4kCaFIAO9WrKNl/gZUjXGWVoXp3t1mErBuXyM+oVGyzIKsBBw+50OGTcjlCXh+X+zfvx3UHi3y5UClHOU1GoDj80hxcOGShWhI4/KR9+FkvY9cNF6oSO9Uon+7B9fekYn7WUCzma9oPrSURA+IVK1bIVjhTl4l4/IxYiz/xer5wLGXh35uZYRKYnJwcOcgsWaAsE62Vdo0C4UceeQS33HILVq9ejV/96lfYuXOn8ppp2DLTm2awXM1iRVDgOip9C+ZkqCnQV3mQN9c/H7ee4pwm27HWtZL9U17xqRWGWShFAEsT4lAaw+c+UWXBkMGuW07mQ/twu1fC028GatV2rZm7YJsq3pp5ax2GyuXc3FysfcenMSDVIsMwDNPqcEDMJA30BDp06FD87//+L773ve+p0sSlNdKu2QNh6itJ/Ziff/555T0JxlVgSFYDtpQMg7d324S+Iuh1hTUbpDVdLE0na2ccKgaLAPeRcMLSQlE3WwSzJbbcq1Nw9ZoaNU1tIQbl0Mxd9iBXBOPTi/Da3lvkEg1s/MLcMMIwDMPECBwQM0kDtVDST0JvvfUWFi9enLCB8VlnnSUD4Xbt2qFt27b4wQ9+gEGDBiE/Px8FBQXyZ+gpU6bgN7/5De6//3456I5+mnMa/VQXzGc36uNGf19//XVZn/Z79OhRDB8+XJZTGW3rv//7v6XPxNjOQVruafYrePCu/1gPTNpZDaR38U2zHhRqKd6B3Pp62a2ibb8Z8HjuAuY5JhdQs1DSQwTNCunrnpENtwvw7HPMvzX1ZVTDjS6PDkKOyzBz17IyzC5/VC0EoW1/zJKzT6rZL+u3hTm7JcMwDBNpOCBmkgoayEAtmD/60Y+8gfHcuXPlwKfW5vTTT0f79u1lH6hLLrkE3//+9zFw4EBcf/31si8w9aW86667MH36dPz617+W2iklz//93//h6aefxosvvijT8zz77LP4wx/+IEcon3322bjtttvk+6UBdpSShgZs0KAeCmCfe+45OWDjz3/+swxa7fbQQw/JNDzOcqetXLlS/l2zZg3efPNNeYxJh/bTNmhbTzzxhHqnZjzvmbNhNI9SbKsvAFaloaiyQfb9dRftRo6jywVqqPtEmnyQoFkhV9q6bITkpXdFuH6SHN6KWXL2SaurRVGlGwXbOSRmGIZpDVLS09MbqaMypaAI1pmZbqDUoZk6IQcbGUmdotu0aSM7K4eiU6dOAaOt7TRFix5sQTdbO62hJZaOC2vxYdcyZ84cWfbkk0/KvwTpuPbaa70B8t///nf85z//UV5/KFiiFsRg0H5IR3Z2tuzUTy21FJDqv2TnnHOO7NRv9+nXpJHSc9GsZpSV4NNPP5XLZPq1/kvdP2gfpjqkQR8XCkiXLVsWkMeyJT+jH/7whxg1apR8TcEyBeqkhfr30uANneJHk5IyHmur70JjSTaGPWhpmb/Fgz4vuzZZdvsAAEL2SURBVJH377WoLu6B3TMvxs1/8Gkh/yishHvAFIxbW427sADZw5ZJLVPXvGqtOzmw3pTURfjusKU4Pv+f8PTeKcvtdfRxeeCF/Rh8cJbYJoS2Weixm15bTcryuCx8EfuHN2KlexW6CH/609b+vCyshOe6Bszqeh1Wtm2LuX+vwY8P+LaBsWtRc3cKFnz3Z1iqz11RVj0VWCB2SrWS/ZoOfr7E73Gh65HuV6Y0WvH4GbEWf+L1fOFYyiLqE3N07NhRzu0fCZqbTDqSWpoLazETSS3Up5VaYPfu3atKLOhC+853viMD2TfeeCNoDkMKZE80wpWgbgqUc1YHqs6ANVgZfRmES7jHhR4CKisrZatxSxFMC7VuU8s2QQPrPvnkE/NEC2PWYM9dQGm34d5+wvNEQNr7lQxcLQJEej0ifSvmaH/JZhGMurF1dineuxjY23kSJqEU3W5aLrVMWb3TWvdNsd2ZIpie3Q3DV4h48/E93nr2fbx8udg+ViPjqmmynCDf4Lo5Vl3v/qztCC827x8B90uWn7Y7o58HqzOuhrUFy3/K+j7IG3dA5iGe8pcXMfADtT3C8J7ldtI3+OmIFPF4TUdjYo5oHxfqPkT3K9NEC/H4GUWDZNYSrfOFYykLTruWAKlCCNbS9POFyqlP7c9//nNs3bpVdj+oqQn+W3k8HpdJkybJVu2//OUvymMRTS2DBw+W/Ym//e1vy5YA/zzEVpcGX8IyO9UoVxkZJjxZi1kDdGo1X9o1nTpNL5OWqY/vQu7OIngGFyOnypc6zZl2jQbs1c5141BNNrpSxolQaddk3TxoBc60a87UbzLt2jzruFB3nKnlW/HD/f7be0dsr621ZGFLEUfE6nUULS3JlHaNzuP+e3qh9698WqhsiD4HHWn9CHtaQsKpJTAdYQO2FGXj5jbr8Mbk4yixnWv6Wlivrjd9HRWk+5+Tgduk03YjqnKu9bvWUlPvRMXbs3He384TGum4FKKithi+Vaux0p2HX6vj4r9d33VPXHDBb7HohSnIq7OuUSexeO629PlCRFILx1IWCdiHuBSVHo8cGOMbrGLZtk3iorct79q1S/xVA1noC8HmI6NtVK8dZ/TRer7b4Xhxsfv7vD0Bx67FHqeW2gr/wUDiy27Xrhf9+zTSF6BzkM3CSrUufbk4+kAKDWv27MdWtQJ9wfjtU5inei38f3xMTujCo361GzdulInP77jjDtmSGioYjleor3C0M004oSwTlHbtmWeeka3EgVRjdUaG1Kn706alFaGyQbkFy4Zly769ls83IG7SFf7LBJX1nVCG/Mw0XwAqKMvP9LXQEsvykSluvN+nbThutJP7nee3rlXX0kap+/y2I6Bt+7T7ByrErBtyArbXTbwf2pZ3PXuAwiQ3lBbQPy231f9dnS/2tIShoKDZOr/8ryd/xP1kmu9hz2ImcrOqUV2Xg0F+9xkrfSBdi1pLZv5W5QmGCoYpoFXnOvWXH+WpxDxyi/danFOFIuVLWwX/vvQFA5AjviOq03P974cME2ESMCCehDxxocqb56pqq9VFXWh915GfWpOsZStnabbt4vP5yGgb3j5/tu1Y1hdWl8GxWLd3dsDFXuAXzB62bVd8MSEPBYuVS1DaJxvvvPMhcq498Zj5YIx/Ygr66+YmEcBPzYPfe5HHIsmhJ8wrrrjCGwhTy1NRUVFCBsKa1ki9FgzK8vHll1+qpeSBfr77+OOP1RLDnIhSbBspvr+DR7ARpbBiKnKqKkXIaWPWpciu2YG+Oz1hpTcMyeIC5LmqUW576CzLL8GWhmwMfnysTKMY6mHwliu/B1SVo7zKjSGmnOIMEyGSPstE+OmbglBys/FirxQXe3gXb6l8En9t6GuGfKlhIgLgKT2qsFV3jdWpqmytZow12Ovcc89NikBYQy3ErTU5R3hMQv/z+qu+t3aohTcxJrBoaGiQAyUZJhxKt1NWlL7YpJaJwmBpCUOQ3cG/zdcINZ7kVKEk/11VYDEzp72Vp3vCDlRnhdcy68or9v4aeejQbG8DjdTe4PEPuMX1/dzuBrRN76qWBfJXUbH+YA+KvPfTQgy4+EOszy9D2cYqIGfQyd+rGeYEJH1ATK2zqHtXPZ26kDfX18WAukxU6n4RrjwUq3LLrC4TMn+q4WLfVNUAVwfd56utbbtWv0bvT6qLc+GuLMds8W9HTTZybS3HlAO1QO2PtHhGmHpa0s9dOaj6/VB4e83s8aCBcqQ6fupKdqgfFv1snwyBsCaWWogZhjkB1FUC5QFdbgjPPv9uOifGkB/bD3XvmOdsnS3Fpe3/jU2yQWWS4b5kxjcTI6UvnImth5UjXKilmNafB0zVv7COG4Tvffia9WC8bBOqENiFg2EiRRIGxL6gl/oQF2TZW3cDu0x4Uyk5ukzIPlAv+XoRh8a/y0RVTrF32tfSPm5UbbS+jqi1OruP/VmcBhf4tLhXB3Z7sH7uKsFQe1/4ZfkoqYRfcO8ckJGM0HFINiggju0WYoZhLGbKrhL2XxstaDZEoO5NtRgW9Mtj6F8Js9W9w2+CGkFhxRBceE6utwGI+jL735eaRtk+j7jtuh0DZwtxTQ8XDtf5Z/yRUODbYDXolN6ah3MuzFf3MRqU52pW10KGCUUSBsT+fYipL7Dz6ycc6OebhvQLgCAXO03n2nAwMID1az0eR9PSWgG6HOBHQWuYP09JuumfuwJ7X0l99gCf+xAnJdRnl0blUoYHpnW46KKL5IQoDBOKC2/Il10lAu5H4wYhB1V4Xqb8C5PFubIPcNB7mysPBcZ7h3XveudJujeqe0daOaqzhjgGcTeBCeWyC6F9oBw15AxwVWMDDU6lrhL2geb0fl0UzFNQ34AdJTYt06ml5yS7FjLMCUj6LhMnS+G1OXDVvYflUx8zXuzUr5j6PQXiC5blNtQMWVZwTqOHw+17LALpkaafu4hSbJubB88qx/S0TFLC3SZaF0oVRAnlGSYk71QYukrcIL/LXSKAnUHd5tRU37LVdqQjC5HmjnWolY0r1nTk9tbVAVN1pqEGVJruHTIYrcZrs9SyhLpNNKdl1sr4Ug6fnuI8j0y7JscOTOiLoqocX5fEueK+Nl08GFBQ31CFLeVyIxay9Ti8LhwM01RSevbs2Uij72nmjmAzhFDuUMoTR/nhQtWhL/1geeY0NCMXTUYQjKZo0Un/V61aJf9qvFqmP45dAw9h/pVj8Sg5Cpbjxanfw79LrsRYcZH5aZG+XJxjLfk4shPzH2rEmADfO6i4bBjmKi1Fa19F/oXKRb5eQzFbvEopeAj/nNrHf90jO4SmLRjw4hSc93wvDBVfPl4ts9ZZmp8/D1NugHc78rjMeByvXk3vx1r3e2/Ox5W3y3cm3/PMda8ip2oBDl19F3I/rECvobSmQm73Q5QOHI8/R/EziqvzJUGPC6WUq6io8JvtqDW0dO/eXc5gd++99yqPRWsdFxMtoaVdu3Y4evRogK5YPV9MtIaWRDxf7rvvPjl74+7du5XXh1nLTKzbdSleE/eB//HTcguWv3gjPrjSuj8QXi0jluGftzdihb7veRHberETnkrie0C8aWn6+eKjKVqS9d7ohCfmSIBk0gRr4fPFjl3LrFmz8K9//UsGxZrW0JKIEy2EQmuhLhM0E+HBgweVxyJWzxcTfL5E5rg0faIFmrgmFzvS+uJePy2FqHj/Xnz/9DNxmlXRj+NHKzGrY+BguW2138GaS27GwgQ8XxJRC0/M4SMaWrjLBMMkONxlonV5++23A4JhhgmPSehrHOdShvxOndFR960VRtc4Db6mv+cFBMPEJORlD/NOFc4wjD8cEDNMghP7uYgZhmEYpnXhgJhhEhxuIWYYhmGY0HBAzDAJDucibl1cLhfOPPNMtcQwDMPEIhwQM0yCQ10muIW49ejYsaOcMpxhGIaJXTggZpgEh1qIadANjeSNZRa+dMibp7S+vlZNBFCIitp6mX+Vpi/3+eut2R7HVaDWVrZO50+lZP+23OB+LKy0fI51yQ7tXWflaaVcrvbJAuyMXYs9e9aYfQzDMExcktKpUydz0rcWglpLDhw4oJaax+jRo+Xfhx9+WP5tKpHU0lxYixk+X8w0VctTTz0l01dRYBlpwtVy2WWXyc9g/PjxqsTHvBf2Y0T6VszpNtwaBV+yGfuHu7F1djcM1zN0jVmDPTPTsSHjaiuhP+Zh8/7BqPPWmYfK/Vdge0YeptH6l7+MjKusmn5o38oLxPZ6YLd3/bFYs2cG0p/JwNVvin3dBZRqPXZIRzCfDX1cMjMzZV5MaqlvLeLx3A11vkSKaB+XpUuXyu+fV199VZX4iMfPKBoks5ZonS8cS1mkUj42ghIV0+tgRlDeNpOPjNYnTD67hbOfcLVQPVPd1tBi8pGxFrO/NbRQPVPd1tBi8pG1lBYKxmj6ZmedaGqhfVGOyYA6v3oMg7sexpaSYViiyyYOwMqatug/8n65rLU0in/HdZ2vJ2OAOwtDl+plK3+l9B8Xz/mNgfsijlETAPnEC/nvmPZTsnZZBd+I9Slx+zHH+mTHaNsCk89u+rjQl/NHH30U4JfbCOPYxdp1ZPKRRVpL0PNF1YnH40LvJ1jdaGsJZazFbNHWEq3zheqZ6tq1hLJIajH5yKKhJZUEEPrAm4x8BG3E5CfTdUw+u9FNxlSujQhXC7021W0NLSY/GWsJXcfksxufL2ZrqhZqGaYZ0/Rya2jRn4HTf/zidLSFB+8u9dcycWc1kH4BxlIdpYVotNWxrASV4v15PNfhUMlQTKQyilmzRsn37bXqv8ruEMeFXgqtKeilKdAHFOs6s9Bj90xcPVUcF/K5BmCWfX1PJUrEtlU8jON+GgJNHxcKho8cORLgl9swHA9t+j3H2nVk8pNFWkvQ86UVtJh8ZE3VQq+D1Y3Hz8jkI2MtZn9TtdDraJwv9NpUV9dxljstUT4j7kPMMElAYucipskLaHKCEuD2Xdi2WBXXlHsnLSArr8vDpMdlD2EbDaicrusUoarHbOzRdRoqUWRbv6jSjYJg/ZIZhmGYuIYDYoZJAmI6F/G/PTgMNy64Qy0rSvtki0j+XcOMW8Eow5Y3j8Dd2TzcbdLOarRN76qWTJThud0NQeuUbaxCQ3oXyLF+DMMwTELBATHDJAExnYv4waHYsLct8u5e58vcsHgbCrIaUPlI4KS1PkqxzZuNgijEgIvPgWefOYSmAPtw3V61ZKIQ1/RwBa1TeG0OXCJAX6aWw+Wiiy5Chw4d1BLDMAwTi3BAzDBJQKznIp52VQZm7s5BsU6BNtKNyumZyA8ZfU5C3+lVyJmr06YV43tvzkffCcqdVeBNp0ZWkF6J0puceSFcyLOtnwdbHVeeT4+w4jwPyq8IFaCbOfXUU9GmTRu1xDCBlG6vx651M9WSBZXJ1IKaMWtQ7fH4ugQpqB6dn/TQu3/PGlg5Oax0hfrctawWa+09hig1od8DpUCWbYOfEipTKQhpX6b9O1MgSi3798u/fu+BYWIYDogZJgmI6S4TiqU3dvX2101LMwTDK4YjM62vCINtLMsXZb5+vlfe/qhVPqGvbVvKMvOtNGmT85BGga1jXbLzug616jw4NMCXpve9fBi6dRvehK4cDNN8xg7qAdRUw93H14+9sKIWBbD6ytP1Pef1HpjyhC9NXUNlkff8LaoEBtwyX3lEINsnG9U1HuRc24yAVf6So15LrD75pCUjI0P+zcznK4WJD1J1sv6UlBSZuN9kdkx+Mo3JZ7dQ+yEjwtVC9Ux1Ccpr6n0yFk+3d9rrjLeeZNfNtq2rynxP0/XiCXczFtD2DT6yQ4e2Yp7c20Jsc/rVPjWL6Cle65BP4f71d+3aJf5uwyKtRz+9j7eWiXj8jEx+Mo3JZ7dIaqF6proaZ7nTIqnF5CfTmHx2a6qWDz/8UHaZsPs1usxpGpPPbuFq0Wbya5w+bRqTz27hajH5yOyY/GQak89uej80eplGNTv9RLS1BDMi1rRoM/k1Tp82jclnt3C1mHxkdkx+Mg29DvaeUqiC+C+wTNe9EwO7A7vLV6MqfYj3vrBsaFec1+8u+dpOaqpc27Y+7dsqIlJTFyE3qxo7++2EJ6/Ad99Rfvt6uiyFtiFfWSUpKQuwbSRQuaXBqq+3n+LUorbjMI3JZ7dof0ahLNpaaFvBthdJLcH2o3GWOy2SWkx+Mo3JZ7dmafnWt74lK5xyyimg18GMMJVro58FT1SHjHZqKtdGhKuF6pnq3vlEDUZgtXxCJZvzxqWY+uREr3/iTy5Fyt4atM+Z6VvvFHEgcRhbZ1vrkK3em4WRWxZYvsNbMUeVW7YaNerr4VvfonVrsFr7Zm/FYfGlcIrYrnVc5okvnxrUHLoUP7pT7Ouegd7trN4LHH5pDnr37i2WB+LXSs+i3GzU7K3DpT+xdBPx+BkFs1g6X5LhuBw9elRum6YQttfRr00WaS2nnXaa7DoQrI6pXFs8f0bvv/8+PvnkkwA/Eavni8kIU7k2Pl/MZtdC74fel7OODCa/ky9/ydE2KkvcuFPVvu/8EXrUbcDNf1iBF95I8d4XtE188m25zoz0Dbjk5j+IslPkNl0DZnu3Nzvndcy5+teWliW56PDSGnG/+TVe2ZuN3CVqW21ISDbyX33Vu96hkdkkRN7PaJspbaz3vGDLSKSsGYgXRKHUKe+hLuTNsdbTXSZe0tt2WCKfuyafNsJUri2c84Usklqonqlusn1GqV999ZWsQK0Y9DqYEaZybZTU+ER1yKilxFSujQhXi84d5/QvuTFLzlCll2WS/eO63m246pJGvPZIOd5MG4jVv1TrfXPcSvr/jVoWNu2VGuC8zriNfI3H8Y0qt8yqb2lR62qfrb48LiW9kVWzA/12HJQTDfi2IY6H2ARp8z8u9+PyrtXY0XcHDvYbjvtFGRGPn1Ewi6XzJVmOC+XSbdu2rV8du99pkdZCQTnlmQxWx1SuLdnP3WCWyFoS8Xyh90Pvy1lH5rb+T4XsYqBtpbj96PvWbT/sDs8r06SWRc+8hsZLrsJttvUX3XCR1U3hld7Y/8Zq4RP3FLHNhi0zvdubWdUdM954TObivv+ydLz2zCK57sQd1ci6TN2X5Kw11ai47DLveuetqpYT2dD9TN6vjon3XLIZI7AK/e603V/lPbQBlTOs9ajBh/5SHa3TbnwdmS2c84Usklqonqlusn1GqbQyQcmM6bXJ7Jj8ZBqTz26h9kNGhKuF6pnqasat22s9GbvXI/OGJZZ/7DXIqVuP/KVLUPkmkPOjcVY5fQ8Q4sLX25l3uXhEr3sXS5SvUZVbplfw4fXb6hPzLnej8pGJOD5hB6qz+mCBdxv0BUIVHe+jtA/cleWYeHwidtRko09p046LyU+mMfnsFmo/ZEQ8aqF6proaZ7nTIqnF5CfTmHx2OxktdC20b9/e69fY69hNY/LZLVwt2kx+jdOnTWPy2S1cLSYfmR2Tn0xj8tmNtZgtXC3aTH6N06dNY/LZLVwtJh+ZHZOfTEOvg70n6z7gvw19bzh+fAFGDXAha/h+HDx4EIfm5MHlysE1Y/23IZn6MqpdbmR5b0K+fS35exUaXOnoOmYNrsvyteTKFmB9X7LW8ltPl9H9zNrqAmweDqzsf5f0i6pWfbVLuofa8W7HYRqTz27R/oxCWbS10LaCbS+SWoLtR+Msd1oktZj8ZBqTz27N0eLfeSPBKMvPtAYU7Mz1jpKl1EmendawnEdf/LeIiAfJcgv7iPN6jOhag5UDpijfyTIfvdN3Y5McIDRJBri5jlG6Tkr7uFG10RqIQLlTs22DKBjmZIn1TBOJisvlwplnnqmWGKaJLM5FdkOl7LLndru9A+Tybi2Vg+rq7ZPFlPQWdT2oVot2ZNrAhjq0H9QDLuekNeK+NCTMbBDZIwuANVejuXdGhok1Ejog9kIts+KpORulKMhziQtaDWSbmiuftAd5087YZ61KQ0ZG8y/6cWuvQ1bb/t70TTQiN2SAO64CQ+jpXQfm8uk9Vw3eY5iTh1qDOCCOPh07dpR9txnmZKBsEA1Vm6zsJwo5SYy4L2TnZ6IcVnpBur73U8tt16HeDCiuvGLrPiKsOA/YUvIczuzeFtWqUUhDDS8uv8ahEIhgmqY3N2Pdu6QW1YdYN0YxTKyTkAHxuLXV2P+CLYSUT9jiqVk9aevpWHv16uV90j5pSuZhoXoZiJXov2ZNhjfITksrR3XWEP/cjzbkU7zh6X1wwJSzDNM0Env6ZoaJXyZdIe5HQ2erJQsqo5Rl+q8fMmWglQaQ/HSfsPrtXo3JskIZ8jN99xDLMjFs+TIM75bhy9WtoTSFmfkok+kK+8JPifaJl3Jfjlzc9Eus1GdLY2jvQ6zXZZhYJyED4mXDsrEaI7xPxvUjgXJxUWarJ237xamftE86JH7zAlx3aBSya3b450clxg1CD1c1XvZ7mqZuE64guR8LMSjHZXx6b9t9IE8ZyzQLbiFmGIZhGDMJ22WCZr7yPRn7nqSDPmnLv0FmxiJfwFPuJPQ/rz+mrRiOrvQUbH9q1vXF32x3HqapYo1dh78m66ne9PSe0W14k6eMZRg7FBBzC3H0OXDgAD7++GO1xDAMw8QiqZSPTb5ITfXmonOannaU/pr8ZLQ+YfLZjRIim8q1EeFqoXqmuq2hxeQnYy3mOq2hheqZ6raGFpOfrCW1fPTRRzIgptetoUV/Bk5/ax8Xu7WEls8++0ymTnL6iWhrCWZErGmhfZk0xfNx0e/LWYcsHj8jk4+MtZj9TdVCr4PVjaQWqmeqa9cSyhLlM0rp1KmTTpYSFWiACbWYRILRo0fLvw8//LD821QiqaW5sBYzfL6YORktlOD9H//4B/Ly8lRJZAhXy2WXXSY/g/HjfVPLRppEPXebSzxqScTzZenSpfL759VXX1UlPvh8MZPMWqJ1vnAsZZHSrl27xjPOOEMmPaZkxSYomqZZPChxMeVqM0HRNc0k8sUXX6gSMxdccAHee+89tRRIU7TcfvvtsuzBBx+UfzWtoSWWjgtr8cHni7+WzZs3Y9iwYd6Z06KppWfPnhg7dizGjBmjPBZ87rIWO4l8vqxYsQLLly/Hyy+/rLw++Hwxk8xaonW+8L3RwmqDZhgmKeBcxNHnoosuQocOHdQSwzAME4twQMwwSQRnmog+1Kqh+8gxDMMwsQkHxAyTRMRyLuKFLx3ypUqs3+ZNhVi6vR4ej0cm+vf561FLM2uNq0CtrWzXrl3+voBJAeah0lNpbXvxNv9ZvojSrdi/Zw18vVYLUVErtu2sJ7azzbZfaWpfpHebYzbKWU9WWZoEcnYxUZ/ej0dr8WLa33hRVhuQu5z2U0lJ0MesCXyf8rj4juEtD73or9Wml2EYhuGAmGGSithsIR6PNXv2YxRW+lIlrgIKbAFd9Wq3TPSv/UWVDcpD+GaYpMl26G9AesWwKMVWmhnSzrhByEE1qtNNucqrUa70pE2vFCrMfH1vOYZeqBZEEF6cUyUnB6L3414t3qc9+LXtL/iEPydCBNXT8uBSSxQcj+kDv1k401aZJvdlGIZJXjggZpgkIiZzEd9xDXq0rcHKftYcW5IJfVE0fQeqozgbTen2AmBLJQ6rZYJmjkRVOcqr3BiiWnibRinKh3yNSh3A22b9MmHf33VPnFx2hcKKqcipqhRhtaKbG+fgQ7zLicwZhmGCwgExwyQRsTiobrwIAtservMFcIqyZZOEqYWQuJA31+oGoLtMOLssnJDF21CAcvTfqJYlNHOkB+vzy+SMlsgZ1OQuBjLIXtUXm9SyF7E/2WXip3Uo8k7q49hfj2vQ5Anbx1Vgak4VSvLfVQWCPR4cQXt04akuGYZhgsIBMcMkEbHYZWLpex716mQJ7DIRMNtjSEqxjaZ3t882SVD3hTo1JfuyTahCDgY1JaictU4G2UYtNPskdZkoAabqriGG/Q30zzh2AqirRA6q5jlaoJflY8VOeB8apDm7hjAMwyQ5KT179myk/G7Hjh1DY6N5jg6a+YPyxFF+uFB1aCR1sDxzmrPPPhuffvqpWgqkKVpGjBghy1atWiX/alpDSywdF9biw66Fzxfg3HPPxZIlS1BQUBB1Ld27d8eoUaNw7733Ko9FSsFD+OfU9vjHZcMw26Zl5rpd+OGH8/GP9lNw6e7LcNMcnxYaJDYGK3DliwPw4tTv4d8lV2JsuUNLwXK8eDuw4sqxeNQqEVpm4fGdOXit11DMFgHrrpzXUIF8XFrVC0NnKS1inYd/MBYXrn0V+brvr+LIzvn4gdhRmzYzfdshh21fmUL3pVUVSL2hF3b1ysd93/oWRizZhF81Cr23ayX6uIzEg/8cDTx0JT4Yuitwfy8vxA9ub/TWofeooeMjj8vby/H86Eb8483v4Yd0TOQ+ZmLdrku9+s7+1cN4ekK29zhRsL5r4CHMV8cmFs/doOdLDFxHmqZque+++7By5Urs3r1beX1EW0soWIuZRD1f+N5owRNzJEAyaYK18PliJ5QWSvLer18/+eUSTS3BJ1q4ExVvz0Z/z0qkXTHRKqQMENRqm9YX2F6P3JfdGDjNp4UyNUxFCTI3DkLt3BxUTc9E/jKHFsq0MA0osfXZPeOMJXh+/+XYIbY7Se4jG6gpF/u1WodTx1fg7WmpKLnoPxh16Dp41HYltL25bvxt9U6kijqX6+1on9pXttBbkAW882Qv9P7Ve7j44osxdMHfMfqrecjcV4D6wR4UiXp/pOPyq8dQXZyO9Wk7kFs/xG9/UsucDlh/Xjku2DsFmGfTIqAsE/K4VK/DGzP7w9VQKbdrvddSbKvPVfpK8XJ9Ab5eZWs5p/eudFD9WDx3eWIOf2LxM2It/kRay6OPPoqXXnoJy5YF9h3TWs4//3x88MEHqtRHU7TwvdGCu0wwTJIRe90mlmJ4tzmoTB9l+0nfCoYdnRiCENiH2JtSzJWHYr1NYfv3j0C2+FfgTTlWHdhVgijtg+yGKmyy34eoG0NDNvp8twsG03ZqVPcGEyLIphbnAGiwYFWO1CT7EBf3EME8Bee5gft78DnsPpyFPrI/he89aqOgO3tENdZcQf4GVDq7SkgojVsBLnynoondSJioU7DcL4WgPfUePfxYafo8fueAPb2g3xBMKrNlabHOA1v6QmOaPkffe1nmSPentjtPvJy/xRPQV590Sk13rMMesR/6rgnQy4TNt7/9bfzkJz/BI488gmuuuUaV+rNhwwb1imkuHBAzTJIRm6nXlmNo1/N8acFswfCkK9KQZ0tAQZTlZ1qp1ZblI9O7jq8Psczk4PCRyX67RVusFGmU8cEZdD84FN26DcfSSf0N2SDKkJ8ptPxkGLpRCjh7IE37UvVJr59P8Mjo/t5UcKTdq8WdbbX6GrNP0INCBvpPWir3a38flhVhC72R7cPF+/RvPRYq0Fe+N0tzr6GyY4ePE2S7YKKMCDRfnJoLzyrfZ1uZXuAXFNesofPF7f38/VMP2hnvn3ZP/lpQjJyqIrk+nXfyocwWFMvsJjXVcFtPXycHDUwVD2k+DqNyhv2aPtl0iMnLwYMHUVxcLFuKb7nllpCBMdN8EjggHmsluPc+neqnZfpysMq8rUnK6GlXJ80ns57Iq60nZPUEba9PgcWex61x4Pb1tDV5pDvDRIFYnpwjETlw4AA+/vhjtcQwgZTemodz/FrxxYPMvEo0ZA0JmJDlRIx/Yop/2j3560MlSmzBaFl+CYo26NwnlN0EqHqkHFXpTd+fhTUw1ZtekIkozz33HG699Va/wHjAgAHKy0SKBA2Ix2HNnhnIqyu3PU27VaJ/ajmxyno9+Q5A/e7Usv4yqlZP6RkZc6wWGC++0exk1MrW7ablykebKvL6ymtUIcPEGLHZQhxFlg/ztuZGg4aGBnz++edqKZKUYVh2NoavUItMnFKILuL59MiHtWpZIbvouODuppbDYcwaTOnhn3avtE+2eAp+13G+l6FsgjB6KbObrEf+sjJsouyC19q7NTi66sy1tzz7MKcXbIu8Of5dJriRqGm0a9dOjkHo3bu3tE8++QSLFy/G9u3bZYD81FNPyW4V2m+3yy67DJdffrnRR0Y+Xadz585qj8lNYgbEC0eif9sav76B9ERc2ZB9ksn1GSZxiMVcxAzDNJfxWHNXD1T9fqhf8Ft9MHSrLXWX8Oy07pU63/YtconwbwQyzshIXSWM6QUDu0xwP/amc+ONN8rBpXajQJayLlCwfNZZZwX4yUaPHi0Hy5l82qgO/aXtmAZ6JhsJGRCP6+wW16Iz0T89/TbA1SF0/s3sDqbnX43/0zK1tG0uUS6GiROSvoWYYWKKMrxbB5zTPlMtK6jl1tUAzx61fAKyn5iCHq+XYqh/ogCU7fMA6V38B9GJJepSuG1xKQryXMgeqe5r1ALsysGAAlXthATJ4c1EhI8++gi/+93vZKYVbWvWrMFpp50mW4vHjx+P999/38+vjXwU7Jp8ZBQsUx36O2zYMA6IBamUgoKgdBb02mSUDoOgvyY/Ga1PmHx2o9QZpnJtRLhaqJ6pbpvUFFnnVEf5qW1EeUob7/Ip9DiQkupXr03KYRyqsV4TMj/eqWL51FSkiCferbMz5KAEbVdPVVrEtlPa+LRYu2qd42LykyW7FqpnqtsaWkx+smhooZ/wO3ToIOtEUwvty1Q3Vo4LWUto+e53vyt/knT6iWhrCWZErGmhfSXa+UL7M9W9d9VWHLkwH9uX6rLJeOoeEZzufRoj/mzdTwi7Fu89h+5NrjyMynkdpTctV9tvI+5XKWhDde95BTXCf/f6yV4tk9ffjbyUrVjT5vvIPrwVc2z3tDkvpSB32Cx1z1P3P7VPXUbQbTZ7ZAFS1gzEvQ5N35I3V1HnlPj7jEJZa54vgwcPRnl5OX7xi1/g8ccfl/m5t27dKmMU+/raiEQ9LqGsOVpSKR8bQYmK6XUwIyhvm8lHRusTJp/dwtlPuFqonqmunPmqbToy/cpH4+pL2qLh4FvesmOUl7mxEce8de7H5V0P4j9LrWWCkjc3HhPLorL8R6+99W1ajgvfcZ8WsSiWW+e4mHxkya6F6pnqtoYWk48sGlpo5DL9fElEUwvti3JMBqsTa+eLyUfWVC2UY9NUn4i2lmBGxJqWRDxf6P0Y6y4dih9cVoHG4fvlYO79+2fIvNzu/pOt9dQcAnYt3nuOvDc1YMvvh4JGtFjbPy7vV8dl3ckY4F6Jg/1mqG3vx4xLqjAraygyL8tCQ9UmLFHbJFvy9yoc+U4O7jfd81QZIf+vWYkBE31+uybqQ9x/pn4/yt54DKN13Rj9jEJZtLXQ+UL5uCl39fDhw+WgOgqIN27c6N2Prus0IpJaQlk4+4kHLakkgNAXqsnIR9BGTH4yXcfksxsFmKZybUS4Wui1qe7xSSux9XAWRm0p8ZaN/etdGOCqxvobFnvLrIlKxJeGWv5mQR+ZW3SiWtY0HhfL6htJvlZ+S8tYlMwfa31hNfq0WJtuneNi8pMluxZ6barbGlpMfrJoaKGsB7rLRDS16M/A6df7ibXzxeQna6oW+mvaJxFtLcGMiDUtiXi+0OtgdRsbZ3sHfEu7YqLXN/GKNPlrpF3L4hsykUn3s7IbZNq9G5fZtUyUaff0vcxaTvOmXUvLvAGL1XblNrz1hIntXdlrKCaq7d5Q5u/LFNudJvZzV3+3n0Yyren4shtlakL6nvG+HzK1X6prPy6hLB7PXZOPrKlaKBvQtddei7/85S/4+c9/LgNhXU9refLJJ71ldiMiqSWUJcpnlJiD6rBM5u8sR4G3v29xnid0on9Kq0azVmX51qGn9AEuF/Km6XyNgX2I9+8ZiO/1mS22D1RtjNa4dYY5efS0ljQYg2l5qOWBvugZhmGags5DTGnXgjFz5kz1imkuCRoQW8gE+d6nU0MwPGuof3J6Wwo2MnqSdrtXWoPzDEn+6ek3o9twXNuPnoL9E+PTvnlELROr8MC66PH222/LGxvDMAwTuyR0QMwwjBlKvda+fXu1xDAMwzDJDQfEGtvUq/5MQV+e4pRJMLiFmGEYhmF8cEDMMEkIB8TRw+Vy4cwzz1RLDMMwTCySqlMCyXy74rXJ7Jj8ZBqTz26h9kNGhKuF6pnqapzlToukFpOfTGPy2Y21mC2SWqieqa7GWe60SGox+ck0Jp/dmquFAmLdZcLkJ9OYfHYLV4s2k1/j9GnTmHx2C1eLyUdmx+Qn05h8dtP7Of/88+UUrE4/EW0twYyINS3aTH6N06dNY/LZLVwtJh+ZHZOfTEOvg70n7TOVayMiqSWUsRazRVsLbSvY9qKtJZQlipaUTp06WfnEogRNCBCpASY07SDx8MMPy79NJZJamgtrMcPni5nmahk4cCAGDRqE//7v/1YlJ0+4Wmi6UfoMaHakliIWP6PMzEyZ2YP6bbcW8XjuJuL5snTpUvn98+qrr6oSH/H4GUWDZNbC50vTaY6WlPbt2zfS7CCUgy1UaiCq89VXX6mlQCi6ptk/QtUhaMamffv2qaVAmqKFpiUkKGm1ndbQEgzWYobPFzPR0pKTk4O7775b5rYMRqS1UIJ5+gxoqlAnsXJciEhroZnqjhw5gg8++EB5LFpDSzBiUUsini8PPfSQ/P555ZVXlNdHPH5GrMWfSGvh88VHNLSk6mTHlMyYXpvMjslPpjH57BZqP2REuFqonqmuxlnutEhqMfnJNCaf3ViL2SKpheqZ6mqc5U6LpBaTn0xj8tmtuVrsfYhNfjKNyWe3cLVoM/k1Tp82jclnt3C1mHxkdkx+Mo3JZze9HwqEP/roowA/EW0twYyINS3aTH6N06dNY/LZLVwtJh+ZHZOfTEOvg70n7TOVayMiqSWUsRazRVsLbSvY9qKtJZQlihb/zhsMwyQF9j7Erc4d67BnzxroH8YLK2rlxDfbFsslVNTWw+PxyKlf6+u3oVTWEtBkOvW1qBinlomC5aJM1Fm8zTuBjt3279+M+aoqZB3H+qVbsf+FeWpBLG6n9Q5gn20bPi2kkfQ5tuHlFul7ZGQDPv/8c1XGMAzDxCIcEDNMEkI/GR0+fFhOMBNTiCB3ak6VnCCn7wQKNouRV1funXK2qNKNAntQHIwJfb0T6JTX0Jw7RfJ1RsbVmKKqlPbJRnWNBznXWvNQBiAC5gKUi/U6orPaVtqqarGxLZhD09+KZZ58h2EYJjHggJhhkpRYTL1WemsePBtU3u/FBchzVaP8Ct8ck2X5JahsyMaQiiBBbNiUIjerGjuu2AFPXoEhwB6PisFuVD4SdLJ3hmEYJoHggJhhkhQKiNPT09VSK9O2P2YLPbk7fa2uhZ3dQIPHmjrdSxk2VTXA1SFbLbuQN9fXnWHX1FxREgaLc+GuLMck8W9HTTZyZfcMRdcR4thMAeb5T8ceHH8NVlcK5RKc0f4iOfKZYRiGiV04IGaYJOXDDz+MnRbiw1sx87yVwEj/YPLENKByuurOIKxXyQ5RcmJK+7hRtdGaf3LSzmpk97G1Ee9djfNmVCFnbrC+wU78NaRNr4R75DbMVN6U1FPRpk0btcQwDMPEIqmnnHKK9SI1FfTaZPrLnP6a/GS0PmHy2Y0SIpvKtRHhaqF6prqtocXkJ2Mt5jqtoYXqmeq2hhaTnyyaWqiFmPrmmvxkkdaiPwOnv01qilWnzVTkrRbBqQgmF4ny5fs9gMuN74rXPi0T8KMcFxo8e3GKWi8l1betFPFPlqllq0xWkq+J1DvWYkiWrVV3ZDaQlSv3qbW0WfFfWLAFyJv2JCbYtnWK5ZZYZaly+3YNp6z4B3Y3uNGpQKkRx8f0vglTubZYO1+IaGoJer7E8XHR78tZ55RTFmHdrl1+vzLU19K5NwFP1lrLNJCTBnR6fYVPolbWsbYhtYxZg717n/Bbz26e6rUYK/6Rr/bJCbb9W/W3LRGvl2zDridm2nxWmaXnFCza7tAizbpmdf2mHpdQFo/nrslH1lQt9DpY3WQ+LqGsOVpSKa8bQULotcmoIkF/TX4y/YZMPruF2g8ZEa4Wqmeq2xpaTH4y1mKu0xpaqJ6pbmtoMfnJoqmFWoipy4TJTxZpLbRP+iJy+nVgK57Oceq0Ndh6OBtDnrjT+3rU1oVeLXc+MQUDXDV4+uaHcWobCjjFvza+bbUR35lUJr7YvGW0+ZRUSyMx/tocuPauloP0tK3ea+1TB7yk9eGbn0aNawBGLfJt61S5MauSVdZGfgHbNZw6fhByXHX44DFr1iQ0Wql+vH5lxIk+IyJWzhcimlpoX8bzJY6Pi74RO+uceird7N/Ban1Ozt6Kw+LcaSPPL+DwS3P8zteMS27Gw3T+yzrWNrQWqyz4epSFnXz6mrDMqk+/ZshzXFxDPt9CbBkhHhrVvqTbcf1kZAzEr731+dw1+ciaqiX4+ZLcxyWUNUdL6hdffCErfP3116DXJtOJkOmvyU9G6xMmn91odLupXBsRrhaqZ6rbGlpMfjLWYq7TGlqonqlua2gx+cmiqYVaiGlKYZOfLNJaaJ+mul99YwWM38jjshDXP1CJxn4TsfoX4vWFaShvHCFbpMhm9DuI8rQrcCet+/VxNIp/x7/2beub41TSiGNqmexYo4hJj1nHAhiLqy9pi+odd3r9ZHfuqEbbS67CbVRZYH1Gd+KKVdXIGv487tN15casOta6X+N4Y1v0n2npkzazPw6uugKzvjkmfI34vO4tmSjevj8yIp7OFyKaWmhfxvMljo8L7c9c15okwHve0rktHqS+lueXdf4Sflq8daxlrcW5nre+MK0l0Kfri9fqHNe++zaPQGNlJRrUvtQlEtHjEsri8dw1+ciaqiX4+ZLcxyWUNUeL1QbNMEzSoVuIW50Hh6Jbt+FYqhaxLB+Zab4BbZOuSPOmXUtL6wtv3gdHPUn5WFFmqyOg9TPzrf7CwHIMy3YHpkujNG2Z+Vg6qT8yrpqmCgUyfZtte2LZnT1MtrJZlCE/09Z/WJm1/UeFL9yBeQwTHFdesX83he2l4vx/Fx5XDgaF6OdO6/m6NdTDs8WbhdvhK0aeaTSqSj3Yd6Na1nQd4d9lorYCzc37wjCtDQfEDJOkxGLaNYZhAqE82vRASA+G8qFLpiKchL6rPN6+8HQ9068T9rhW59/W5h6gs3A7fUWoDBiNWoptI8Uzpi3toZe9q31ayMTDpH7kZJh4hQNihklSPv74Y5x99tk47bTTVAnTErhcLpx55plqiWEiiG0CGnq4pb7H4WRZCYfS7QXAKv9fWxgmkUlp165d4xlnnCH7VFDfCxPUsftb3/qW7N9B8z2b0J2hqR9GKC644AK89957aimQpmi5/fbbpR04cEB5LeQgF2HBtGr0doJB+6I5r8lM6P2EU4e1+NMaWqhFY8WKFXjwwQeV16I1zt1YuY7Wrl2LMWPG4P3331ceH5HW0rNnT4wdO1buz04sHpdIarn44otx5MiRgGMcj+dLNLUk4vlC3z/Lly/Hyy+/rLyCxaUonQD0r++PrWm9rQCUpiWfBpRkbsKg2mLkVBXhkhF/PLGWOyvwxuTjfuv5ugtpLXdi9RszHD5rVkj3hjT0xTYr80pNuWqJFnj15CN7ez0KUlbD3X8yn7sOonK+KJL5uISiOVriOiAmLeeff77y+NAjCL/88ktVYqZTp07GQEBz+umnSy3HjlkDHpyQFmpdO3r0aNDjwlpiS8sHH3ygPD6S7aIntJZly5Zh4cKF+Ne//qU8PiKthQNiDoiJZD5fjAEOBZtz8+B6pwJpvW/zldkC4sD+vZT72r9/utTiCIhN622dvQjHJ58oID4V5To4J5wBcZYqt1G9yjepTrKfuy16viiS+biEojla4j4gNsFaWIuGtYTWUlxcjE2bNuHZZ59VHh+R1sIBMQfERDKfLxzg+GAtfL5oYkUL9yFmmCSGB9a1PNSli/prMwzDMLFLingKb6TIm35yDtUPkyJ4itxD1aGfwYM9AWhoEM+nn36qlgJhLWZYixnWYiZcLTfeeCPatm2LP/7xj8rjI9JaunfvjlGjRuHee+9VHotYPC6sxZ/W0JKI58t9992HlStXYvfu3crrg88XM8mshc8XH9HQwl0mWEsArMVMImr54Q9/iH79+uE3v/mN8viItJZk7TIRDNZiJpHPF/4J3Adr4fNFEytauMsEwyQxdXV13GWCYRiGSXo4IGaYJIb6EMfEbHUJzEUXXYQOHTqoJYZhGCYW4YCYYZIYHlTX8tDPfNT3jWEYholdOCBmmCTm888/lwMMzjnnHFVy8syePVu9sqDl66+/Xi0xDMMwTOzCATHDJDnUjzgS3SY4+DVDAzjooYNhGIaJXTggZpgkp7W7TYx/Yi/2PD5WLVkUVtSitqJQLQkWVmL//j2oGKeWvdAMW/Wor7ds14vLRYkurzXUJ8aF8BFjsW7vIe82tW1brNxEyWZR5tjG4m1+9Xft2oX62gr8+O23cfDgQWu2L5t//wvzjOtpO3RoK+aNWYO9e9ep9+RAbK+6eq1QyzAMwzSXlE6dOpmTvrUQHTt2lInqYwHWYoa1mElULUVFRXjllVewYcMGVdI0tJZt27ahb9++qhSYMWMGXn31Ve92L7vsMowePRrjx4+Xy5qxj+/BJJSi203LVUlg2bwX9qM3auCue8xWbx427x8B90tzvGXTKv6NSdlVmNPteQzcMwlY0A3DV0iXjbFYE9RHkH8Gerzu2y4FwPuHA6szrsY0sWjUQ3UufxkZV1ENx2ckAts9M/vDsyYDV0+lAmsf/etWe+sTtN3Bdbb90np3AaXdhkO/ay+hfA7i8dwNdr5Ekmgfl6VLl+Lhhx+W14WTePyMokEya+Hzpek0R0tKenp6Iw36oJ/0guV/I6gO5W0LljSZ8sjRwBH6eTAUIgAPmMLUDmsxw1rMsBYzTdFCAccNN9yAd955R3l8kJ5Q2yAoryPlhvzRj37kNwU0Tazw0UcfydZR2sa5554ry2+66Sb5VzNubTWmpC5C9tAy73GhsruwANnDloml+djiycXLGS/j8v2XY6c7D1Oo0sJKeH5ah1nZw0C1iE6d7sX10xqAycA11SJaLMnGMFu0aB2XMfi/N0UFh09z6ql34rE3REC8e5baPzEflZ7rUFeUjf9asQAvHuiDHe4d6OPp46+n9064B8glv89o/hYPRmGl10ecOn4d3pjZHbvFNrUOqnedx7dfWWdyIxbY3qOXsWtRLYLrRZfcjCUJeO726tULt99+u8xF7CTaWiJ1XCin7EMPPSQfQJ3E42fEWvyJtBY+X3xEQ0sqCSDISa9NplekjZj8ZLqOyWc3erOmcm0Eawk0grUEGsFaAo0IV0tpaSnuueceLFu2zM/oi5haJ5zlTqOZlOjvkSNH/Mr/9a9/yQCZtkHbWrdunVF32XsetO0+EGNtx+U4fSc2Kv0L+iB9y0pME/921GSjzwKrTknvbKDuP1is1iFrbPwLFt+5WJQdRyNcGFDsgcfjs80ldFwahY8271tPmz4u8itZ759MaMiGB/8pE3Xm94b7pccw8ZuJfnq+oZWyRnn3Ra06nuq/YtJZk/AdN9Bw8C3f9oRhxfPY3eBC+sW+Mvt+tRa4BmCW7T14PJUoofryIFno9YNZPJ67tC+TptbQYvKRNVULvQ5WNx4/I5OPjLWY/U3VQq/5fPGvY/LZrTlauA8xwzByJiSnUasEBXUmn91oWlH6S7MM2cupZfjtt9+W26Btvfnmm7LFOIBJ/bG6rj9mH/L12y3OcyknUNrHjd3PWu2jk3ZWI7tPqXxdfbBB/g1OAyqnpyEtTdn0SriHb8Z85T0RrrxiX5/ekdmoXtUXk0T5/N5CzyarSdeuR1JT7t0ftXCW1+Vh4l9/gFNTlP9kaKhEkX4Pwooq3SjYbtsnwzAM02w4IGYYptWZdlWGHNjnC/pUsDuuAkOyrJbe/fv3y8AUWbmgcLBsnwdI7+IYcHaLHGTnNwBOs2wTdh92o0uYo9AaKou8esj6ThCFQs91Qk//mUKLCpS1HhMUMJ+d9hH2fygC7A6irp0xA9HD1QDPHrUcJmUbq9AQ8L4ZhmGY5pDSrl27Rp7z2gxrMcNazCS7FsqqQK2iGspDTC3DmzZtklp69uwp+4OOGTNG1bAwaaEsE1NRIv5NRXGH9XAPmOrVUrq9HkMOFiEzPxvb6gvgFoFrZn6ZXO+3f/8PpmT/C0WZmzCodiowLxP5uvOtCGbfmdsB690rcQH1L7b7FJaWiVj9xgzkVPm2qyFdxR3+hoyrf+09Ll49+wpQ32cH0q6gdmTruEx9fBfyjyxBv3/konJaLjyrVGAtwtmn3ilGf89KUX+irE/43luZpeXOCrwx+ThKMvOhlVga1iPtkS6onZYi+xAvTMBztynni5NYvY7Wrl2LLVu2yF9OnLRv3x4ffiienIJw2mmnSR3B9pOSkiL3Q3rpZ2MTpJf0HD16VJWYYS1moq3ljjvukIOe6Rc3J/F4Tce6Fg6IWUsArMUMazGjtZx//vn44IMPVCnkMvHxxx9LLU0PiLejKudauDekIe8umxZKUzbYI4JeChJLZVDsbXs9sgNF3/mJKKe0a8Ww9byQ1KzJwICJo/HXkwqIrW26n3Zj4DTbcdF6NrhRTC3Gdhoq8b+9bsUy8f4///x3/lr3roa7/2S/z8gYEM/sD/+3UY3ytL6YRGncOCBWpf7E6nX04x//GIMGDcKnn36qvD7atm2Lw4cPq6VAaBvUxzLYfijYon2R1lDBVjgDk1iLmWhrOfvss1FSUuL3vaqJx2s61rVwQMxaAmAtZliLmXC1JGKAEwrWYobPFzOsxQxrMcNazDRHi9BhdSOmJxd6bTI7Jj+ZxuSzW6j9kBGsJdAI1hJoBGsJNCLWtGgz+TVOnzaNyWe3cLXQ60Xb1YA5m9EkJfv3rAFlvnWuq01j8tmtKVpMZsfkJ9OYfHaLRy3aTH6N06dNY/LZLVwtJh+ZHZOfTGPy2Y21mI21mI21mK05WqI+MUeHDh2sWZtiANZihrWYYS1mwtUSjYkW+DMyw+eLGf6MzLAWM6zFTKJoSWnfvn0jNVVT8zH1fQmGbs4OBkXX1Jwdqg7RuXNn7Nu3Ty0FwlrMsBYzrMVMLGrRP4HTZAtOEvm4ZGZm4rPPPpM5hO20hpZgxKKWZD1fgsFazLAWM6zFTCgtqbq/BnXwptcms2Pyk2lMPruF2g8ZwVoCjWAtgUawlkAjYk2LNpNf4/Rp05h8dgtXi8lHZsfkJ9OYfHbT+6G+b/Rl7vQT0dYSzIhY06LN5Nc4fdo0Jp/dwtVi8pHZMfnJNCaf3ViL2ViL2ViL2Zqjxb/zBsMwDMMwDMMkGRwQMwzDtCA0ojnUT4UMwzBM68Np11hLAKzFDGsxE64W6hO6ZMkSbNy4UXksaMQv7Yu00k9ZJkgv5ywNJJG1pKeny4kQhg0bpjwWrXHuxtJ1xFr8YS1mWIuZUFo4IGYtAbAWM6zFTFO0XH/99arUBwVbtB+qEyrYIj08q5U/ia6FJiRwztLVWueuCdbCWuywFjPxooUDYtYSAGsxw1rMsBYzrMUMazHDWsywFjOsxUxztKSkp6c30k6i9XNZp06d8P7776ulQFiLGdZihrWYYS1mWkMLdRGgus4vcv6MzLAWM6zFDGsxw1rMhNIS9Yk5OnbsiAMHDqil1oW1mGEtZliLGdZiRmuhPMSffvop6urqlCf68GdkhrWYYS1mWIuZRNHCXSZYSwCsxQxrMcNazGgtF198MY4cORLQasGfkRnWYoa1mGEtZliLmVBaOO0awzAMwzAMk9RwQMwwDNOC0M93H3/8sVpiGIZhYhEOiBmGYVqQhoYGfP7552qJYRiGiUU4IGYYhmEYhmGSGg6IGYZhGIZhmKSGA2KGYZgW5KKLLkKHDh3UEsMwDBOLcEDMMAzTglCqIEoozzAMw8QuKT179myk/G40c0ewGUJoFhHKE0f54ULVoS/9YHnmNGeffbZMUh8M1mKGtZhhLWZYi5nW0NKuXTscPXo0QBd/RmZYixnWYoa1mGEtZkJp4Yk5WEsArMUMazHDWsxoLdRl4rPPPsPBgweVx4I/IzOsxQxrMcNazLAWM6G0cJcJhmGYFuTtt98OCIYZhmGY2IIDYoZhGIZhGCap4YCYYRiGYRiGSWo4IGYYhmlBXC4XzjzzTLXEMAzDxCIcEDMMw7QgHTt2xLnnnquWGIZhmFiEA2KGYRiGYRgmqUnp1KmTOelbC0GtJQcOHFBLrQtrMcNazLAWM6zFjNaSmZkp82LW1dUpT/Thz8gMazHDWsywFjOJoiUlPT29kXK7UaLiYPnfCKpDeduCJU2mPHKUNJnyu4VCBOB4//331VIgrMUMazHDWsywFjOtoaVt27ayrjN/ZrIfl2CwFjOsxQxrMcNazITSwhNzsJYAWIsZ1mKGtZhhLWZYixnWYoa1mGEtZpqjhfsQMwzDMAzDMEkNB8QMwzAMwzBMUsMBMcMwTAty0UUXoUOHDmqJYRiGiUU4IGYYhmlBqN8bDQZhGIZhYhcOiBmGYRiGYZikJpVG9xEpKSlypJ/J7Jj8ZBqTz26h9kNGsJZAI1hLoBGsJdAI1hJoRLS10GhmGjnt9BPJfFyCGcFaAo1gLYFGsJZAI1hLoBHB6kR9Yg7qS3fw4EG11LqwFjOsxQxrMcNazLAWM6zFDGsxw1rMsBYzzdGS0r59+0bK/0atGJSsOBg6R1wwKLqmvnKh6hCdO3fGvn371FIgrMUMazHDWsywFjOsxQxrMcNazLAWM6zFTLxoSdVJkGl2EHptMjsmP5nG5LNbqP2QEawl0AjWEmgEawk0grUEGsFaAo1gLYFGsJZAI1hLoBGsJdCIeNDi33mDYRiGiSgulwtnnnmmWmIYhmFiEQ6IGYZhWpCOHTvi3HPPVUsMwzBMLMIBMcMwDMMwDJPEAP8fHau8765JiHYAAAAASUVORK5CYII=;" vertex="1" parent="1">
          <mxGeometry x="70" y="450" width="608" height="520.41" as="geometry" />
        </mxCell>
        <mxCell id="IDw5NzByzCioOK2gBph7-2" value="time_id DATETIME NOT NULL" style="shape=partialRectangle;overflow=hidden;connectable=0;fillColor=none;top=0;left=0;bottom=0;right=0;align=left;spacingLeft=6;" vertex="1" parent="1">
          <mxGeometry x="150" y="210" width="220" height="30" as="geometry">
            <mxRectangle width="220" height="30" as="alternateBounds" />
          </mxGeometry>
        </mxCell>
        <mxCell id="IDw5NzByzCioOK2gBph7-4" value="FK1" style="shape=partialRectangle;overflow=hidden;connectable=0;fillColor=none;top=0;left=0;bottom=0;right=0;" vertex="1" parent="1">
          <mxGeometry x="120" y="210" width="30" height="30" as="geometry" />
        </mxCell>
      </root>
    </mxGraphModel>
  </diagram>
</mxfile>
